<svg xmlns="http://www.w3.org/2000/svg" width="24.71" height="23" viewBox="0 0 24.71 23"><defs><style>.cls-1{fill:#fff;}</style></defs><title>Ресурс 4</title><g id="Слой_2" data-name="Слой 2"><g id="Слой_1-2" data-name="Слой 1"><path class="cls-1" d="M18,23H6.48A3.52,3.52,0,0,1,3,20.26L1.34,12.91a.14.14,0,0,0-.14-.11A1.2,1.2,0,0,1,0,11.59V10A1.49,1.49,0,0,1,1.49,8.54H23.22A1.49,1.49,0,0,1,24.71,10v1.57a1.2,1.2,0,0,1-1.2,1.2h-.22a.14.14,0,0,0-.14.11l-1.69,7.35A3.52,3.52,0,0,1,18,23ZM1.49,9.6a.43.43,0,0,0-.43.43v1.57a.14.14,0,0,0,.14.14,1.2,1.2,0,0,1,1.17.93L4.07,20a2.47,2.47,0,0,0,2.42,1.92H18A2.47,2.47,0,0,0,20.42,20l1.69-7.35a1.2,1.2,0,0,1,1.17-.93h.22a.14.14,0,0,0,.14-.14V10a.43.43,0,0,0-.43-.43Z"/><path class="cls-1" d="M18,12.31H6.7a.38.38,0,0,1,0-.76H18a.38.38,0,0,1,0,.76Z"/><circle class="cls-1" cx="4.87" cy="11.93" r="0.55"/><circle class="cls-1" cx="19.84" cy="11.93" r="0.55"/><rect class="cls-1" x="6.63" y="14.57" width="1.33" height="5.78" rx="0.66" ry="0.66"/><rect class="cls-1" x="10.01" y="14.57" width="1.33" height="5.78" rx="0.66" ry="0.66"/><rect class="cls-1" x="13.38" y="14.57" width="1.33" height="5.78" rx="0.66" ry="0.66"/><rect class="cls-1" x="16.75" y="14.57" width="1.33" height="5.78" rx="0.66" ry="0.66"/><path class="cls-1" d="M20.11,9.44a.83.83,0,0,1-.83-.83V5.17A3.18,3.18,0,0,0,16.1,2H8.61A3.18,3.18,0,0,0,5.43,5.17V8.49a.83.83,0,1,1-1.66,0V5.17A4.85,4.85,0,0,1,8.61.33H16.1a4.85,4.85,0,0,1,4.84,4.84V8.61A.83.83,0,0,1,20.11,9.44Z"/><rect class="cls-1" x="7.74" width="9.24" height="2.18" rx="1.09" ry="1.09"/></g></g></svg>