<svg xmlns="http://www.w3.org/2000/svg" width="36" height="36" viewBox="0 0 36 36"><defs><style>.cls-1{fill:#ef4423;}</style></defs><title>Ресурс 35</title><g id="Слой_2" data-name="Слой 2"><g id="Слой_1-2" data-name="Слой 1"><path class="cls-1" d="M35.63,17.63H27.18V.37A.37.37,0,0,0,26.82,0H9.18a.37.37,0,0,0-.37.37V17.63H.37A.37.37,0,0,0,0,18V35.63A.37.37,0,0,0,.37,36H35.63a.37.37,0,0,0,.37-.37V18A.37.37,0,0,0,35.63,17.63Zm-2.81.74v7.55l-1.59-1.59a.37.37,0,0,0-.52,0l-1.59,1.59V18.37ZM24,.74V8.29L22.42,6.71a.37.37,0,0,0-.52,0L20.31,8.29V.74ZM9.55.74h10V9.18a.37.37,0,0,0,.23.34.36.36,0,0,0,.14,0,.37.37,0,0,0,.26-.11l2-2,2,2a.36.36,0,0,0,.4.08.37.37,0,0,0,.23-.34V.74h1.7V17.63H9.55V.74Zm1.94,17.63h3.7v7.55L13.6,24.34a.37.37,0,0,0-.52,0l-1.59,1.59Zm-10.76,0h10v8.45a.37.37,0,0,0,.63.26l2-2,2,2a.37.37,0,0,0,.26.11l.14,0a.37.37,0,0,0,.23-.34V18.37h1.7V35.26H.74ZM35.26,35.26H18.37V18.37h10v8.45a.37.37,0,0,0,.23.34l.14,0a.37.37,0,0,0,.26-.11l2-2,2,2a.37.37,0,0,0,.63-.26V18.37h1.7V35.26Z"/></g></g></svg>