<svg xmlns="http://www.w3.org/2000/svg" width="36" height="27.03" viewBox="0 0 36 27.03"><defs><style>.cls-1{fill:#ef4423;}</style></defs><title>Ресурс 36</title><g id="Слой_2" data-name="Слой 2"><g id="Слой_1-2" data-name="Слой 1"><path class="cls-1" d="M29.14,22.15a1.7,1.7,0,0,0,1.26-.54,1.8,1.8,0,0,0,.54-1.26,1.7,1.7,0,0,0-.54-1.26,1.93,1.93,0,0,0-1.26-.49,1.7,1.7,0,0,0-1.26.54,1.8,1.8,0,0,0-.54,1.26,1.7,1.7,0,0,0,.54,1.26A1.76,1.76,0,0,0,29.14,22.15Z"/><path class="cls-1" d="M31,23a.64.64,0,0,1-.27.09h-.09s0,0,0,.09a.47.47,0,0,1-.4.22.27.27,0,0,1-.18,0,0,0,0,0,1,0,0,.55.55,0,0,1-.36.18.64.64,0,0,1-.27-.09.38.38,0,0,1-.22.13l2,3.45L30.93,25l1.7,1.12Z"/><path class="cls-1" d="M28.78,23.45a.64.64,0,0,1-.27.09.41.41,0,0,1-.36-.18,0,0,0,0,0,0,0s-.09,0-.18,0a.53.53,0,0,1-.4-.22s0,0,0-.09h-.09a.27.27,0,0,1-.18,0l-1.79,3.09L27.12,25,27,27l2-3.45h0S28.87,23.54,28.78,23.45Z"/><path class="cls-1" d="M26.94,22c-.4.27,0,.76.36.4-.31.36.22.76.45.31-.22.4.36.67.54.22a.28.28,0,1,0,.54.13.29.29,0,1,0,.58,0,.28.28,0,1,0,.54-.13.3.3,0,1,0,.54-.22.28.28,0,1,0,.45-.31c.31.36.76-.13.36-.4a.29.29,0,1,0,.27-.49.29.29,0,1,0,.18-.54.3.3,0,1,0,0-.58.3.3,0,1,0,0-.58.29.29,0,1,0-.18-.54.29.29,0,1,0-.27-.49c.4-.27,0-.76-.36-.4.31-.36-.22-.76-.45-.31.22-.4-.36-.67-.54-.22a.28.28,0,1,0-.54-.13.29.29,0,1,0-.58,0,.28.28,0,1,0-.54.13.3.3,0,1,0-.54.22.28.28,0,1,0-.45.31c-.31-.36-.76.13-.36.4a.29.29,0,1,0-.27.49.29.29,0,1,0-.18.54.3.3,0,1,0,0,.58.3.3,0,1,0,0,.58.29.29,0,1,0,.18.54A.29.29,0,1,0,26.94,22Zm2.2-3.81a2.2,2.2,0,1,1-2.2,2.2A2.14,2.14,0,0,1,29.14,18.16Z"/><path class="cls-1" d="M29.9,13.72a.59.59,0,0,0-.58-.58H6.59a.58.58,0,0,0,0,1.17H29.32A.54.54,0,0,0,29.9,13.72Z"/><path class="cls-1" d="M6,10.13a.59.59,0,0,0,.58.58H29.28a.58.58,0,1,0,0-1.17H6.59A.6.6,0,0,0,6,10.13Z"/><path class="cls-1" d="M25.42,7.17a.9.9,0,0,0,0-1.79h-15a.9.9,0,1,0,0,1.79Z"/><path class="cls-1" d="M21.83,18.52a.58.58,0,1,0,0-1.17H14a.58.58,0,1,0,0,1.17Z"/><path class="cls-1" d="M32.64,21.38a1.44,1.44,0,0,0,.85-1.3V3.81a1.42,1.42,0,0,0-1.43-1.43H3.81A1.42,1.42,0,0,0,2.38,3.81V20.08a1.42,1.42,0,0,0,1.43,1.43H25.64s0-.13,0-.18v-.18a.34.34,0,0,1-.09-.22H3.81A.85.85,0,0,1,3,20.08V3.81A.85.85,0,0,1,3.81,3H32a.85.85,0,0,1,.85.85V20.08a.76.76,0,0,1-.13.45v.13a.76.76,0,0,1-.13.45v.18S32.64,21.34,32.64,21.38Z"/><path class="cls-1" d="M32.86,0H3A3,3,0,0,0,0,3V20.94a3,3,0,0,0,3,3H26.14l.54-.9a1,1,0,0,1-.31-.31H3a1.8,1.8,0,0,1-1.79-1.79V3A1.8,1.8,0,0,1,3,1.21H33A1.8,1.8,0,0,1,34.74,3V20.94A1.8,1.8,0,0,1,33,22.73H32c0,.13-.13.18-.22.27l.54.94H33a3,3,0,0,0,3-3V3A3.18,3.18,0,0,0,32.86,0Z"/></g></g></svg>