<svg xmlns="http://www.w3.org/2000/svg" width="18" height="18" viewBox="0 0 18 18"><defs><style>.cls-1{fill:#eacba9;}</style></defs><title>Ресурс 21</title><g id="Слой_2" data-name="Слой 2"><g id="Слой_1-2" data-name="Слой 1"><path class="cls-1" d="M9,0a9,9,0,1,0,9,9A9,9,0,0,0,9,0ZM9,17a8,8,0,1,1,8-8A8,8,0,0,1,9,17Z"/><path class="cls-1" d="M16.49,8.68A7.49,7.49,0,0,0,9.32,1.51V2.69H8.68V1.51A7.49,7.49,0,0,0,1.51,8.68H2.69v.64H1.51a7.49,7.49,0,0,0,7.17,7.17V15.31h.64v1.17a7.49,7.49,0,0,0,7.17-7.17H15.31V8.68ZM11.13,5.92,9.65,8.5a.82.82,0,1,1-1-.26V3.83a.31.31,0,0,1,.62,0v4L10.6,5.62a.31.31,0,0,1,.53.31Z"/></g></g></svg>