<svg xmlns="http://www.w3.org/2000/svg" width="24" height="23.35" viewBox="0 0 24 23.35"><defs><style>.cls-1{fill:#eacba9;}</style></defs><title>Ресурс 3</title><g id="Слой_2" data-name="Слой 2"><g id="Слой_1-2" data-name="Слой 1"><path class="cls-1" d="M20.16,3.82a.35.35,0,0,0-.29-.15H13.79A1.81,1.81,0,0,0,13.5,3V1.64a1.5,1.5,0,0,0-3,0V3a1.81,1.81,0,0,0-.28.67H4.12a.35.35,0,0,0-.29.16h0c-.15.24-3.68,5.89-3.68,8a4,4,0,0,0,8,0c0-1.73-2.43-5.91-3.35-7.42h5.45a1.81,1.81,0,0,0,.28.67V20.31H4.56a1.42,1.42,0,0,0-1.42,1.42v1.13a.36.36,0,0,0,.36.36h17a.36.36,0,0,0,.36-.36V21.73a1.42,1.42,0,0,0-1.42-1.42H13.5V5.05a1.81,1.81,0,0,0,.28-.67h5.45c-.91,1.51-3.35,5.69-3.35,7.42a4,4,0,0,0,8,0c0-2.08-3.53-7.73-3.68-8Zm2.94,7.63H16.65c.28-1.62,2.18-5,3.23-6.74C20.93,6.44,22.83,9.83,23.11,11.45ZM10.9,4A1.1,1.1,0,0,1,13.1,4h0A1.1,1.1,0,0,1,10.9,4ZM12,.85a.78.78,0,0,1,.78.78v.75a1.76,1.76,0,0,0-1.57,0V1.64A.78.78,0,0,1,12,.85ZM4.12,4.71c1,1.73,3,5.12,3.23,6.74H.89C1.17,9.83,3.07,6.44,4.12,4.71Zm0,10.36A3.27,3.27,0,0,1,.87,12.17H7.37A3.27,3.27,0,0,1,4.12,15.08Zm16,6.65v.77H3.87v-.77a.7.7,0,0,1,.7-.7H19.44A.7.7,0,0,1,20.13,21.73Zm-8.92-1.42V5.67a1.76,1.76,0,0,0,1.57,0V20.31Zm8.66-5.24a3.27,3.27,0,0,1-3.25-2.91h6.49A3.27,3.27,0,0,1,19.88,15.08Z"/><path class="cls-1" d="M20.49,23.35h-17A.49.49,0,0,1,3,22.86V21.73a1.55,1.55,0,0,1,1.55-1.55h5.8V5.1a1.94,1.94,0,0,1-.26-.58H5c1.07,1.78,3.24,5.61,3.24,7.29a4.12,4.12,0,0,1-8.24,0c0-2.12,3.55-7.8,3.7-8l0,0a.48.48,0,0,1,.39-.2h6A1.94,1.94,0,0,1,10.36,3V1.64a1.64,1.64,0,0,1,3.28,0V3a1.94,1.94,0,0,1,.25.57h6a.48.48,0,0,1,.38.19l0,0c.15.24,3.7,5.92,3.7,8a4.12,4.12,0,0,1-8.24,0c0-1.67,2.17-5.51,3.24-7.29h-5.1a1.94,1.94,0,0,1-.26.58V20.18h5.8A1.55,1.55,0,0,1,21,21.73v1.13A.49.49,0,0,1,20.49,23.35ZM4.56,20.45a1.28,1.28,0,0,0-1.28,1.28v1.13a.22.22,0,0,0,.22.22h17a.22.22,0,0,0,.22-.22V21.73a1.28,1.28,0,0,0-1.28-1.28H13.37V5l0,0a1.67,1.67,0,0,0,.26-.62l0-.11h5.8l-.12.2C18.57,5.74,16,10.09,16,11.81a3.85,3.85,0,0,0,7.7,0c0-2-3.38-7.45-3.65-7.88l0,0a.22.22,0,0,0-.18-.1h-6.2l0-.11a1.67,1.67,0,0,0-.26-.62l0,0V1.64a1.37,1.37,0,0,0-2.74,0V3l0,0a1.67,1.67,0,0,0-.26.62l0,.11H4.12a.22.22,0,0,0-.18.1l0,0C3.65,4.36.27,9.8.27,11.81a3.85,3.85,0,0,0,7.7,0c0-1.72-2.55-6.06-3.33-7.35l-.12-.2h5.8l0,.11a1.67,1.67,0,0,0,.26.62l0,0V20.45Zm15.7,2.19H3.73v-.9a.83.83,0,0,1,.83-.83H19.44a.83.83,0,0,1,.83.83ZM4,22.37H20v-.64a.56.56,0,0,0-.56-.56H4.56a.56.56,0,0,0-.56.56Zm8.92-1.92H11.08v-15l.19.09a1.63,1.63,0,0,0,1.45,0l.19-.09Zm-1.57-.27h1.3V5.87a1.88,1.88,0,0,1-1.3,0Zm8.53-5a3.4,3.4,0,0,1-3.38-3l0-.15h6.8l0,.15A3.4,3.4,0,0,1,19.88,15.21ZM16.79,12.3a3.13,3.13,0,0,0,6.19,0ZM4.12,15.21a3.4,3.4,0,0,1-3.38-3l0-.15h6.8l0,.15A3.4,3.4,0,0,1,4.12,15.21ZM1,12.3a3.13,3.13,0,0,0,6.19,0Zm22.24-.72H16.49l0-.16c.33-1.9,2.76-6,3.25-6.78l.12-.19.12.19c.48.8,2.92,4.88,3.25,6.78Zm-6.46-.27h6.13A29.13,29.13,0,0,0,19.88,5,29.13,29.13,0,0,0,16.81,11.31Zm-9.3.27H.73l0-.16c.33-1.9,2.76-6,3.25-6.78l.12-.19.12.19c.48.8,2.92,4.88,3.25,6.78Zm-6.46-.27H7.19A29.14,29.14,0,0,0,4.12,5,29.12,29.12,0,0,0,1.06,11.31ZM12,5.27A1.24,1.24,0,1,1,13.24,4h0A1.24,1.24,0,0,1,12,5.27Zm0-2.21a1,1,0,1,0,1,1V4h0A1,1,0,0,0,12,3.06Zm.92-.45-.19-.09a1.63,1.63,0,0,0-1.45,0l-.19.09v-1a.92.92,0,0,1,1.84,0ZM12,2.07a1.9,1.9,0,0,1,.65.12V1.64a.65.65,0,0,0-1.3,0v.55A1.89,1.89,0,0,1,12,2.07Z"/></g></g></svg>