<svg xmlns="http://www.w3.org/2000/svg" width="15.77" height="19" viewBox="0 0 15.77 19"><defs><style>.cls-1{fill:#8f8070;}</style></defs><title>Ресурс 31</title><g id="Слой_2" data-name="Слой 2"><g id="Слой_1-2" data-name="Слой 1"><path class="cls-1" d="M15.19,2.23H10.77V1.37A1.37,1.37,0,0,0,9.39,0h-3A1.37,1.37,0,0,0,5,1.37v.85H.55a.55.55,0,0,0,0,1.1h.91v13.3A2.38,2.38,0,0,0,3.84,19h8.08a2.38,2.38,0,0,0,2.38-2.38V3.29h.91a.53.53,0,1,0,0-1.07ZM6,1.37a.31.31,0,0,1,.3-.3h3a.31.31,0,0,1,.3.3v.85H6Zm7.17,15.22a1.29,1.29,0,0,1-1.28,1.28H3.81a1.29,1.29,0,0,1-1.28-1.28V3.29H13.21Z"/><path class="cls-1" d="M7.87,15.71a.52.52,0,0,0,.52-.55V6a.54.54,0,0,0-.52-.55A.57.57,0,0,0,7.32,6v9.15A.55.55,0,0,0,7.87,15.71Z"/><path class="cls-1" d="M10.92,15.71a.55.55,0,0,0,.55-.55V6a.55.55,0,0,0-1.1,0v9.15A.57.57,0,0,0,10.92,15.71Z"/><path class="cls-1" d="M4.82,15.71a.55.55,0,0,0,.55-.55V6a.55.55,0,0,0-1.1,0v9.15A.55.55,0,0,0,4.82,15.71Z"/></g></g></svg>