<svg xmlns="http://www.w3.org/2000/svg" width="47" height="29" viewBox="0 0 47 29"><defs><style>.cls-1{fill:#f34d19;}</style></defs><title>Ресурс 12</title><g id="Слой_2" data-name="Слой 2"><g id="Слой_1-2" data-name="Слой 1"><path class="cls-1" d="M42.32,7.11a1.93,1.93,0,0,0-1.46-.67H33.12V2.2A2.06,2.06,0,0,0,31.06.13H9.31A2.06,2.06,0,0,0,7.24,2.2V3.51H3.73a.36.36,0,0,0,0,.72H7.24v3H2.65a.36.36,0,1,0,0,.72H7.24v3H1.93a.36.36,0,1,0,0,.72H7.24v3H.49a.36.36,0,1,0,0,.72H7.24v7.58a2.06,2.06,0,0,0,2.06,2.06h3.44a4.33,4.33,0,0,0,8.64,0H35.32a4.33,4.33,0,0,0,8.64,0h1.49a1.42,1.42,0,0,0,1.42-1.42V13.12a2,2,0,0,0-.48-1.3Zm-25.26,21a3.62,3.62,0,1,1,3.62-3.62A3.62,3.62,0,0,1,17.07,28.15ZM32.4,22.82a1.34,1.34,0,0,1-1.35,1.34H21.39a4.33,4.33,0,0,0-8.64,0H9.31A1.34,1.34,0,0,1,8,22.82V18.58H32.4Zm0-5H8V15.24h3.16a.36.36,0,1,0,0-.72H8v-3h5.68a.36.36,0,0,0,0-.72H8v-3h8.2a.36.36,0,0,0,0-.72H8v-3H22.27a.36.36,0,1,0,0-.72H8V2.2A1.34,1.34,0,0,1,9.31.85H31.06A1.34,1.34,0,0,1,32.4,2.2Zm10.85,6.67a3.62,3.62,0,0,1-7.24,0h0a3.62,3.62,0,0,1,7.24,0h0Zm2.89-1.06a.7.7,0,0,1-.7.7H44a4.33,4.33,0,0,0-8.64,0H32.62a2,2,0,0,0,.5-1.34V7.16h7.74a1.22,1.22,0,0,1,.92.42L43,9h-5.9a1,1,0,0,0-1,1v5a1,1,0,0,0,1,1h9Zm0-8.16h-9a.3.3,0,0,1-.3-.3V10a.3.3,0,0,1,.3-.3h6.52l2.2,2.55a1.26,1.26,0,0,1,.31.83Z"/><path class="cls-1" d="M39.64,29a4.5,4.5,0,0,1-4.44-4H21.51a4.47,4.47,0,0,1-8.88,0H9.31a2.2,2.2,0,0,1-2.2-2.2V15.38H.49a.49.49,0,1,1,0-1H7.11V11.71H1.93a.49.49,0,1,1,0-1H7.11V8H2.65a.49.49,0,1,1,0-1H7.11V4.37H3.73a.49.49,0,0,1,0-1H7.11V2.2A2.2,2.2,0,0,1,9.31,0H31.06a2.2,2.2,0,0,1,2.2,2.2V6.31h7.6A2.07,2.07,0,0,1,42.42,7h0l4.06,4.71A2.12,2.12,0,0,1,47,13.12V23.47A1.55,1.55,0,0,1,45.45,25H44.08A4.5,4.5,0,0,1,39.64,29ZM21.26,24.75H35.44v.12a4.2,4.2,0,0,0,8.37,0v-.12h1.62a1.28,1.28,0,0,0,1.28-1.28V13.12a1.85,1.85,0,0,0-.45-1.21L42.22,7.2a1.8,1.8,0,0,0-1.36-.62H33V2.2A1.93,1.93,0,0,0,31.06.27H9.31A1.93,1.93,0,0,0,7.38,2.2V3.65H3.73a.22.22,0,1,0,0,.45H7.38V7.32H2.65a.22.22,0,0,0,0,.45H7.38V11H1.93a.22.22,0,1,0,0,.45H7.38v3.22H.49a.22.22,0,1,0,0,.45H7.38v7.72a1.93,1.93,0,0,0,1.93,1.93h3.57v.12a4.2,4.2,0,0,0,8.37,0Zm18.37,3.53a3.76,3.76,0,0,1-3.75-3.75v0a3.75,3.75,0,0,1,7.51,0v0A3.76,3.76,0,0,1,39.64,28.28Zm-3.48-3.73a3.48,3.48,0,0,0,7,0v0a3.48,3.48,0,0,0-7,0v0ZM17.07,28.28a3.75,3.75,0,1,1,3.75-3.75A3.76,3.76,0,0,1,17.07,28.28Zm0-7.24a3.48,3.48,0,1,0,3.48,3.48A3.49,3.49,0,0,0,17.07,21ZM45.45,24.3H43.83v-.12a4.2,4.2,0,0,0-8.37,0v.12H32.33l.19-.22A1.92,1.92,0,0,0,33,22.82V7h7.87a1.35,1.35,0,0,1,1,.47l1.43,1.66H37.12a.89.89,0,0,0-.89.89v5a.89.89,0,0,0,.89.89h9.16v7.58A.83.83,0,0,1,45.45,24.3ZM44.08,24h1.37a.56.56,0,0,0,.56-.56V16.16H37.12A1.16,1.16,0,0,1,36,15V10a1.16,1.16,0,0,1,1.16-1.16h5.6l-1-1.21a1.08,1.08,0,0,0-.82-.37h-7.6V22.82A2.19,2.19,0,0,1,32.89,24h2.3a4.47,4.47,0,0,1,8.88,0Zm-13,.27h-9.8v-.12a4.2,4.2,0,0,0-8.37,0v.12H9.31a1.48,1.48,0,0,1-1.48-1.48V18.44H32.54v4.38A1.48,1.48,0,0,1,31.06,24.3ZM21.51,24h9.55a1.21,1.21,0,0,0,1.21-1.21V18.71H8.1v4.11A1.21,1.21,0,0,0,9.31,24h3.32a4.47,4.47,0,0,1,8.88,0Zm11-6H7.83V15.11h3.3a.22.22,0,1,0,0-.45H7.83V11.44h5.82a.22.22,0,1,0,0-.45H7.83V7.77h8.33a.22.22,0,0,0,0-.45H7.83V4.1H22.27a.22.22,0,1,0,0-.45H7.83V2.2A1.48,1.48,0,0,1,9.31.72H31.06A1.48,1.48,0,0,1,32.54,2.2ZM8.1,17.73H32.27V2.2A1.21,1.21,0,0,0,31.06,1H9.31A1.21,1.21,0,0,0,8.1,2.2V3.38H22.27a.49.49,0,0,1,0,1H8.1V7h8.06a.49.49,0,0,1,0,1H8.1v2.68h5.55a.49.49,0,0,1,0,1H8.1v2.68h3a.49.49,0,1,1,0,1h-3Zm38.19-2.28H37.12a.44.44,0,0,1-.44-.44V10a.44.44,0,0,1,.44-.44H43.7l2.24,2.6a1.4,1.4,0,0,1,.34.91ZM37.12,9.87A.17.17,0,0,0,37,10v5a.17.17,0,0,0,.17.17H46V13.12a1.13,1.13,0,0,0-.28-.74L43.58,9.87Z"/><path class="cls-1" d="M39.64,22.65a1.88,1.88,0,1,0,1.88,1.88A1.88,1.88,0,0,0,39.64,22.65Zm0,3a1.16,1.16,0,1,1,1.16-1.16A1.16,1.16,0,0,1,39.64,25.69Z"/><path class="cls-1" d="M39.64,26.54a2,2,0,1,1,2-2A2,2,0,0,1,39.64,26.54Zm0-3.76a1.75,1.75,0,1,0,1.75,1.75A1.75,1.75,0,0,0,39.64,22.78Zm0,3a1.3,1.3,0,1,1,1.3-1.3A1.3,1.3,0,0,1,39.64,25.82Zm0-2.32a1,1,0,1,0,1,1A1,1,0,0,0,39.64,23.5Z"/><path class="cls-1" d="M17.07,22.65a1.88,1.88,0,1,0,1.88,1.88A1.88,1.88,0,0,0,17.07,22.65Zm0,3a1.16,1.16,0,1,1,1.16-1.16A1.16,1.16,0,0,1,17.07,25.69Z"/><path class="cls-1" d="M17.07,26.54a2,2,0,1,1,2-2A2,2,0,0,1,17.07,26.54Zm0-3.76a1.75,1.75,0,1,0,1.75,1.75A1.75,1.75,0,0,0,17.07,22.78Zm0,3a1.3,1.3,0,1,1,1.3-1.3A1.3,1.3,0,0,1,17.07,25.82Zm0-2.32a1,1,0,1,0,1,1A1,1,0,0,0,17.07,23.5Z"/></g></g></svg>