<svg xmlns="http://www.w3.org/2000/svg" width="21.72" height="30.48" viewBox="0 0 21.72 30.48"><defs><style>.cls-1{fill:#ef4423;}</style></defs><title>Ресурс 30</title><g id="Слой_2" data-name="Слой 2"><g id="Слой_1-2" data-name="Слой 1"><path class="cls-1" d="M18.77,14.23l-.86.94-2.06,2.27-2.49,2.74-2.15,2.37c-.35.38-.71.76-1,1.15l0,0h1.39l-.86-.94L8.64,20.52,6.15,17.77,4,15.4c-.35-.38-.68-.78-1-1.15l0,0a1,1,0,0,0-1.39,0,1,1,0,0,0,0,1.39l.86.94,2.06,2.27L7,21.58,9.1,23.95c.35.38.68.78,1,1.15l0,0a1,1,0,0,0,1.39,0l.86-.94,2.06-2.27,2.49-2.74,2.15-2.37c.35-.38.7-.76,1-1.15l0,0a1,1,0,1,0-1.39-1.39Z"/><path class="cls-1" d="M11.84,24.43V1.94c0-.31,0-.61,0-.92V1a1,1,0,1,0-2,0V23.47c0,.31,0,.61,0,.92v0a1,1,0,1,0,2,0Z"/><path class="cls-1" d="M20.74,28.51H3.41c-.8,0-1.6,0-2.4,0H1a1,1,0,1,0,0,2H18.31c.8,0,1.6,0,2.4,0h0a1,1,0,0,0,0-2Z"/></g></g></svg>