<svg xmlns="http://www.w3.org/2000/svg" width="19.33" height="12.05" viewBox="0 0 19.33 12.05"><defs><style>.cls-1{fill:#ef4423;}</style></defs><title>Ресурс 42</title><g id="Слой_2" data-name="Слой 2"><g id="Слой_1-2" data-name="Слой 1"><g id="a"><path class="cls-1" d="M19.07,6.77a1.19,1.19,0,0,0,0-1.48Q14.44,0,9.68,0T.29,5.35a1,1,0,0,0,0,1.42,16.44,16.44,0,0,0,3.53,3.29,10.45,10.45,0,0,0,5.85,2q4.77,0,9.4-5.28m-9.4-5a4,4,0,0,1,3,1.22,4.11,4.11,0,0,1,1.22,3,4,4,0,0,1-1.22,3,4,4,0,0,1-3,1.22A4.1,4.1,0,0,1,6.66,9a4,4,0,0,1-1.22-3A4.18,4.18,0,0,1,9.68,1.8m1.42,2.77A1.93,1.93,0,0,0,9.68,4a2.11,2.11,0,0,0-1.47.58,2.15,2.15,0,0,0-.58,1.48,1.93,1.93,0,0,0,.58,1.42,2.11,2.11,0,0,0,1.47.58,2,2,0,0,0,2-2A2.15,2.15,0,0,0,11.09,4.58Z"/></g></g></g></svg>