<svg xmlns="http://www.w3.org/2000/svg" width="29" height="23.2" viewBox="0 0 29 23.2"><defs><style>.cls-1{fill:#0c4435;}</style></defs><title>Ресурс 49</title><g id="Слой_2" data-name="Слой 2"><g id="Слой_1-2" data-name="Слой 1"><path class="cls-1" d="M.55,4.16H17.69a3.61,3.61,0,0,0,7.09,0h3.67A.51.51,0,0,0,29,3.67a.51.51,0,0,0-.55-.48H24.81a3.6,3.6,0,0,0-7.15,0H.55A.51.51,0,0,0,0,3.67.51.51,0,0,0,.55,4.16ZM21.23,1a2.51,2.51,0,1,1-2.51,2.51A2.52,2.52,0,0,1,21.23,1Z"/><path class="cls-1" d="M28.45,11.25H13.79a3.52,3.52,0,0,0-3.58-3.19,3.52,3.52,0,0,0-3.58,3.19H.55a.49.49,0,1,0,0,1H6.67a3.61,3.61,0,0,0,7.09,0H28.45a.49.49,0,1,0,0-1ZM10.21,14.08a2.51,2.51,0,1,1,2.51-2.51A2.52,2.52,0,0,1,10.21,14.08Z"/><path class="cls-1" d="M28.45,19.3H21.14a3.6,3.6,0,0,0-7.15,0H.55a.49.49,0,1,0,0,1H14a3.37,3.37,0,0,0,3.54,2.93,3.37,3.37,0,0,0,3.54-2.93h7.35a.49.49,0,1,0,0-1ZM17.56,22.17a2.51,2.51,0,1,1,2.51-2.51A2.52,2.52,0,0,1,17.56,22.17Z"/></g></g></svg>