<svg xmlns="http://www.w3.org/2000/svg" width="26.08" height="25.18" viewBox="0 0 26.08 25.18"><defs><style>.cls-1,.cls-2{fill:#eacba9;}.cls-1{stroke:#eacba9;stroke-miterlimit:10;}</style></defs><title>Ресурс 6</title><g id="Слой_2" data-name="Слой 2"><g id="Слой_1-2" data-name="Слой 1"><path class="cls-1" d="M12.28.63A9.83,9.83,0,0,0,10.69.5,15.84,15.84,0,0,0,4.43,2a6.78,6.78,0,0,0-2,.92A4.7,4.7,0,0,0,1.42,4.9,15.07,15.07,0,0,0,.69,7.46,10.57,10.57,0,0,0,.81,12c.76,3,3.18,5.82,5.67,8.38a13.38,13.38,0,0,0,8.4,4.28l.54,0c3.27,0,6.32-2.07,8.09-4,3.63-4,2.5-9.07-3.44-15.55A13.15,13.15,0,0,0,12.28.63ZM23.52,19.51a10.83,10.83,0,0,1-8.13,4.42h-.34c-2.59,0-5.3-1.36-8.08-4a22.37,22.37,0,0,1-5.38-7.63C.72,9.85,1.05,7,2.61,3.67a17.87,17.87,0,0,1,8.45-2.5h.06c2.63,0,5.17,1.21,7.77,3.71a27.59,27.59,0,0,1,4.84,6.41A7.32,7.32,0,0,1,23.52,19.51Z"/><path class="cls-2" d="M15.57,18h.06a.21.21,0,0,0,.2-.15.22.22,0,0,0-.08-.25,12,12,0,0,0-2-1.08,13.26,13.26,0,0,1-1.82-.94,10.07,10.07,0,0,1-3.17-3.72c-.67-1.21-1.56-3.5-.06-5.28a4.86,4.86,0,0,1,3.19-1.78,1.75,1.75,0,0,1,.61.1.29.29,0,0,0,.37-.21.28.28,0,0,0-.14-.32,2,2,0,0,0-1-.24A4.81,4.81,0,0,0,9,5.29C7.51,6.52,6.9,7.8,7.12,9.32,7.7,13.45,10.86,16.68,15.57,18Z"/><path class="cls-2" d="M5.45,11.38a3,3,0,0,0-.83-1c-.55-.46-.52-1.75-.5-2.61,0-.2,0-.38,0-.53V7.15H3.88v.11c0,.14,0,.35,0,.58-.09.9-.21,2.13.31,2.61a7.62,7.62,0,0,1,1.92,3.7c.1.33.2.67.32,1a.14.14,0,0,0,.13.1.14.14,0,0,0,.11-.05l0-.06v-.05A14.26,14.26,0,0,0,5.45,11.38Z"/><path class="cls-2" d="M14.58,6.28c.16,0,.42.31.6.5l.21.22.23.21c.32.29.66.59,1,.89a4.52,4.52,0,0,1,1.51,3.18.14.14,0,0,0,.28,0A4.27,4.27,0,0,0,17,8.06a15,15,0,0,0-1.22-1.15l-.38-.34a2,2,0,0,1-.17-.18c-.17-.2-.38-.43-.66-.38a.13.13,0,0,0-.11.13l0,.12Z"/><path class="cls-2" d="M22,12.46c.11.25.22.49.32.67a4.19,4.19,0,0,1-.11,4l0,.07.08.13h.13l0,0A4,4,0,0,0,23,13.73a4.93,4.93,0,0,0-.71-1.54c-.12-.19-.23-.38-.33-.56s-.11-.22-.16-.33a1.69,1.69,0,0,0-.61-.85l0,0h0a.16.16,0,0,0-.15.11.15.15,0,0,0,0,.16A5.69,5.69,0,0,1,22,12.46Z"/><path class="cls-2" d="M8.58,3.23,9,3.14l.11,0C10,3,11,2.93,11.79,2.89H12a.15.15,0,0,0,.14-.15A.15.15,0,0,0,12,2.57a12.14,12.14,0,0,0-2.88.31h0A10.32,10.32,0,0,0,8,3.12H8a4.53,4.53,0,0,0-1.18.41l-.08.05.05.18h.14A6,6,0,0,1,8,3.34Z"/><path class="cls-2" d="M12.26,9.24A2.11,2.11,0,0,0,12,8a.16.16,0,0,0-.25,0,.15.15,0,0,0,0,.15,1.93,1.93,0,0,1,.18,1.06,2.21,2.21,0,0,0,.14,1,2.91,2.91,0,0,0,1.31,1.37c.66.41,1.32.84,2,1.26l.14.09a9.31,9.31,0,0,1,2,1.95l.52.61a.16.16,0,0,0,.12.06.18.18,0,0,0,.16-.09.16.16,0,0,0,0-.17,10.36,10.36,0,0,0-3.34-3.14l-.59-.35a6,6,0,0,1-1.84-1.4A1.83,1.83,0,0,1,12.26,9.24Z"/><path class="cls-2" d="M20.18,21.77a3.45,3.45,0,0,0-2.34-1.13,15.46,15.46,0,0,0-1.6,0c-.36,0-.7,0-1,0a4.83,4.83,0,0,1-1.95-.33l0,0-.29-.14h0a3.87,3.87,0,0,1-.71-.5l-.06,0h0a.15.15,0,0,0-.14.11.14.14,0,0,0,.06.16,8.79,8.79,0,0,0,.79.47h0l.35.17h0a5.29,5.29,0,0,0,1.79.51A11.3,11.3,0,0,0,17.29,21,3.84,3.84,0,0,1,20,22l.15.1h0a.15.15,0,0,0,.14-.1.15.15,0,0,0,0-.16Z"/><path class="cls-2" d="M9.41,18.83l-.19-.24L9,18.33a3.84,3.84,0,0,0-.44-.58l0,0a.9.9,0,0,1-.07-.12.14.14,0,0,0-.15-.08l-.42-.42.3.51h0a.15.15,0,0,0,.06.16l.11.1,0,0a4.28,4.28,0,0,0,.44.58l.19.28.09.12c.19.27.4.54.62.8l0,0H9.9l.06-.14,0-.06C9.76,19.28,9.59,19.05,9.41,18.83Z"/><path class="cls-2" d="M23.24,18.08a3.76,3.76,0,0,0-1.4.56,5.9,5.9,0,0,1-1.92.65.17.17,0,0,0-.14.18.18.18,0,0,0,.18.16h0a7.06,7.06,0,0,0,1.63-.48c.22-.1.42-.22.61-.33a4.63,4.63,0,0,1,1.06-.49l.11,0v-.1A.14.14,0,0,0,23.24,18.08Z"/><path class="cls-2" d="M3.93,4.44l-.08-.13H3.73l0,0A2.45,2.45,0,0,0,2.94,5.9.15.15,0,0,0,3,6a.16.16,0,0,0,.12.05A.17.17,0,0,0,3.25,6c.06-.14.11-.29.16-.43a4,4,0,0,1,.48-1Z"/></g></g></svg>