<svg xmlns="http://www.w3.org/2000/svg" width="20.67" height="27.04" viewBox="0 0 20.67 27.04"><defs><style>.cls-1{fill:#eacba9;}</style></defs><title>Ресурс 7</title><g id="Слой_2" data-name="Слой 2"><g id="Слой_1-2" data-name="Слой 1"><path class="cls-1" d="M17.48,17.36c-.66,3.72-3.65,5.72-5.8,4.44a2.49,2.49,0,0,0-2.15-.21V18.3a.79.79,0,1,1,1.59,0v.39a.79.79,0,0,0,.17.49,2.38,2.38,0,0,0,4.6-.88V16.71a.8.8,0,0,1,.79-.79h.91a7.64,7.64,0,0,1-.12,1.44Zm-6.35-6.8-.31.23a.7.7,0,0,1-.87,0A5.09,5.09,0,0,0,6.14,9.6L6,9.62c-3.32.59-4.86,4.48-4.24,8a9,9,0,0,0,.92,2.68C.49,21.2,0,22.28,0,23.07s.58,2.08,3.34,3a23,23,0,0,0,7,1,23,23,0,0,0,7-1c2.76-.92,3.34-2.14,3.34-3s-.47-1.84-2.56-2.71A9,9,0,0,0,19,17.64c.65-3.69-1-7.45-4.24-8a4.49,4.49,0,0,0-2.09.13A6.67,6.67,0,0,0,11.13,10.56ZM4.77,20.64l-.25-.32-.07-.09A7.18,7.18,0,0,1,3.3,17.36a7.64,7.64,0,0,1-.12-1.44H4a.8.8,0,0,1,.79.79Zm-1.2,1A6.47,6.47,0,0,0,5.15,23a.8.8,0,0,0,1.21-.66V16.71A2.39,2.39,0,0,0,4,14.33H3.39a4,4,0,0,1,2.85-3.14,3.36,3.36,0,0,1,2.7.83,2.31,2.31,0,0,0,2.88,0,3.36,3.36,0,0,1,2.7-.83,4,4,0,0,1,2.85,3.14h-.7a2.39,2.39,0,0,0-2.38,2.38V18.3a.79.79,0,1,1-1.59,0,2.38,2.38,0,1,0-4.77,0v4.53a.8.8,0,0,0,1,.76,4.39,4.39,0,0,0,.93-.42.91.91,0,0,1,1,0,4.28,4.28,0,0,0,2.23.62,5.47,5.47,0,0,0,4.08-2.08c1.48.55,1.89,1.12,1.89,1.37s-.47.9-2.25,1.49a21.39,21.39,0,0,1-6.49.89,21.39,21.39,0,0,1-6.49-.89C2.06,24,1.59,23.33,1.59,23.07s.43-.84,2-1.4Zm0,0"/><path class="cls-1" d="M10.43,11.12h-.09a.49.49,0,0,1-.38-.57C10,10.22,11.56,2,15.49.24a.47.47,0,0,1,.38.85c-3.5,1.56-5,9.55-5,9.65A.39.39,0,0,1,10.43,11.12Z"/><path class="cls-1" d="M10.43,11.33h-.14a.69.69,0,0,1-.54-.8c0-.08,1.54-8.63,5.65-10.46h0A.67.67,0,0,1,16.3.4a.71.71,0,0,1,0,.51.63.63,0,0,1-.36.37c-2,.88-3.74,4.28-4.85,9.32l0,.17A.59.59,0,0,1,10.43,11.33Zm-.07-.41h.07c.05,0,.22,0,.22-.17v-.08l0-.15c.67-3,2.22-8.33,5.09-9.61h0a.22.22,0,0,0,.13-.13.3.3,0,0,0,0-.21.26.26,0,0,0-.34-.12c-2,.88-3.32,3.51-4.11,5.57a27.44,27.44,0,0,0-1.3,4.58A.29.29,0,0,0,10.36,10.91Zm.31-.26h0Z"/></g></g></svg>