<svg xmlns="http://www.w3.org/2000/svg" width="22.73" height="41" viewBox="0 0 22.73 41"><defs><style>.cls-1{fill:#ef4423;}</style></defs><title>Ресурс 38</title><g id="Слой_2" data-name="Слой 2"><g id="Слой_1-2" data-name="Слой 1"><path class="cls-1" d="M2,14,1.7,17a.24.24,0,0,0,.14.24L4.5,18.44,5,19.53l0,.06L1.07,31.37a.24.24,0,0,0,0,.14l2.58,9.08a.24.24,0,0,0,.46,0L10.24,22l1,.71a.24.24,0,0,0,.28,0l1-.72,6.13,18.6a.24.24,0,0,0,.46,0l2.58-9.08a.24.24,0,0,0,0-.14L17.77,19.58l0-.05.48-1.08,2.66-1.22A.24.24,0,0,0,21,17L20.75,14l1.7-2.4a.24.24,0,0,0,0-.28L20.75,9,21,6a.24.24,0,0,0-.14-.24L18.23,4.55,17,1.86a.24.24,0,0,0-.24-.14L13.88,2,11.5.28a.24.24,0,0,0-.13,0h0a.24.24,0,0,0-.15,0L8.85,2l-2.9-.29a.24.24,0,0,0-.24.14L4.5,4.55,1.84,5.77A.24.24,0,0,0,1.7,6L2,9,.28,11.36a.24.24,0,0,0,0,.28ZM3.9,39.71,1.55,31.45,5.27,20.16l.44,1a.24.24,0,0,0,.24.14L8.85,21l1,.71Zm17.29-8.27-2.35,8.27-5.94-18,1-.71,2.9.29a.24.24,0,0,0,.24-.14l.44-1ZM2.42,9.15a.24.24,0,0,0,0-.16L2.19,6.13,4.78,4.94a.24.24,0,0,0,.12-.12L6.07,2.21l2.82.28a.24.24,0,0,0,.16,0L11.36.77l2.31,1.67a.24.24,0,0,0,.16,0l2.82-.28,1.17,2.62a.24.24,0,0,0,.12.12l2.59,1.19L20.27,9a.24.24,0,0,0,0,.16L22,11.5l-1.65,2.34a.24.24,0,0,0,0,.16l.27,2.86L18,18.05a.24.24,0,0,0-.12.12l-1.17,2.61-2.82-.28a.24.24,0,0,0-.16,0l-2.31,1.67L9.06,20.55a.24.24,0,0,0-.16,0l-2.82.28L4.9,18.16A.24.24,0,0,0,4.78,18L2.19,16.86,2.47,14a.24.24,0,0,0,0-.16L.77,11.5Z"/><path class="cls-1" d="M3.88,41a.48.48,0,0,1-.46-.35L.84,31.57a.47.47,0,0,1,0-.28L4.73,19.53l-.41-.91L1.74,17.44A.48.48,0,0,1,1.46,17l.27-2.86L.09,11.77a.48.48,0,0,1,0-.55L1.74,8.89,1.46,6a.48.48,0,0,1,.28-.48L4.32,4.37,5.49,1.76A.48.48,0,0,1,6,1.48l2.81.28L11.08.09A.5.5,0,0,1,11.38,0a.48.48,0,0,1,.27.09l2.31,1.67,2.81-.28a.47.47,0,0,1,.48.28l1.17,2.61L21,5.55a.48.48,0,0,1,.28.48L21,8.89l1.65,2.34a.48.48,0,0,1,0,.55L21,14.1,21.27,17a.48.48,0,0,1-.28.48l-2.58,1.19-.41.91,3.88,11.76a.47.47,0,0,1,0,.28l-2.58,9.08a.48.48,0,0,1-.91,0l-6-18.29-.72.53a.47.47,0,0,1-.56,0l-.72-.52-6,18.29A.48.48,0,0,1,4,41ZM14.54,27.44l4.31,13.08h0ZM2.76,27,1.3,31.44l2.58,9.08L1.3,31.44Zm-1,4.44L3.91,38.9l5.64-17.1-.77-.56L6,21.51a.48.48,0,0,1-.48-.28l-.18-.41Zm11.38-9.66L18.82,38.9l2.12-7.45-3.5-10.63-.18.41a.48.48,0,0,1-.48.28l-2.81-.28Zm-4.26-1,1.2.87L4.63,38.25l5.48-16.63-1.2-.87-3,.3Zm2.45,1.78h0l2.45-1.78ZM8.92,20.27a.48.48,0,0,1,.28.09l2.17,1.57,2.17-1.57a.49.49,0,0,1,.33-.09l2.65.26,1.1-2.46a.48.48,0,0,1,.23-.24l2.44-1.12L20,14a.48.48,0,0,1,.08-.32l1.56-2.2-1.56-2.2A.48.48,0,0,1,20,9l.26-2.7L17.85,5.16a.48.48,0,0,1-.24-.24l-1.1-2.46-2.65.26a.47.47,0,0,1-.32-.09L11.36,1.07,9.2,2.63a.48.48,0,0,1-.33.09L6.22,2.46,5.12,4.92a.48.48,0,0,1-.24.24L2.45,6.28,2.7,9a.48.48,0,0,1-.08.32h0L1.06,11.5l1.56,2.2A.48.48,0,0,1,2.7,14l-.26,2.7,2.43,1.12a.47.47,0,0,1,.24.24l1.1,2.46,2.65-.26Zm7.89.77h0l.67-1.49h0Zm1.24-2.77,0,.1ZM20.92,9.6l1.34,1.89L20.5,14l.29,3-.29-3,1.75-2.48ZM5.92,2,4.68,4.73,1.94,6l.29,3L.93,10.86,2.23,9h0L1.94,6,4.68,4.73,5.92,2l3,.3L11.36.48h0L8.92,2.25ZM20.79,6l0,.27Z"/><path class="cls-1" d="M11.37,18.41A6.91,6.91,0,1,0,4.46,11.5,6.91,6.91,0,0,0,11.37,18.41Zm0-13.35A6.44,6.44,0,1,1,4.93,11.5,6.43,6.43,0,0,1,11.37,5.06Z"/><path class="cls-1" d="M11.37,18.65a7.15,7.15,0,1,1,7.15-7.15A7.16,7.16,0,0,1,11.37,18.65Zm0-13.35a6.2,6.2,0,1,0,6.2,6.2A6.2,6.2,0,0,0,11.37,5.3Z"/></g></g></svg>