<svg xmlns="http://www.w3.org/2000/svg" width="37.44" height="34.67" viewBox="0 0 37.44 34.67"><defs><style>.cls-1{fill:#f34d19;}</style></defs><title>Ресурс 9</title><g id="Слой_2" data-name="Слой 2"><g id="Слой_1-2" data-name="Слой 1"><path class="cls-1" d="M30,34.67a1.12,1.12,0,0,1-1.16-.95c-.34-1.81-.59-3.62-.79-5.39-.1,1.52-.26,3.05-.51,4.58a1.31,1.31,0,0,1-1.49.89,1.22,1.22,0,0,1-1-1.24c0-.8-.05-1.59-.08-2.36a55.43,55.43,0,0,0-1-10.3l-4,4a1.61,1.61,0,0,1-2,.21,1.51,1.51,0,0,1-.54-1.8.35.35,0,0,1,0-.09c5.4-7.54,6.76-10.39,6.67-19h0c0-.73,0-1.51,0-2.35a.33.33,0,0,1,.32-.33h9.86a.33.33,0,0,1,.32.39c-.16.73-.29,1.49-.4,2.33-.62,4.95.1,9.55.86,14.42.12.76.24,1.52.35,2.29q.94,3.66,1.86,7.32l.06.26a1,1,0,0,1-.62,1.23,1,1,0,0,1-1.18-.53c-.72-1.69-1.44-3.37-2.15-5L34,30.93a1.2,1.2,0,0,1-1,1.26,1.21,1.21,0,0,1-1.31-.84L31.14,28l.18,5.33a1.25,1.25,0,0,1-1.18,1.28ZM27.91,22.81a.32.32,0,0,1,.32.3A93.68,93.68,0,0,0,29.47,33.6a.52.52,0,0,0,.61.41.61.61,0,0,0,.6-.61l-.37-10.73a.32.32,0,0,1,.65-.06l1.33,8.58a.54.54,0,0,0,.59.35c.27,0,.43-.26.44-.61l-.61-9.62a.32.32,0,0,1,.62-.15q1.43,3.4,2.88,6.77a.33.33,0,0,0,.39.19c.15-.05.23-.23.19-.48l-.06-.22q-.93-3.67-1.87-7.33v0c-.11-.77-.23-1.54-.35-2.3-.72-4.59-1.46-9.33-.9-14.24H24.87c0,8.55-1.36,11.49-6.76,19a.87.87,0,0,0,.3,1,1,1,0,0,0,1.16-.14L24,19a.32.32,0,0,1,.32-.08.32.32,0,0,1,.23.24,53.87,53.87,0,0,1,1.09,11c0,.77,0,1.56.08,2.37a.58.58,0,0,0,.49.62.64.64,0,0,0,.75-.42,68.86,68.86,0,0,0,.67-9.6.33.33,0,0,1,.32-.32Zm-3-19.94h8.81c.08-.6.18-1.17.29-1.71H24.84C24.86,1.76,24.87,2.33,24.87,2.87ZM12.94,34.15H3.08a.32.32,0,0,1-.32-.39c.17-.8.31-1.59.4-2.33h0c.62-4.94-.1-9.54-.86-14.4-.12-.76-.24-1.53-.35-2.3l-.14-.55Q.92,10.67,0,7.15A1,1,0,0,1,.64,5.92a1,1,0,0,1,1.18.52L4,11.5,3.49,3.74a1.19,1.19,0,0,1,1-1.26,1.22,1.22,0,0,1,1.32.84l.51,3.3Q6.21,4,6.12,1.29A1.26,1.26,0,0,1,7.31,0a1.13,1.13,0,0,1,1.3.94c.34,1.81.6,3.64.79,5.41.1-1.53.25-3.07.5-4.59A1.31,1.31,0,0,1,11.4.88a1.22,1.22,0,0,1,1,1.25c0,.8.05,1.59.08,2.36a55.42,55.42,0,0,0,1,10.3l4-4a1.63,1.63,0,0,1,2-.21,1.51,1.51,0,0,1,.54,1.8.34.34,0,0,1,0,.09c-5.4,7.54-6.77,10.39-6.68,19h0q0,1.11.05,2.35a.32.32,0,0,1-.32.33ZM3.48,33.5h9.14q0-.89,0-1.71H3.76C3.69,32.34,3.59,32.92,3.48,33.5Zm.37-2.36h8.72c0-8.55,1.37-11.48,6.77-19a.86.86,0,0,0-.3-1,1,1,0,0,0-1.17.14l-4.4,4.42a.32.32,0,0,1-.55-.16,53.81,53.81,0,0,1-1.09-11c0-.77,0-1.55-.08-2.37a.58.58,0,0,0-.48-.62.66.66,0,0,0-.75.42,69.27,69.27,0,0,0-.66,9.6.33.33,0,0,1-.32.32.33.33,0,0,1-.33-.3A94.67,94.67,0,0,0,8,1.06a.51.51,0,0,0-.59-.4.62.62,0,0,0-.61.61q.18,4.91.34,9.83l0,.89a.32.32,0,0,1-.65.06l-.15-1Q5.75,7.28,5.16,3.47a.56.56,0,0,0-.6-.35c-.27,0-.42.26-.43.61l.6,9.62a.32.32,0,0,1-.62.15L1.24,6.72a.34.34,0,0,0-.39-.18C.69,6.59.62,6.77.65,7c.59,2.31,1.19,4.65,1.78,7l.14.56v0c.11.77.24,1.54.35,2.31C3.65,21.51,4.39,26.24,3.84,31.14Z"/></g></g></svg>