<svg xmlns="http://www.w3.org/2000/svg" width="33.5" height="15.89" viewBox="0 0 33.5 15.89"><defs><style>.cls-1{fill:#ef4423;}</style></defs><title>Ресурс 37</title><g id="Слой_2" data-name="Слой 2"><g id="Слой_1-2" data-name="Слой 1"><path class="cls-1" d="M0,.9q.44.18.88.32a7.67,7.67,0,0,0,.88.23v13A6.37,6.37,0,0,0,0,15v.64H5.62V15a5.51,5.51,0,0,0-.83-.31q-.46-.13-.92-.22v-13a8.93,8.93,0,0,0,.9-.23A7.64,7.64,0,0,0,5.62.9V.26H0ZM15.39,8.1a11.31,11.31,0,0,0-1.75-1q-.94-.45-1.75-.93A5.55,5.55,0,0,1,10.52,5,2.21,2.21,0,0,1,10,3.51a2.24,2.24,0,0,1,.69-1.74,2.59,2.59,0,0,1,1.82-.63,9.13,9.13,0,0,1,1.3.09,3.93,3.93,0,0,1,1,.26l.88,3h.57q.09-.37.18-.87t.16-1q.08-.53.13-1a8,8,0,0,0,.05-.87A7.19,7.19,0,0,0,15,.21,13.29,13.29,0,0,0,12.57,0a6,6,0,0,0-1.86.27,4.32,4.32,0,0,0-1.44.78,3.43,3.43,0,0,0-.93,1.23A3.94,3.94,0,0,0,8,3.93,3.87,3.87,0,0,0,8.55,6,5.47,5.47,0,0,0,9.88,7.49a9.6,9.6,0,0,0,1.74,1q.94.44,1.74.9a5.48,5.48,0,0,1,1.34,1.05A2.11,2.11,0,0,1,15.25,12,2.54,2.54,0,0,1,15,13.13a2.68,2.68,0,0,1-.71.88,3.12,3.12,0,0,1-1.06.55,4.51,4.51,0,0,1-1.32.19,3.2,3.2,0,0,1-1.25-.19,2.24,2.24,0,0,1-.68-.45l-.9-3.23H8.49q-.09.37-.18.9t-.16,1.09Q8.07,13.43,8,14t-.08.9a4.74,4.74,0,0,0,1.56.7,8.61,8.61,0,0,0,2.48.33,7.52,7.52,0,0,0,2.24-.31,4.75,4.75,0,0,0,1.67-.88,3.8,3.8,0,0,0,1-1.38,4.37,4.37,0,0,0,.36-1.8,3.56,3.56,0,0,0-.54-2A5.49,5.49,0,0,0,15.39,8.1ZM33,4.77a7.48,7.48,0,0,0-1.36-2.52A6.12,6.12,0,0,0,29.49.59a7.59,7.59,0,0,0-5.88,0,6.12,6.12,0,0,0-2.18,1.66,7.48,7.48,0,0,0-1.36,2.52,10.25,10.25,0,0,0-.47,3.17,10.24,10.24,0,0,0,.47,3.17,7.47,7.47,0,0,0,1.36,2.52,6.12,6.12,0,0,0,2.18,1.66,7.59,7.59,0,0,0,5.88,0,6.12,6.12,0,0,0,2.18-1.66A7.48,7.48,0,0,0,33,11.11a10.26,10.26,0,0,0,.47-3.17A10.26,10.26,0,0,0,33,4.77Zm-2.15,5.81a7.47,7.47,0,0,1-.81,2.16,4.25,4.25,0,0,1-1.37,1.46,3.52,3.52,0,0,1-2,.54,4.07,4.07,0,0,1-2.13-.54,4.51,4.51,0,0,1-1.49-1.46,7,7,0,0,1-.89-2.16,11.36,11.36,0,0,1-.3-2.64,13.8,13.8,0,0,1,.24-2.64,7,7,0,0,1,.77-2.16,4.11,4.11,0,0,1,1.37-1.46,3.74,3.74,0,0,1,2.05-.54,4.07,4.07,0,0,1,2.13.54A4.51,4.51,0,0,1,30,3.14a6.77,6.77,0,0,1,.88,2.16,11.78,11.78,0,0,1,.29,2.64A12.22,12.22,0,0,1,30.88,10.59Z"/></g></g></svg>