<svg xmlns="http://www.w3.org/2000/svg" width="29" height="29" viewBox="0 0 29 29"><defs><style>.cls-1{fill:#ef4423;}</style></defs><title>Ресурс 27</title><g id="Слой_2" data-name="Слой 2"><g id="Слой_1-2" data-name="Слой 1"><path class="cls-1" d="M29,6.44a.74.74,0,0,1-.64.81H.64A.74.74,0,0,1,0,6.44V.81A.74.74,0,0,1,.64,0H28.36A.74.74,0,0,1,29,.81Z"/><path class="cls-1" d="M29,17.32a.74.74,0,0,1-.64.81H.64A.74.74,0,0,1,0,17.32V11.68a.74.74,0,0,1,.64-.81H28.36a.74.74,0,0,1,.64.81Z"/><path class="cls-1" d="M29,28.19a.74.74,0,0,1-.64.81H.64A.74.74,0,0,1,0,28.19V22.56a.74.74,0,0,1,.64-.81H28.36a.74.74,0,0,1,.64.81Z"/></g></g></svg>