<svg xmlns="http://www.w3.org/2000/svg" width="15.91" height="12.5" viewBox="0 0 15.91 12.5"><defs><style>.cls-1{fill:gray;}</style></defs><title>Ресурс 19</title><g id="Слой_2" data-name="Слой 2"><g id="Слой_1-2" data-name="Слой 1"><path class="cls-1" d="M1.53,3.85,3.35,5.12,5.67,6.74,6,7l.48.34L7,7.63a2.68,2.68,0,0,0,.51.24A1.41,1.41,0,0,0,7.95,8H8a1.41,1.41,0,0,0,.44-.08,2.68,2.68,0,0,0,.51-.24l.46-.29L9.86,7l.38-.27,4.15-2.89a4.22,4.22,0,0,0,1.08-1.09,2.34,2.34,0,0,0,.44-1.34,1.36,1.36,0,0,0-.42-1,1.37,1.37,0,0,0-1-.42H1.42A1.27,1.27,0,0,0,.37.46,1.79,1.79,0,0,0,0,1.62,2.07,2.07,0,0,0,.49,2.83,4.41,4.41,0,0,0,1.53,3.85Z"/><path class="cls-1" d="M15,4.8q-2.91,2-4.42,3.06l-.82.58a5.07,5.07,0,0,1-.84.43,2.55,2.55,0,0,1-1,.22h0a2.56,2.56,0,0,1-1-.22,5.07,5.07,0,0,1-.84-.43l-.82-.58Q4.11,7,.9,4.8A4.7,4.7,0,0,1,0,4v7a1.37,1.37,0,0,0,.42,1,1.37,1.37,0,0,0,1,.42H14.49a1.42,1.42,0,0,0,1.42-1.42V4A4.9,4.9,0,0,1,15,4.8Z"/></g></g></svg>