<svg xmlns="http://www.w3.org/2000/svg" width="20.61" height="26.73" viewBox="0 0 20.61 26.73"><defs><style>.cls-1{fill:#eacba9;}</style></defs><title>Ресурс 5</title><g id="Слой_2" data-name="Слой 2"><g id="Слой_1-2" data-name="Слой 1"><path class="cls-1" d="M18,1C15.29-.73,12-.2,9.41,2.39A10,10,0,0,0,7.36,5.81a25.54,25.54,0,0,1-1.81,3.6,26.37,26.37,0,0,1-2.24,3.14A22,22,0,0,0,.79,16.25c-2,3.6,0,7.76,3.11,9.71a4.94,4.94,0,0,0,3.95.6l.07,0a8,8,0,0,0,4.76-4.09,31,31,0,0,0,1.81-4.09,17.77,17.77,0,0,1,1-2.28,19.81,19.81,0,0,1,2-2.81,14.43,14.43,0,0,0,2.85-4.72C21.15,5.44,20.25,2.41,18,1ZM19.37,5.7l-.17-.24a4.42,4.42,0,0,0-.56-.59,3.45,3.45,0,0,0,0-1.36c0-.08,0-.17-.05-.25l0-.06A5.26,5.26,0,0,1,19.37,5.7Zm-.24,2.42c-.17-.2-.35-.4-.54-.59a8.17,8.17,0,0,0-.72-.65,9,9,0,0,0,.6-1.38c0-.11.07-.22.09-.34a4.23,4.23,0,0,1,.36.48,5,5,0,0,1,.45.88A7.62,7.62,0,0,1,19.14,8.12ZM12,21.1a2.52,2.52,0,0,1-.5.13,5,5,0,0,1-.62.06h-.58l.09-.14c.09-.15.16-.3.24-.45l.11-.23.1-.23c.06-.15.15-.31.2-.47l.17-.46q.43-1.17.92-2.29a5.51,5.51,0,0,1,1,.95l.16.23A29,29,0,0,1,12,21.1Zm-1.94,2.84a.24.24,0,0,0-.28.11l0,0-.06,0-.14.07a1.83,1.83,0,0,1-.3.1,2.74,2.74,0,0,1-.66.07,5,5,0,0,1-1.35-.24l-.09,0a3.3,3.3,0,0,0,.37-.13,5,5,0,0,0,1.56-1q.41.11.82.19l.64.1.21,0A7.49,7.49,0,0,1,10.07,23.93ZM8.58,22.56a7.31,7.31,0,0,1-1.08-.37,6.27,6.27,0,0,1-.57-.27,2.14,2.14,0,0,1-.51-.37,2.16,2.16,0,0,0,.49.4,6.33,6.33,0,0,0,.55.32,8,8,0,0,0,1,.42,4.55,4.55,0,0,1-1.13.79,4.49,4.49,0,0,1-.42.18,4.51,4.51,0,0,1-.45.13h0l-.48-.23a5.39,5.39,0,0,1-1.16-.8,5.45,5.45,0,0,0,1.1.91l.28.17-.18,0-.47,0a4.91,4.91,0,0,1-1.85-.36,5,5,0,0,1-.86-.43,4.46,4.46,0,0,1-.46-.33c-.13-.19-.25-.39-.36-.59a2.3,2.3,0,0,0,.68.45l.1,0,.11,0,.22.05a2.14,2.14,0,0,0,.45,0A2.35,2.35,0,0,0,4,22.7l.21-.07.11,0,.1,0,.2-.1.19-.11a4.39,4.39,0,0,0,.37-.25,11,11,0,0,0,2.37-2.61c.35-.51.68-1,1-1.57l.14.1a4.83,4.83,0,0,1,.76.67A4.86,4.86,0,0,0,8.73,18l-.14-.12c.41-.71.8-1.43,1.16-2.17a11.29,11.29,0,0,1,1.78.89c-.35.82-.68,1.65-1,2.48l-.16.46c0,.16-.12.29-.17.44l-.09.22-.1.21c-.07.14-.13.29-.21.42l-.21.37a4.9,4.9,0,0,1-1.18-.41,4.11,4.11,0,0,1-1-.73,4.15,4.15,0,0,0,1,.81,5,5,0,0,0,1.13.48,7,7,0,0,1-.76,1Zm-6.7-3c0-.15-.1-.29-.15-.44s-.11-.29-.17-.44l-.1-.22a1.77,1.77,0,0,0-.13-.23h0A5.11,5.11,0,0,1,1.76,17l.2.29a7.35,7.35,0,0,1,.41.61l.09.16,0,.08,0,.09.06.14a7,7,0,0,0-.54,1c0,.1-.08.21-.11.32Zm.2.81a4.35,4.35,0,0,0,.4.41,5.25,5.25,0,0,0,.74.55,5.19,5.19,0,0,1-.66-.63,4,4,0,0,1-.41-.55,4.62,4.62,0,0,1,.24-.59,6.62,6.62,0,0,1,.43-.74,6.29,6.29,0,0,0,.71,1,6.7,6.7,0,0,0,1.1,1,6.64,6.64,0,0,1-1-1.12A6.13,6.13,0,0,1,3,18.62,14.47,14.47,0,0,1,4,17.34l.17.16a5.26,5.26,0,0,0,.74.55,5.2,5.2,0,0,1-.66-.63l-.16-.19.39-.43.88-1q.36.28.74.53c.57.38,1.17.7,1.73,1.07l.14.09q-.45.83-.94,1.63t-1,1.4A8.12,8.12,0,0,1,5,21.8a4,4,0,0,1-.33.26l-.17.12-.18.1-.09.05-.09,0-.19.08a2.47,2.47,0,0,1-.4.11,2,2,0,0,1-.41,0l-.21,0-.1,0-.1,0A2.27,2.27,0,0,1,2,22.17L1.9,22a5.27,5.27,0,0,1,0-.83A5,5,0,0,1,2.08,20.37Zm1.68-3.69-.09-.2-.07-.21a3.78,3.78,0,0,0-.17-.45,1.9,1.9,0,0,0-.12-.22l-.13-.19a.42.42,0,0,1-.06-.15,1.68,1.68,0,0,1,0-.2h0v0A.23.23,0,0,0,3,14.93c.25-.36.48-.67.71-1l.15.27a4.92,4.92,0,0,0,.64.84l.37.36-.83,1-.27.32Zm3-2.56a9.27,9.27,0,0,0,2.27,1.29l-.36.74c-.21.43-.43.85-.65,1.27l-.12-.09c-.54-.41-1.12-.77-1.67-1.17-.24-.17-.47-.35-.69-.54C6,15.14,6.41,14.64,6.79,14.12Zm2.68-7.2L9,6.85l-.44-.1-.21-.06-.08,0,.16-.38.2-.47L9,5.88c.32,0,.63.08.95.11l.25,0q-.28.47-.54,1Zm.35-3.18.5.05.63,0a3.24,3.24,0,0,1,.59.07l.09,0-.3.37c-.34.45-.66.92-1,1.4L10,5.65c-.31,0-.61-.1-.91-.16l-.22-.05A7.91,7.91,0,0,1,9.82,3.74Zm2.92.47L12.31,4c.19-.23.38-.45.59-.66a6.37,6.37,0,0,1,.56-.5,6.55,6.55,0,0,1,1.27.44,8.82,8.82,0,0,1,1,.57l-.29.25A13.82,13.82,0,0,0,13.42,6.6a7.76,7.76,0,0,0-1.57-.66,5.32,5.32,0,0,0-.76-.16c.23-.38.46-.76.71-1.13.13-.19.27-.37.41-.55l.48.21A7,7,0,0,1,13.75,5,7.07,7.07,0,0,0,12.75,4.22ZM17.29,2,17.4,2a3.76,3.76,0,0,1,.75.63,2.62,2.62,0,0,0-.41.08,4.15,4.15,0,0,0-.83.31,5,5,0,0,0-.51.3A3.35,3.35,0,0,0,15.8,3a3.39,3.39,0,0,1,.56.33,6.9,6.9,0,0,0-.58.44,8.89,8.89,0,0,0-1-.65,6.93,6.93,0,0,0-1.11-.5,4.94,4.94,0,0,1,.59-.37,3.91,3.91,0,0,1,1.64-.46A4.79,4.79,0,0,1,17.29,2Zm1.15,1.57a3.25,3.25,0,0,1-.07,1.11l-.22-.15c-.21-.13-.41-.22-.61-.34A5.43,5.43,0,0,1,17,3.78l-.34-.27L17,3.23a4,4,0,0,1,1.18-.52l.09.09A3.54,3.54,0,0,1,18.44,3.54ZM10.07,7.69l.17-.35a4.22,4.22,0,0,1,.49.19,5.2,5.2,0,0,1,.79.45,5.25,5.25,0,0,0-.74-.55,4.4,4.4,0,0,0-.46-.25c.2-.38.4-.77.61-1.14a5,5,0,0,1,.86.12,7.58,7.58,0,0,1,1.55.54l-.07.11c-.38.59-.73,1.21-1.07,1.83a5.32,5.32,0,0,1-.75-.37,5.32,5.32,0,0,0,.72.41q-.31.59-.61,1.18l-.38.79-.57-.21a11.39,11.39,0,0,1-1.16-.52l-.35-.2C9.42,9,9.74,8.37,10.07,7.69Zm-.75,2.55a11.7,11.7,0,0,0,1.21.48l.55.18c-.29.63-.58,1.27-.86,1.91l-.62-.22L9,12.31c-.28-.13-.56-.27-.83-.43l.08-.16.19-.41.18-.41L9,10.06ZM8.07,12c.26.17.53.33.81.48l.63.31.6.26q-.45,1.07-.94,2.12A9,9,0,0,1,7,13.85a15.3,15.3,0,0,0,.82-1.31C7.9,12.37,8,12.21,8.07,12Zm3.5,4.41a11.49,11.49,0,0,0-1.74-1c.34-.7.66-1.4,1-2.1a9.31,9.31,0,0,1,1.7,1.07h0q-.24.46-.47.93C11.88,15.75,11.72,16.1,11.57,16.45Zm1.15-2.38a9.74,9.74,0,0,0-1.79-1q.41-1,.84-1.91a11.37,11.37,0,0,1,1.93,1.17Q13.19,13.19,12.73,14.07Zm1-1.84A11.5,11.5,0,0,0,11.87,11l.36-.78c.19-.41.38-.81.58-1.21l.34.14.88.33a5,5,0,0,1,.84.38l.33.2c-.43.63-.84,1.26-1.25,1.91Zm1.56-2.41L15,9.63a5.2,5.2,0,0,0-.89-.34L13.18,9l-.34-.12q.45-.89.94-1.77L13.87,7a10.46,10.46,0,0,1,1.27.79,10.5,10.5,0,0,0-1.22-.87q.36-.62.77-1.22a11.84,11.84,0,0,1,1.05-1.33,7.19,7.19,0,0,1,.83-.79l.33.3a5.55,5.55,0,0,0,.56.42c.19.13.4.25.57.38l.27.23a5,5,0,0,1-.17.49,8.69,8.69,0,0,1-.62,1.22,8.15,8.15,0,0,0-.87-.54,9,9,0,0,0-1.11-.51,8.92,8.92,0,0,1,1.06.59,7.91,7.91,0,0,1,.83.61l-.2.32c-.35.54-.72,1.08-1.09,1.61Zm1.75-8-.28-.09c-.15,0-.29-.07-.44-.09a4,4,0,0,0-.45,0A4.09,4.09,0,0,0,14.1,2a5.4,5.4,0,0,0-1,.55,4.19,4.19,0,0,0-.55-.08l-.75-.09-.41-.06a6.13,6.13,0,0,1,2-.91A5,5,0,0,1,17.08,1.85ZM11,2.6h0l.77.07.77,0,.28,0L12.56,3a8.38,8.38,0,0,0-.78.79l-.18-.06A3.5,3.5,0,0,0,11,3.55l-.61-.09-.26,0,.16-.17A8.45,8.45,0,0,1,11,2.6ZM8.13,7.07l.15,0,.24,0,.47,0,.46,0h.06c-.37.7-.71,1.41-1,2.13l-.09-.06-.51-.37a5.58,5.58,0,0,1-.44-.38C7.71,8,7.93,7.52,8.13,7.07ZM7.22,8.94l.4.31c.18.13.36.25.55.37l.15.08-.41.9L7.73,11l-.18.39,0,.07a8.11,8.11,0,0,1-.84-.66l-.36-.35L6.58,10C6.82,9.66,7,9.29,7.22,8.94Zm-.93,1.57.33.37a8.24,8.24,0,0,0,.83.73c-.09.19-.19.39-.3.58-.22.4-.45.78-.7,1.16a5.23,5.23,0,0,1-.59-.76,4.1,4.1,0,0,1-.33-.65l-.07-.2C5.72,11.37,6,11,6.29,10.51ZM5.17,12.14a4.56,4.56,0,0,0,.37.66,5.63,5.63,0,0,0,.71.85h0c-.36.52-.75,1-1.15,1.52l-.31-.34A4.23,4.23,0,0,1,4,13.59l.22-.28C4.55,12.94,4.85,12.57,5.17,12.14ZM2.71,15.39h0a.83.83,0,0,0,.14.26l.15.17.12.17a3.48,3.48,0,0,1,.21.39l.11.21.13.2.08.11c-.24.3-.48.6-.7.91l-.18.27v0l0-.09-.08-.18a7.62,7.62,0,0,0-.39-.67A4.64,4.64,0,0,1,2,16.62C2.24,16.15,2.48,15.75,2.71,15.39ZM1.23,18.91l.2.35.2.41.11.21.12.19a4.76,4.76,0,0,0-.14,1.13c0,.15,0,.3,0,.45v0A5.79,5.79,0,0,1,1.23,18.91Zm6.38,6.46H7.56a3.76,3.76,0,0,1-3-.45,7.54,7.54,0,0,1-2.07-2,4.83,4.83,0,0,0,1.09.74,5,5,0,0,0,1.93.54,4.21,4.21,0,0,0,1-.05l.25,0,.38.17a5.08,5.08,0,0,0,1.41.36,3.25,3.25,0,0,0,.53,0A5.31,5.31,0,0,1,7.61,25.37Zm3.46-2.6-.21,0h-.3l-.62,0-.66-.08a7.27,7.27,0,0,0,.92-1.19,6.18,6.18,0,0,0,.7.09,5.33,5.33,0,0,0,.67,0l.21,0-.16.3A8.16,8.16,0,0,1,11.06,22.78Zm2.29-4.84-.07.19-.14-.21a5.61,5.61,0,0,0-1-1c.17-.4.35-.79.54-1.18l.36-.75.39.4c.15.16.29.34.43.51l.17.24C13.79,16.76,13.57,17.34,13.35,17.94Zm1-2.42,0,0,0,0c-.16-.18-.32-.36-.49-.53s-.35-.33-.54-.49q.46-.88,1-1.74.62.5,1.19,1A13.76,13.76,0,0,0,14.39,15.52Zm2.09-3c-.33.42-.67.85-1,1.29q-.55-.58-1.16-1.11c.45-.77.91-1.53,1.39-2.29.21.17.42.34.61.53a10.88,10.88,0,0,1,.76.8Zm.87-1.12c-.25-.25-.51-.49-.78-.72s-.45-.36-.68-.52L16.62,9c.35-.55.7-1.11,1-1.68l.13-.25a7.94,7.94,0,0,1,.58.67,9.09,9.09,0,0,1,.62.89A11.28,11.28,0,0,1,17.34,11.41Z"/></g></g></svg>