<svg xmlns="http://www.w3.org/2000/svg" width="13.5" height="18" viewBox="0 0 13.5 18"><defs><style>.cls-1{fill:#fff;}</style></defs><title>Ресурс 23</title><g id="Слой_2" data-name="Слой 2"><g id="Слой_1-2" data-name="Слой 1"><path class="cls-1" d="M13.39,12.86l-7.5-7.5a.38.38,0,0,0-.64.27V16a.38.38,0,0,0,.61.3l1.9-1.49,1.66,3a.38.38,0,0,0,.33.19.37.37,0,0,0,.17,0l2.25-1.12a.37.37,0,0,0,.16-.52L10.76,13.5h2.36a.38.38,0,0,0,.27-.64Z"/><path class="cls-1" d="M3.64,10.08a4.87,4.87,0,1,1,6.44-2.46.37.37,0,1,0,.68.31A5.62,5.62,0,0,0,.49,3.33a5.62,5.62,0,0,0,2.84,7.43.37.37,0,0,0,.15,0,.37.37,0,0,0,.15-.72Z"/></g></g></svg>