<svg xmlns="http://www.w3.org/2000/svg" width="29.92" height="37" viewBox="0 0 29.92 37"><defs><style>.cls-1{fill:#f34d19;}</style></defs><title>Ресурс 10</title><g id="Слой_2" data-name="Слой 2"><g id="Слой_1-2" data-name="Слой 1"><path class="cls-1" d="M11.34,18.41"/><path class="cls-1" d="M28.64,6.55a.54.54,0,0,0-.54.54v7.35c-.08.21-1,.88-4.35,1.4a10.71,10.71,0,0,0-17.57,0c-3.32-.52-4.28-1.19-4.35-1.4V6.78a.54.54,0,0,0-1.08,0V33.93c0,1,1.41,1.76,4.45,2.32A56.5,56.5,0,0,0,15,37a56.51,56.51,0,0,0,9.77-.75c3-.56,4.45-1.3,4.45-2.32V6.47c0-.3-.24.07-.54.07ZM24.27,35.23a56.66,56.66,0,0,1-9.31.68,56.66,56.66,0,0,1-9.31-.68c-3.39-.59-3.8-1.26-3.83-1.31V26.3a5.72,5.72,0,0,0,.55.25,17.25,17.25,0,0,0,3.34.84,10.71,10.71,0,0,0,18.48,0,17.25,17.25,0,0,0,3.34-.84,5.72,5.72,0,0,0,.55-.25v7.62c0,.06-.45.72-3.83,1.31ZM28.1,25c0,.06-.5.79-4.32,1.4a.54.54,0,0,0-.39.27,9.63,9.63,0,0,1-16.85,0,.54.54,0,0,0-.39-.27C2.3,25.74,1.85,25,1.82,25V15.78a5.93,5.93,0,0,0,.67.29A19.62,19.62,0,0,0,6.35,17a.54.54,0,0,0,.53-.24,9.63,9.63,0,0,1,16.15,0,.54.54,0,0,0,.53.24,19.64,19.64,0,0,0,3.86-.89,5.85,5.85,0,0,0,.67-.29Zm0,0"/><path class="cls-1" d="M25.25.79A59.45,59.45,0,0,0,15,0,59.45,59.45,0,0,0,4.67.79C1.48,1.38,0,2.15,0,3.21V5.85A.53.53,0,0,0,0,6c.15.62.89,1.49,4.77,2.19A60.12,60.12,0,0,0,15,9a59.49,59.49,0,0,0,10.29-.79c3.18-.59,4.67-1.36,4.67-2.42V3.21c0-1.06-1.48-1.83-4.67-2.42Zm-20.17,1A59.39,59.39,0,0,1,15,1.08a59.38,59.38,0,0,1,9.88.73c3.08.55,3.93,1.2,4,1.39h-.07l0,0h0l0,0,0,0,0,0,0,0,0,0,0,0,0,0,0,0,0,0,0,0,0,0,0,0,0,0,0,0,0,0,0,0,0,0,0,0-.05,0-.05,0-.06,0-.06,0-.06,0-.06,0-.07,0-.06,0-.07,0-.07,0-.08,0-.07,0-.08,0-.08,0-.09,0L27,4.1l-.1,0-.09,0-.1,0-.09,0-.11,0-.1,0-.11,0-.11,0-.12,0-.11,0-.12,0-.13,0-.12,0-.15,0-.11,0-.21,0h-.06l-.28.05A59.38,59.38,0,0,1,15,5.33,59.44,59.44,0,0,1,5.08,4.6l-.28-.05-.1,0-.17,0-.12,0-.14,0-.12,0L4,4.39l-.13,0-.1,0-.14,0-.08,0-.15,0H3.36l-.17,0h0L3,4.13H3c-1.39-.4-1.84-.78-1.89-.92s.91-.84,4-1.39ZM24.84,7.17A59.42,59.42,0,0,1,15,7.9a59.42,59.42,0,0,1-9.88-.73C2,6.61,1.13,6,1.08,5.77h0V4.57h0l.07,0,.07,0,.08,0,.08,0,.09,0,.08,0,.09,0,.08,0,.1,0,.09,0,.11,0,.09,0,.11,0,.09,0,.12,0,.09,0,.13,0,.09,0,.14,0,.1,0,.15,0,.09,0,.16,0,.09,0,.18,0,.09,0L4,5.5l.09,0,.22,0h.07l.3.06A59.45,59.45,0,0,0,15,6.42a59.5,59.5,0,0,0,10.29-.79l.3-.06h0l.25,0,.09,0,.18,0,.11,0,.16,0,.11,0,.14,0,.11,0,.13,0,.12,0,.12,0,.11,0,.11,0,.11,0,.11,0,.11,0,.1,0,.1,0,.1,0,.1,0,.09,0,.09,0,.09,0,.09,0,.08,0,.08,0,.08,0,.08,0,.07,0,0,0v1.2c0,.19-.88.84-4,1.4Zm0,0"/></g></g></svg>