<svg xmlns="http://www.w3.org/2000/svg" width="22.17" height="19" viewBox="0 0 22.17 19"><defs><style>.cls-1{fill:#eacba9;}</style></defs><title>Ресурс 8</title><g id="Слой_2" data-name="Слой 2"><g id="Слой_1-2" data-name="Слой 1"><path class="cls-1" d="M2.64,0V15.31c3.38,0,5.89,1.82,7.92,3.51V3.17A12,12,0,0,0,2.64,0ZM19.53,0a12,12,0,0,0-7.92,3.17V18.82c2-1.69,4.54-3.53,7.92-3.51ZM0,2.11V17.42L9.24,19a11,11,0,0,0-6.6-2.64H2.11a.55.55,0,0,1-.53-.53V2.33Zm22.17,0-1.58.22v13.5a.55.55,0,0,1-.53.53h-.53A11,11,0,0,0,12.93,19l9.24-1.58Z"/></g></g></svg>