<svg xmlns="http://www.w3.org/2000/svg" width="14.99" height="14.99" viewBox="0 0 14.99 14.99"><defs><style>.cls-1{fill:gray;}</style></defs><title>Ресурс 18</title><g id="Слой_2" data-name="Слой 2"><g id="Слой_1-2" data-name="Слой 1"><path class="cls-1" d="M11.4,9.92a1.05,1.05,0,0,0-1.59,0L8.7,11a.22.22,0,0,1-.31.06c-.24-.13-.5-.24-.73-.38A11.52,11.52,0,0,1,4.89,8.18a6.58,6.58,0,0,1-1-1.59A.23.23,0,0,1,4,6.29c.37-.36.73-.73,1.1-1.1a1.05,1.05,0,0,0,0-1.63L4.18,2.7l-.9-.9a1.06,1.06,0,0,0-1.59,0C1.32,2.17,1,2.55.58,2.91A1.81,1.81,0,0,0,0,4.13a5.17,5.17,0,0,0,.4,2.22,13.52,13.52,0,0,0,2.4,4A14.85,14.85,0,0,0,7.73,14.2a7.11,7.11,0,0,0,2.72.79,2,2,0,0,0,1.71-.65c.32-.36.68-.68,1-1a1.06,1.06,0,0,0,0-1.62Z"/><path class="cls-1" d="M10.8,7.43,12,7.24A5.17,5.17,0,0,0,7.58,3L7.42,4.15A4,4,0,0,1,10.8,7.43Z"/><path class="cls-1" d="M12.6,2.43A8.49,8.49,0,0,0,7.74,0L7.57,1.16a7.41,7.41,0,0,1,6.27,6.08L15,7A8.55,8.55,0,0,0,12.6,2.43Z"/></g></g></svg>