<svg xmlns="http://www.w3.org/2000/svg" width="13.7" height="17.17" viewBox="0 0 13.7 17.17"><defs><style>.cls-1{fill:#eacba9;}</style></defs><title>Ресурс 20</title><g id="Слой_2" data-name="Слой 2"><g id="Слой_1-2" data-name="Слой 1"><path class="cls-1" d="M6.61,0A6.85,6.85,0,0,0,.12,8.15h0s0,.07,0,.21A6.87,6.87,0,0,0,.63,9.73,19.84,19.84,0,0,0,6.47,17a.6.6,0,0,0,.76,0,19.82,19.82,0,0,0,5.84-7.31,6.58,6.58,0,0,0,.46-1.36c0-.14,0-.21,0-.21h0A6.85,6.85,0,0,0,6.61,0Zm.24,10.25a3.33,3.33,0,1,1,3.33-3.33A3.33,3.33,0,0,1,6.85,10.26Z"/></g></g></svg>