<?xml version="1.0" encoding="UTF-8" ?>
<!DOCTYPE svg PUBLIC "-//W3C//DTD SVG 1.1//EN" "http://www.w3.org/Graphics/SVG/1.1/DTD/svg11.dtd">
<svg width="75pt" height="90pt" viewBox="0 0 75 90" version="1.1" xmlns="http://www.w3.org/2000/svg">
<g id="#f34d19ff">
<path fill="#f34d19" opacity="1.00" d=" M 34.75 0.00 L 40.31 0.00 C 48.94 0.82 57.38 4.34 63.61 10.45 C 70.27 16.74 74.24 25.57 75.00 34.67 L 75.00 39.48 C 74.39 48.37 70.67 57.05 64.34 63.36 C 55.43 72.26 46.49 81.13 37.56 90.00 L 37.45 90.00 C 29.00 81.65 20.61 73.23 12.15 64.88 C 5.06 58.36 0.62 49.15 0.00 39.53 L 0.00 34.83 C 0.70 25.65 4.71 16.73 11.45 10.40 C 17.68 4.30 26.12 0.80 34.75 0.00 M 31.53 4.76 C 23.78 6.16 16.57 10.38 11.62 16.52 C 2.14 27.79 1.83 45.47 10.89 57.08 C 19.98 69.58 38.20 73.96 52.00 67.01 C 66.59 60.36 74.46 42.22 69.11 27.05 C 64.41 11.62 47.32 1.55 31.53 4.76 Z" />
<path fill="#f34d19" opacity="1.00" d=" M 31.41 6.53 C 45.96 3.41 61.93 12.07 66.96 26.12 C 72.66 40.19 66.22 57.75 52.72 64.72 C 39.21 72.43 20.40 68.21 11.67 55.28 C 2.81 43.16 4.58 24.83 15.63 14.66 C 19.97 10.51 25.53 7.68 31.41 6.53 M 34.15 11.23 C 20.37 12.67 9.37 26.35 11.25 40.14 C 12.49 54.34 26.83 65.53 40.91 63.29 C 54.85 61.84 65.88 47.80 63.68 33.89 C 62.17 19.92 48.03 9.10 34.15 11.23 Z" />
<path fill="#f34d19" opacity="1.00" d=" M 38.84 21.77 C 42.98 19.21 49.65 19.03 52.77 23.25 C 54.50 27.06 51.63 33.37 46.82 32.30 C 48.41 29.98 51.39 27.23 49.85 24.16 C 47.26 19.94 40.05 20.27 37.58 24.49 C 34.59 29.59 35.10 36.00 36.66 41.47 C 34.68 41.22 32.70 41.02 30.72 40.85 C 31.17 33.95 32.90 26.07 38.84 21.77 Z" />
<path fill="#f34d19" opacity="1.00" d=" M 51.21 31.99 C 53.12 32.88 55.35 33.90 56.11 36.03 C 56.79 39.24 55.28 42.76 52.77 44.76 C 42.07 49.86 29.30 43.85 18.85 49.94 C 20.47 46.93 21.17 42.35 25.09 41.45 C 31.81 40.48 38.23 44.04 44.96 43.53 C 48.53 43.51 52.67 41.68 53.56 37.90 C 54.40 35.58 52.46 33.68 51.21 31.99 Z" />
</g>
</svg>
