<svg xmlns="http://www.w3.org/2000/svg" width="24.09" height="30.37" viewBox="0 0 24.09 30.37"><defs><style>.cls-1{fill:#f34d19;}</style></defs><title>Ресурс 11</title><g id="Слой_2" data-name="Слой 2"><g id="Слой_1-2" data-name="Слой 1"><path class="cls-1" d="M.78,22.81H7.49v6.78a.78.78,0,0,0,1.56,0V22.81H21a.78.78,0,1,0,0-1.56H9v-4.8h6.82A8.23,8.23,0,0,0,15.87,0H8.3a.8.8,0,0,0-.78.7A.73.73,0,0,0,7.45,1V14.89H6.35a3.74,3.74,0,0,1-3.74-3.74.78.78,0,0,0-1.56,0,5.31,5.31,0,0,0,5.3,5.3H7.45v4.8H.78a.78.78,0,1,0,0,1.56ZM9,1.56h6.82a6.67,6.67,0,0,1,0,13.33H9Z"/></g></g></svg>