<?xml version="1.0" encoding="utf-8"?><svg xmlns="http://www.w3.org/2000/svg" xmlns:xlink="http://www.w3.org/1999/xlink"><symbol viewBox="0 0 284.929 284.929" id="angle-down" xmlns="http://www.w3.org/2000/svg"><path d="M282.082 76.511l-14.274-14.273c-1.902-1.906-4.093-2.856-6.57-2.856-2.471 0-4.661.95-6.563 2.856L142.466 174.441 30.262 62.241c-1.903-1.906-4.093-2.856-6.567-2.856-2.475 0-4.665.95-6.567 2.856L2.856 76.515C.95 78.417 0 80.607 0 83.082c0 2.473.953 4.663 2.856 6.565l133.043 133.046c1.902 1.903 4.093 2.854 6.567 2.854s4.661-.951 6.562-2.854L282.082 89.647c1.902-1.903 2.847-4.093 2.847-6.565 0-2.475-.945-4.665-2.847-6.571z"/></symbol><symbol viewBox="0 0 284.935 284.936" id="angle-left" xmlns="http://www.w3.org/2000/svg"><path d="M110.488 142.468L222.694 30.264c1.902-1.903 2.854-4.093 2.854-6.567s-.951-4.664-2.854-6.563L208.417 2.857C206.513.955 204.324 0 201.856 0c-2.475 0-4.664.955-6.567 2.857L62.24 135.9c-1.903 1.903-2.852 4.093-2.852 6.567 0 2.475.949 4.664 2.852 6.567l133.042 133.043c1.906 1.906 4.097 2.857 6.571 2.857 2.471 0 4.66-.951 6.563-2.857l14.277-14.267c1.902-1.903 2.851-4.094 2.851-6.57 0-2.472-.948-4.661-2.851-6.564L110.488 142.468z"/></symbol><symbol viewBox="0 0 284.935 284.936" id="angle-rightt" xmlns="http://www.w3.org/2000/svg"><path d="M222.701 135.9L89.652 2.857C87.748.955 85.557 0 83.084 0c-2.474 0-4.664.955-6.567 2.857L62.244 17.133c-1.906 1.903-2.855 4.089-2.855 6.567 0 2.478.949 4.664 2.855 6.567l112.204 112.204L62.244 254.677c-1.906 1.903-2.855 4.093-2.855 6.564 0 2.477.949 4.667 2.855 6.57l14.274 14.271c1.903 1.905 4.093 2.854 6.567 2.854 2.473 0 4.663-.951 6.567-2.854l133.042-133.044c1.902-1.902 2.854-4.093 2.854-6.567s-.945-4.664-2.847-6.571z"/></symbol><symbol viewBox="0 0 284.929 284.929" id="angle-top" xmlns="http://www.w3.org/2000/svg"><path d="M282.082 195.285L149.028 62.24c-1.901-1.903-4.088-2.856-6.562-2.856s-4.665.953-6.567 2.856L2.856 195.285C.95 197.191 0 199.378 0 201.853c0 2.474.953 4.664 2.856 6.566l14.272 14.271c1.903 1.903 4.093 2.854 6.567 2.854s4.664-.951 6.567-2.854l112.204-112.202 112.208 112.209c1.902 1.903 4.093 2.848 6.563 2.848 2.478 0 4.668-.951 6.57-2.848l14.274-14.277c1.902-1.902 2.847-4.093 2.847-6.566.001-2.476-.944-4.666-2.846-6.569z"/></symbol><symbol viewBox="0 0 49.71 25.2" id="arrw2" xmlns="http://www.w3.org/2000/svg"><g data-name="Слой 2"><path d="M35.77 1.12v7.42H.5v8.16h35.27v7.42l13.18-11.17L35.77 1.12z" data-name="Слой 1"/></g></symbol><symbol viewBox="0 0 12.1 20.6" id="arrw3" xmlns="http://www.w3.org/2000/svg"><g data-name="Слой 2"><path d="M10.75 0l1.35 1.45-9.2 8.85 9.2 8.85-1.35 1.45L0 10.3 10.75 0z" data-name="Слой 1"/></g></symbol><symbol viewBox="0 0 24.71 23" id="basket" xmlns="http://www.w3.org/2000/svg"><defs><style>.agcls-1{fill:#fff}</style></defs><g id="agСлой_2" data-name="Слой 2"><g id="agСлой_1-2" data-name="Слой 1"><path class="agcls-1" d="M18 23H6.48A3.52 3.52 0 0 1 3 20.26l-1.66-7.35a.14.14 0 0 0-.14-.11A1.2 1.2 0 0 1 0 11.59V10a1.49 1.49 0 0 1 1.49-1.46h21.73A1.49 1.49 0 0 1 24.71 10v1.57a1.2 1.2 0 0 1-1.2 1.2h-.22a.14.14 0 0 0-.14.11l-1.69 7.35A3.52 3.52 0 0 1 18 23zM1.49 9.6a.43.43 0 0 0-.43.43v1.57a.14.14 0 0 0 .14.14 1.2 1.2 0 0 1 1.17.93L4.07 20a2.47 2.47 0 0 0 2.42 1.92H18A2.47 2.47 0 0 0 20.42 20l1.69-7.35a1.2 1.2 0 0 1 1.17-.93h.22a.14.14 0 0 0 .14-.14V10a.43.43 0 0 0-.43-.43z"/><path class="agcls-1" d="M18 12.31H6.7a.38.38 0 0 1 0-.76H18a.38.38 0 0 1 0 .76z"/><circle class="agcls-1" cx="4.87" cy="11.93" r=".55"/><circle class="agcls-1" cx="19.84" cy="11.93" r=".55"/><rect class="agcls-1" x="6.63" y="14.57" width="1.33" height="5.78" rx=".66" ry=".66"/><rect class="agcls-1" x="10.01" y="14.57" width="1.33" height="5.78" rx=".66" ry=".66"/><rect class="agcls-1" x="13.38" y="14.57" width="1.33" height="5.78" rx=".66" ry=".66"/><rect class="agcls-1" x="16.75" y="14.57" width="1.33" height="5.78" rx=".66" ry=".66"/><path class="agcls-1" d="M20.11 9.44a.83.83 0 0 1-.83-.83V5.17A3.18 3.18 0 0 0 16.1 2H8.61a3.18 3.18 0 0 0-3.18 3.17v3.32a.83.83 0 1 1-1.66 0V5.17A4.85 4.85 0 0 1 8.61.33h7.49a4.85 4.85 0 0 1 4.84 4.84v3.44a.83.83 0 0 1-.83.83z"/><rect class="agcls-1" x="7.74" width="9.24" height="2.18" rx="1.09" ry="1.09"/></g></g></symbol><symbol viewBox="0 0 510 510" id="cabinet" xmlns="http://www.w3.org/2000/svg"><path d="M255 0C114.75 0 0 114.75 0 255s114.75 255 255 255 255-114.75 255-255S395.25 0 255 0zm0 76.5c43.35 0 76.5 33.15 76.5 76.5s-33.15 76.5-76.5 76.5-76.5-33.15-76.5-76.5 33.15-76.5 76.5-76.5zm0 362.1c-63.75 0-119.85-33.149-153-81.6 0-51 102-79.05 153-79.05S408 306 408 357c-33.15 48.45-89.25 81.6-153 81.6z"/></symbol><symbol viewBox="0 0 15.642 15.642" id="cancel" xmlns="http://www.w3.org/2000/svg"><path fill-rule="evenodd" d="M8.882 7.821l6.541-6.541A.75.75 0 1 0 14.362.219L7.821 6.76 1.28.22A.75.75 0 1 0 .219 1.281L6.76 7.822l-6.54 6.54a.75.75 0 0 0 1.06 1.061l6.541-6.541 6.541 6.541a.75.75 0 1 0 1.06-1.061l-6.54-6.541z"/></symbol><symbol viewBox="0 0 13 10" id="check" xmlns="http://www.w3.org/2000/svg"><g data-name="Слой 2"><path d="M12.81.2a.63.63 0 0 0-.92 0L4.1 8.36l-3-3.14a.63.63 0 0 0-.92 0 .7.7 0 0 0 0 1L3.64 9.8a.63.63 0 0 0 .92 0l8.25-8.64a.7.7 0 0 0 0-.96z" data-name="Слой 1"/></g></symbol><symbol viewBox="0 0 18 18" id="clock" xmlns="http://www.w3.org/2000/svg"><defs><style>.akcls-1{fill:#eacba9}</style></defs><g id="akСлой_2" data-name="Слой 2"><g id="akСлой_1-2" data-name="Слой 1"><path class="akcls-1" d="M9 0a9 9 0 1 0 9 9 9 9 0 0 0-9-9zm0 17a8 8 0 1 1 8-8 8 8 0 0 1-8 8z"/><path class="akcls-1" d="M16.49 8.68a7.49 7.49 0 0 0-7.17-7.17v1.18h-.64V1.51a7.49 7.49 0 0 0-7.17 7.17h1.18v.64H1.51a7.49 7.49 0 0 0 7.17 7.17v-1.18h.64v1.17a7.49 7.49 0 0 0 7.17-7.17h-1.18v-.63zm-5.36-2.76L9.65 8.5a.82.82 0 1 1-1-.26V3.83a.31.31 0 0 1 .62 0v4l1.33-2.21a.31.31 0 0 1 .53.31z"/></g></g></symbol><symbol viewBox="0 0 24 23.35" id="compare" xmlns="http://www.w3.org/2000/svg"><defs><style>.alcls-1{fill:#eacba9}</style></defs><g id="alСлой_2" data-name="Слой 2"><g id="alСлой_1-2" data-name="Слой 1"><path class="alcls-1" d="M20.16 3.82a.35.35 0 0 0-.29-.15h-6.08A1.81 1.81 0 0 0 13.5 3V1.64a1.5 1.5 0 0 0-3 0V3a1.81 1.81 0 0 0-.28.67h-6.1a.35.35 0 0 0-.29.16c-.15.24-3.68 5.89-3.68 8a4 4 0 0 0 8 0c0-1.73-2.43-5.91-3.35-7.42h5.45a1.81 1.81 0 0 0 .28.67v15.23H4.56a1.42 1.42 0 0 0-1.42 1.42v1.13a.36.36 0 0 0 .36.36h17a.36.36 0 0 0 .36-.36v-1.13a1.42 1.42 0 0 0-1.42-1.42H13.5V5.05a1.81 1.81 0 0 0 .28-.67h5.45c-.91 1.51-3.35 5.69-3.35 7.42a4 4 0 0 0 8 0c0-2.08-3.53-7.73-3.68-8zm2.94 7.63h-6.45c.28-1.62 2.18-5 3.23-6.74 1.05 1.73 2.95 5.12 3.23 6.74zM10.9 4a1.1 1.1 0 0 1 2.2 0 1.1 1.1 0 0 1-2.2 0zM12 .85a.78.78 0 0 1 .78.78v.75a1.76 1.76 0 0 0-1.57 0v-.74A.78.78 0 0 1 12 .85zM4.12 4.71c1 1.73 3 5.12 3.23 6.74H.89c.28-1.62 2.18-5.01 3.23-6.74zm0 10.36a3.27 3.27 0 0 1-3.25-2.9h6.5a3.27 3.27 0 0 1-3.25 2.91zm16 6.65v.77H3.87v-.77a.7.7 0 0 1 .7-.7h14.87a.7.7 0 0 1 .69.71zM11.2 20.3V5.67a1.76 1.76 0 0 0 1.57 0v14.64zm8.66-5.24a3.27 3.27 0 0 1-3.25-2.91h6.49a3.27 3.27 0 0 1-3.22 2.93z"/><path class="alcls-1" d="M20.49 23.35h-17a.49.49 0 0 1-.49-.49v-1.13a1.55 1.55 0 0 1 1.55-1.55h5.8V5.1a1.94 1.94 0 0 1-.26-.58H5c1.07 1.78 3.24 5.61 3.24 7.29a4.12 4.12 0 0 1-8.24 0c0-2.12 3.55-7.8 3.7-8a.48.48 0 0 1 .39-.2h6a1.94 1.94 0 0 1 .27-.61V1.64a1.64 1.64 0 0 1 3.28 0V3a1.94 1.94 0 0 1 .25.57h6a.48.48 0 0 1 .38.19c.15.24 3.7 5.92 3.7 8a4.12 4.12 0 0 1-8.24 0c0-1.67 2.17-5.51 3.24-7.29h-5.1a1.94 1.94 0 0 1-.26.58v15.13h5.8A1.55 1.55 0 0 1 21 21.73v1.13a.49.49 0 0 1-.51.49zm-15.93-2.9a1.28 1.28 0 0 0-1.28 1.28v1.13a.22.22 0 0 0 .22.22h17a.22.22 0 0 0 .22-.22v-1.13a1.28 1.28 0 0 0-1.28-1.28h-6.07V5a1.67 1.67 0 0 0 .26-.62v-.11h5.8l-.12.2C18.57 5.74 16 10.09 16 11.81a3.85 3.85 0 0 0 7.7 0c0-2-3.38-7.45-3.65-7.88a.22.22 0 0 0-.18-.1h-6.2v-.11a1.67 1.67 0 0 0-.26-.62V1.64a1.37 1.37 0 0 0-2.74 0V3a1.67 1.67 0 0 0-.26.62v.11H4.12a.22.22 0 0 0-.18.1C3.65 4.36.27 9.8.27 11.81a3.85 3.85 0 0 0 7.7 0c0-1.72-2.55-6.06-3.33-7.35l-.12-.2h5.8v.11a1.67 1.67 0 0 0 .26.62v15.46zm15.7 2.19H3.73v-.9a.83.83 0 0 1 .83-.83h14.88a.83.83 0 0 1 .83.83zM4 22.37h16v-.64a.56.56 0 0 0-.56-.56H4.56a.56.56 0 0 0-.56.56zm8.92-1.92h-1.84v-15l.19.09a1.63 1.63 0 0 0 1.45 0l.19-.09zm-1.57-.27h1.3V5.87a1.88 1.88 0 0 1-1.3 0zm8.53-5a3.4 3.4 0 0 1-3.38-3v-.15h6.8v.15a3.4 3.4 0 0 1-3.42 3.03zm-3.09-2.88a3.13 3.13 0 0 0 6.19 0zM4.12 15.21a3.4 3.4 0 0 1-3.38-3v-.15h6.8v.15a3.4 3.4 0 0 1-3.42 3zM1 12.3a3.13 3.13 0 0 0 6.19 0zm22.24-.72h-6.75v-.16c.33-1.9 2.76-6 3.25-6.78l.12-.19.12.19c.48.8 2.92 4.88 3.25 6.78zm-6.46-.27h6.13A29.13 29.13 0 0 0 19.88 5a29.13 29.13 0 0 0-3.07 6.31zm-9.3.27H.73v-.16c.33-1.9 2.76-6 3.25-6.78l.12-.19.12.19c.48.8 2.92 4.88 3.25 6.78zm-6.46-.27h6.17A29.14 29.14 0 0 0 4.12 5a29.12 29.12 0 0 0-3.06 6.31zM12 5.27A1.24 1.24 0 1 1 13.24 4 1.24 1.24 0 0 1 12 5.27zm0-2.21a1 1 0 1 0 1 1V4a1 1 0 0 0-1-.94zm.92-.45l-.19-.09a1.63 1.63 0 0 0-1.45 0l-.19.09v-1a.92.92 0 0 1 1.84 0zM12 2.07a1.9 1.9 0 0 1 .65.12v-.55a.65.65 0 0 0-1.3 0v.55a1.89 1.89 0 0 1 .65-.12z"/></g></g></symbol><symbol viewBox="0 0 47 29" id="delivery" xmlns="http://www.w3.org/2000/svg"><defs><style>.amcls-1{fill:#f34d19}</style></defs><g id="amСлой_2" data-name="Слой 2"><g id="amСлой_1-2" data-name="Слой 1"><path class="amcls-1" d="M42.32 7.11a1.93 1.93 0 0 0-1.46-.67h-7.74V2.2A2.06 2.06 0 0 0 31.06.13H9.31A2.06 2.06 0 0 0 7.24 2.2v1.31H3.73a.36.36 0 0 0 0 .72h3.51v3H2.65a.36.36 0 1 0 0 .72h4.59v3H1.93a.36.36 0 1 0 0 .72h5.31v3H.49a.36.36 0 1 0 0 .72h6.75v7.58a2.06 2.06 0 0 0 2.06 2.06h3.44a4.33 4.33 0 0 0 8.64 0h13.94a4.33 4.33 0 0 0 8.64 0h1.49a1.42 1.42 0 0 0 1.42-1.42V13.12a2 2 0 0 0-.48-1.3zm-25.26 21a3.62 3.62 0 1 1 3.62-3.62 3.62 3.62 0 0 1-3.61 3.66zm15.34-5.29a1.34 1.34 0 0 1-1.35 1.34h-9.66a4.33 4.33 0 0 0-8.64 0H9.31A1.34 1.34 0 0 1 8 22.82v-4.24h24.4zm0-5H8v-2.58h3.16a.36.36 0 1 0 0-.72H8v-3h5.68a.36.36 0 0 0 0-.72H8v-3h8.2a.36.36 0 0 0 0-.72H8v-3h14.27a.36.36 0 1 0 0-.72H8V2.2A1.34 1.34 0 0 1 9.31.85h21.75A1.34 1.34 0 0 1 32.4 2.2zm10.85 6.67a3.62 3.62 0 0 1-7.24 0 3.62 3.62 0 0 1 7.24 0zm2.89-1.06a.7.7 0 0 1-.7.7H44a4.33 4.33 0 0 0-8.64 0h-2.74a2 2 0 0 0 .5-1.34V7.16h7.74a1.22 1.22 0 0 1 .92.42L43 9h-5.9a1 1 0 0 0-1 1v5a1 1 0 0 0 1 1h9zm0-8.16h-9a.3.3 0 0 1-.3-.3V10a.3.3 0 0 1 .3-.3h6.52l2.2 2.55a1.26 1.26 0 0 1 .31.83z"/><path class="amcls-1" d="M39.64 29a4.5 4.5 0 0 1-4.44-4H21.51a4.47 4.47 0 0 1-8.88 0H9.31a2.2 2.2 0 0 1-2.2-2.2v-7.42H.49a.49.49 0 1 1 0-1h6.62v-2.67H1.93a.49.49 0 1 1 0-1h5.18V8H2.65a.49.49 0 1 1 0-1h4.46V4.37H3.73a.49.49 0 0 1 0-1h3.38V2.2A2.2 2.2 0 0 1 9.31 0h21.75a2.2 2.2 0 0 1 2.2 2.2v4.11h7.6a2.07 2.07 0 0 1 1.56.69l4.06 4.71a2.12 2.12 0 0 1 .52 1.41v10.35A1.55 1.55 0 0 1 45.45 25h-1.37a4.5 4.5 0 0 1-4.44 4zm-18.38-4.25h14.18v.12a4.2 4.2 0 0 0 8.37 0v-.12h1.62a1.28 1.28 0 0 0 1.28-1.28V13.12a1.85 1.85 0 0 0-.45-1.21L42.22 7.2a1.8 1.8 0 0 0-1.36-.62H33V2.2A1.93 1.93 0 0 0 31.06.27H9.31A1.93 1.93 0 0 0 7.38 2.2v1.45H3.73a.22.22 0 1 0 0 .45h3.65v3.22H2.65a.22.22 0 0 0 0 .45h4.73V11H1.93a.22.22 0 1 0 0 .45h5.45v3.22H.49a.22.22 0 1 0 0 .45h6.89v7.72a1.93 1.93 0 0 0 1.93 1.93h3.57v.12a4.2 4.2 0 0 0 8.37 0zm18.37 3.53a3.76 3.76 0 0 1-3.75-3.75 3.75 3.75 0 0 1 7.51 0 3.76 3.76 0 0 1-3.75 3.75zm-3.48-3.73a3.48 3.48 0 0 0 7 0 3.48 3.48 0 0 0-7 0zm-19.08 3.73a3.75 3.75 0 1 1 3.75-3.75 3.76 3.76 0 0 1-3.75 3.75zm0-7.24a3.48 3.48 0 1 0 3.48 3.48A3.49 3.49 0 0 0 17.07 21zm28.38 3.26h-1.62v-.12a4.2 4.2 0 0 0-8.37 0v.12h-3.13l.19-.22a1.92 1.92 0 0 0 .48-1.26V7h7.87a1.35 1.35 0 0 1 1 .47l1.43 1.66h-6.18a.89.89 0 0 0-.89.89v5a.89.89 0 0 0 .89.89h9.16v7.58a.83.83 0 0 1-.83.81zm-1.37-.3h1.37a.56.56 0 0 0 .56-.56v-7.28h-8.89A1.16 1.16 0 0 1 36 15v-5a1.16 1.16 0 0 1 1.16-1.16h5.6l-1-1.21a1.08 1.08 0 0 0-.82-.37h-7.6v15.56a2.19 2.19 0 0 1-.45 1.18h2.3a4.47 4.47 0 0 1 8.88 0zm-13 .27h-9.8v-.12a4.2 4.2 0 0 0-8.37 0v.12h-3.6a1.48 1.48 0 0 1-1.48-1.48v-4.35h24.71v4.38a1.48 1.48 0 0 1-1.48 1.48zM21.51 24h9.55a1.21 1.21 0 0 0 1.21-1.21v-4.08H8.1v4.11A1.21 1.21 0 0 0 9.31 24h3.32a4.47 4.47 0 0 1 8.88 0zm11-6H7.83v-2.89h3.3a.22.22 0 1 0 0-.45h-3.3v-3.22h5.82a.22.22 0 1 0 0-.45H7.83V7.77h8.33a.22.22 0 0 0 0-.45H7.83V4.1h14.44a.22.22 0 1 0 0-.45H7.83V2.2A1.48 1.48 0 0 1 9.31.72h21.75a1.48 1.48 0 0 1 1.48 1.48zM8.1 17.73h24.17V2.2A1.21 1.21 0 0 0 31.06 1H9.31A1.21 1.21 0 0 0 8.1 2.2v1.18h14.17a.49.49 0 0 1 0 1H8.1V7h8.06a.49.49 0 0 1 0 1H8.1v2.68h5.55a.49.49 0 0 1 0 1H8.1v2.68h3a.49.49 0 1 1 0 1h-3zm38.19-2.28h-9.17a.44.44 0 0 1-.44-.44V10a.44.44 0 0 1 .44-.44h6.58l2.24 2.6a1.4 1.4 0 0 1 .34.91zm-9.17-5.58A.17.17 0 0 0 37 10v5a.17.17 0 0 0 .17.17H46v-2.05a1.13 1.13 0 0 0-.28-.74l-2.14-2.51z"/><path class="amcls-1" d="M39.64 22.65a1.88 1.88 0 1 0 1.88 1.88 1.88 1.88 0 0 0-1.88-1.88zm0 3a1.16 1.16 0 1 1 1.16-1.16 1.16 1.16 0 0 1-1.16 1.2z"/><path class="amcls-1" d="M39.64 26.54a2 2 0 1 1 2-2 2 2 0 0 1-2 2zm0-3.76a1.75 1.75 0 1 0 1.75 1.75 1.75 1.75 0 0 0-1.75-1.75zm0 3a1.3 1.3 0 1 1 1.3-1.3 1.3 1.3 0 0 1-1.3 1.34zm0-2.32a1 1 0 1 0 1 1 1 1 0 0 0-1-.96zm-22.57-.81a1.88 1.88 0 1 0 1.88 1.88 1.88 1.88 0 0 0-1.88-1.88zm0 3a1.16 1.16 0 1 1 1.16-1.16 1.16 1.16 0 0 1-1.16 1.2z"/><path class="amcls-1" d="M17.07 26.54a2 2 0 1 1 2-2 2 2 0 0 1-2 2zm0-3.76a1.75 1.75 0 1 0 1.75 1.75 1.75 1.75 0 0 0-1.75-1.75zm0 3a1.3 1.3 0 1 1 1.3-1.3 1.3 1.3 0 0 1-1.3 1.34zm0-2.32a1 1 0 1 0 1 1 1 1 0 0 0-1-.96z"/></g></g></symbol><symbol viewBox="0 0 26.08 25.18" id="fruits" xmlns="http://www.w3.org/2000/svg"><defs><style>.ancls-2{fill:#eacba9}</style></defs><g id="anСлой_2" data-name="Слой 2"><g id="anСлой_1-2" data-name="Слой 1"><path d="M12.28.63A9.83 9.83 0 0 0 10.69.5 15.84 15.84 0 0 0 4.43 2a6.78 6.78 0 0 0-2 .92A4.7 4.7 0 0 0 1.42 4.9a15.07 15.07 0 0 0-.73 2.56A10.57 10.57 0 0 0 .81 12c.76 3 3.18 5.82 5.67 8.38a13.38 13.38 0 0 0 8.4 4.28h.54c3.27 0 6.32-2.07 8.09-4 3.63-4 2.5-9.07-3.44-15.55A13.15 13.15 0 0 0 12.28.63zm11.24 18.88a10.83 10.83 0 0 1-8.13 4.42h-.34c-2.59 0-5.3-1.36-8.08-4a22.37 22.37 0 0 1-5.38-7.63C.72 9.85 1.05 7 2.61 3.67a17.87 17.87 0 0 1 8.45-2.5h.06c2.63 0 5.17 1.21 7.77 3.71a27.59 27.59 0 0 1 4.84 6.41 7.32 7.32 0 0 1-.21 8.22z" stroke-miterlimit="10"/><path class="ancls-2" d="M15.57 18h.06a.21.21 0 0 0 .2-.15.22.22 0 0 0-.08-.25 12 12 0 0 0-2-1.08 13.26 13.26 0 0 1-1.82-.94 10.07 10.07 0 0 1-3.17-3.72c-.67-1.21-1.56-3.5-.06-5.28a4.86 4.86 0 0 1 3.19-1.78 1.75 1.75 0 0 1 .61.1.29.29 0 0 0 .37-.21.28.28 0 0 0-.14-.32 2 2 0 0 0-1-.24A4.81 4.81 0 0 0 9 5.29C7.51 6.52 6.9 7.8 7.12 9.32c.58 4.13 3.74 7.36 8.45 8.68zM5.45 11.38a3 3 0 0 0-.83-1c-.55-.46-.52-1.75-.5-2.61v-.62h-.24v.69c-.09.9-.21 2.13.31 2.61a7.62 7.62 0 0 1 1.92 3.7c.1.33.2.67.32 1a.14.14 0 0 0 .13.1.14.14 0 0 0 .11-.05v-.11a14.26 14.26 0 0 0-1.22-3.71zm9.13-5.1c.16 0 .42.31.6.5l.21.22.23.21c.32.29.66.59 1 .89a4.52 4.52 0 0 1 1.51 3.18.14.14 0 0 0 .28 0A4.27 4.27 0 0 0 17 8.06a15 15 0 0 0-1.22-1.15l-.38-.34a2 2 0 0 1-.17-.18c-.17-.2-.38-.43-.66-.38a.13.13 0 0 0-.11.13v.12zM22 12.46c.11.25.22.49.32.67a4.19 4.19 0 0 1-.11 4v.07l.08.13h.13a4 4 0 0 0 .58-3.6 4.93 4.93 0 0 0-.71-1.54c-.12-.19-.23-.38-.33-.56s-.11-.22-.16-.33a1.69 1.69 0 0 0-.61-.85.16.16 0 0 0-.15.11.15.15 0 0 0 0 .16 5.69 5.69 0 0 1 .96 1.74zM8.58 3.23L9 3.14h.11C10 3 11 2.93 11.79 2.89H12a.15.15 0 0 0 .14-.15.15.15 0 0 0-.14-.17 12.14 12.14 0 0 0-2.88.31A10.32 10.32 0 0 0 8 3.12a4.53 4.53 0 0 0-1.18.41l-.08.05.05.18h.14A6 6 0 0 1 8 3.34z"/><path class="ancls-2" d="M12.26 9.24A2.11 2.11 0 0 0 12 8a.16.16 0 0 0-.25 0 .15.15 0 0 0 0 .15 1.93 1.93 0 0 1 .18 1.06 2.21 2.21 0 0 0 .14 1 2.91 2.91 0 0 0 1.31 1.37c.66.41 1.32.84 2 1.26l.14.09a9.31 9.31 0 0 1 2 1.95l.52.61a.16.16 0 0 0 .12.06.18.18 0 0 0 .16-.09.16.16 0 0 0 0-.17 10.36 10.36 0 0 0-3.34-3.14l-.59-.35a6 6 0 0 1-1.84-1.4 1.83 1.83 0 0 1-.29-1.16zm7.92 12.53a3.45 3.45 0 0 0-2.34-1.13 15.46 15.46 0 0 0-1.6 0h-1a4.83 4.83 0 0 1-1.95-.33l-.29-.14a3.87 3.87 0 0 1-.71-.5h-.06a.15.15 0 0 0-.14.11.14.14 0 0 0 .06.16 8.79 8.79 0 0 0 .79.47l.35.17a5.29 5.29 0 0 0 1.79.51 11.3 11.3 0 0 0 2.21-.09A3.84 3.84 0 0 1 20 22l.15.1a.15.15 0 0 0 .14-.1.15.15 0 0 0 0-.16zM9.41 18.83l-.19-.24-.22-.26a3.84 3.84 0 0 0-.44-.58.9.9 0 0 1-.07-.12.14.14 0 0 0-.15-.08l-.42-.42.3.51a.15.15 0 0 0 .06.16l.11.1a4.28 4.28 0 0 0 .44.58l.19.28.09.12c.19.27.4.54.62.8h.17l.06-.14v-.06c-.2-.2-.37-.43-.55-.65zm13.83-.75a3.76 3.76 0 0 0-1.4.56 5.9 5.9 0 0 1-1.92.65.17.17 0 0 0-.14.18.18.18 0 0 0 .18.16 7.06 7.06 0 0 0 1.63-.48c.22-.1.42-.22.61-.33a4.63 4.63 0 0 1 1.06-.49h.11v-.1a.14.14 0 0 0-.13-.15zM3.93 4.44l-.08-.13h-.12a2.45 2.45 0 0 0-.79 1.59A.15.15 0 0 0 3 6a.16.16 0 0 0 .12.05.17.17 0 0 0 .13-.05c.06-.14.11-.29.16-.43a4 4 0 0 1 .48-1z"/></g></g></symbol><symbol viewBox="0 0 20.67 27.04" id="glaze" xmlns="http://www.w3.org/2000/svg"><defs><style>.aocls-1{fill:#eacba9}</style></defs><g id="aoСлой_2" data-name="Слой 2"><g id="aoСлой_1-2" data-name="Слой 1"><path class="aocls-1" d="M17.48 17.36c-.66 3.72-3.65 5.72-5.8 4.44a2.49 2.49 0 0 0-2.15-.21V18.3a.79.79 0 1 1 1.59 0v.39a.79.79 0 0 0 .17.49 2.38 2.38 0 0 0 4.6-.88v-1.59a.8.8 0 0 1 .79-.79h.91a7.64 7.64 0 0 1-.12 1.44zm-6.35-6.8l-.31.23a.7.7 0 0 1-.87 0A5.09 5.09 0 0 0 6.14 9.6L6 9.62c-3.32.59-4.86 4.48-4.24 8a9 9 0 0 0 .92 2.68C.49 21.2 0 22.28 0 23.07s.58 2.08 3.34 3a23 23 0 0 0 7 1 23 23 0 0 0 7-1c2.76-.92 3.34-2.14 3.34-3s-.47-1.84-2.56-2.71a9 9 0 0 0 .88-2.72c.65-3.69-1-7.45-4.24-8a4.49 4.49 0 0 0-2.09.13 6.67 6.67 0 0 0-1.54.79zM4.77 20.64l-.25-.32-.07-.09a7.18 7.18 0 0 1-1.15-2.87 7.64 7.64 0 0 1-.12-1.44H4a.8.8 0 0 1 .79.79zm-1.2 1A6.47 6.47 0 0 0 5.15 23a.8.8 0 0 0 1.21-.66v-5.63A2.39 2.39 0 0 0 4 14.33h-.61a4 4 0 0 1 2.85-3.14 3.36 3.36 0 0 1 2.7.83 2.31 2.31 0 0 0 2.88 0 3.36 3.36 0 0 1 2.7-.83 4 4 0 0 1 2.85 3.14h-.7a2.39 2.39 0 0 0-2.38 2.38v1.59a.79.79 0 1 1-1.59 0 2.38 2.38 0 1 0-4.77 0v4.53a.8.8 0 0 0 1 .76 4.39 4.39 0 0 0 .93-.42.91.91 0 0 1 1 0 4.28 4.28 0 0 0 2.23.62 5.47 5.47 0 0 0 4.08-2.08c1.48.55 1.89 1.12 1.89 1.37s-.47.9-2.25 1.49a21.39 21.39 0 0 1-6.49.89 21.39 21.39 0 0 1-6.49-.89c-1.77-.57-2.24-1.24-2.24-1.5s.43-.84 2-1.4zm0 0"/><path class="aocls-1" d="M10.43 11.12h-.09a.49.49 0 0 1-.38-.57C10 10.22 11.56 2 15.49.24a.47.47 0 0 1 .38.85c-3.5 1.56-5 9.55-5 9.65a.39.39 0 0 1-.44.38z"/><path class="aocls-1" d="M10.43 11.33h-.14a.69.69 0 0 1-.54-.8c0-.08 1.54-8.63 5.65-10.46a.67.67 0 0 1 .9.33.71.71 0 0 1 0 .51.63.63 0 0 1-.36.37c-2 .88-3.74 4.28-4.85 9.32v.17a.59.59 0 0 1-.66.56zm-.07-.41h.07c.05 0 .22 0 .22-.17v-.23c.67-3 2.22-8.33 5.09-9.61a.22.22 0 0 0 .13-.13.3.3 0 0 0 0-.21.26.26 0 0 0-.34-.12c-2 .88-3.32 3.51-4.11 5.57a27.44 27.44 0 0 0-1.3 4.58.29.29 0 0 0 .24.31zm.31-.26z"/></g></g></symbol><symbol viewBox="0 0 37.44 34.67" id="hands" xmlns="http://www.w3.org/2000/svg"><g data-name="Слой 2"><path d="M30 34.67a1.12 1.12 0 0 1-1.16-.95c-.34-1.81-.59-3.62-.79-5.39-.1 1.52-.26 3.05-.51 4.58a1.31 1.31 0 0 1-1.49.89 1.22 1.22 0 0 1-1-1.24c0-.8-.05-1.59-.08-2.36a55.43 55.43 0 0 0-1-10.3l-4 4a1.61 1.61 0 0 1-2 .21 1.51 1.51 0 0 1-.54-1.8.35.35 0 0 1 0-.09c5.4-7.54 6.76-10.39 6.67-19V.87a.33.33 0 0 1 .32-.33h9.86a.33.33 0 0 1 .32.39c-.16.73-.29 1.49-.4 2.33-.62 4.95.1 9.55.86 14.42.12.76.24 1.52.35 2.29q.94 3.66 1.86 7.32l.06.26a1 1 0 0 1-.62 1.23 1 1 0 0 1-1.18-.53c-.72-1.69-1.44-3.37-2.15-5l.62 7.68a1.2 1.2 0 0 1-1 1.26 1.21 1.21 0 0 1-1.31-.84L31.14 28l.18 5.33a1.25 1.25 0 0 1-1.18 1.28zm-2.09-11.86a.32.32 0 0 1 .32.3 93.68 93.68 0 0 0 1.24 10.49.52.52 0 0 0 .61.41.61.61 0 0 0 .6-.61l-.37-10.73a.32.32 0 0 1 .65-.06l1.33 8.58a.54.54 0 0 0 .59.35c.27 0 .43-.26.44-.61l-.61-9.62a.32.32 0 0 1 .62-.15q1.43 3.4 2.88 6.77a.33.33 0 0 0 .39.19c.15-.05.23-.23.19-.48l-.06-.22q-.93-3.67-1.87-7.33c-.11-.77-.23-1.54-.35-2.3-.72-4.59-1.46-9.33-.9-14.24h-8.74c0 8.55-1.36 11.49-6.76 19a.87.87 0 0 0 .3 1 1 1 0 0 0 1.16-.14L24 19a.32.32 0 0 1 .32-.08.32.32 0 0 1 .23.24 53.87 53.87 0 0 1 1.09 11c0 .77 0 1.56.08 2.37a.58.58 0 0 0 .49.62.64.64 0 0 0 .75-.42 68.86 68.86 0 0 0 .67-9.6.33.33 0 0 1 .32-.32zm-3-19.94h8.81c.08-.6.18-1.17.29-1.71h-9.17c.02.6.03 1.17.03 1.71zM12.94 34.15H3.08a.32.32 0 0 1-.32-.39c.17-.8.31-1.59.4-2.33.62-4.94-.1-9.54-.86-14.4-.12-.76-.24-1.53-.35-2.3l-.14-.55Q.92 10.67 0 7.15a1 1 0 0 1 .64-1.23 1 1 0 0 1 1.18.52L4 11.5l-.51-7.76a1.19 1.19 0 0 1 1-1.26 1.22 1.22 0 0 1 1.32.84l.51 3.3Q6.21 4 6.12 1.29A1.26 1.26 0 0 1 7.31 0a1.13 1.13 0 0 1 1.3.94c.34 1.81.6 3.64.79 5.41.1-1.53.25-3.07.5-4.59a1.31 1.31 0 0 1 1.5-.88 1.22 1.22 0 0 1 1 1.25c0 .8.05 1.59.08 2.36a55.42 55.42 0 0 0 1 10.3l4-4a1.63 1.63 0 0 1 2-.21 1.51 1.51 0 0 1 .54 1.8.34.34 0 0 1 0 .09c-5.4 7.54-6.77 10.39-6.68 19q0 1.11.05 2.35a.32.32 0 0 1-.32.33zm-9.46-.65h9.14v-1.71H3.76c-.07.55-.17 1.13-.28 1.71zm.37-2.36h8.72c0-8.55 1.37-11.48 6.77-19a.86.86 0 0 0-.3-1 1 1 0 0 0-1.17.14l-4.4 4.42a.32.32 0 0 1-.55-.16 53.81 53.81 0 0 1-1.09-11c0-.77 0-1.55-.08-2.37a.58.58 0 0 0-.48-.62.66.66 0 0 0-.75.42 69.27 69.27 0 0 0-.66 9.6.33.33 0 0 1-.32.32.33.33 0 0 1-.33-.3A94.67 94.67 0 0 0 8 1.06a.51.51 0 0 0-.59-.4.62.62 0 0 0-.61.61q.18 4.91.34 9.83v.89a.32.32 0 0 1-.65.06l-.15-1q-.59-3.77-1.18-7.58a.56.56 0 0 0-.6-.35c-.27 0-.42.26-.43.61l.6 9.62a.32.32 0 0 1-.62.15L1.24 6.72a.34.34 0 0 0-.39-.18c-.16.05-.23.23-.2.46.59 2.31 1.19 4.65 1.78 7l.14.56c.11.77.24 1.54.35 2.31.73 4.64 1.47 9.37.92 14.27z" data-name="Слой 1"/></g></symbol><symbol viewBox="0 0 177 76" id="logo" xmlns="http://www.w3.org/2000/svg"><path d="M38.85 0h6.46c4.09.54 8.84 1.83 10.83 5.86 1.86 4.15 0 9.13-3.16 12.12-1.96 2.13-5.07 1.7-7.67 2.06 2.45-2.23 5.74-4.34 5.99-7.99.87-6.6-6.71-12.3-12.84-9.96-5.21 1.4-8.06 6.67-9.61 11.46-1.82 7.03-1.28 14.57.83 21.47a80.41 80.41 0 0 1-9.91-1.28c2.03-8.45 2.76-17.6 7.9-24.91C31.06 3.79 36.85.88 42.77.01L38.85 0z"/><path d="M54.12 20.04c3.34 1.21 7.07 2.8 8.33 6.45 1.36 5.24-1.85 10.72-5.99 13.76-6.19 3.44-13.47 4.32-20.45 4.65-7.7.7-15.46-1.31-23.11.34-4.25.52-8.09 2.45-12.07 3.88.98-3.8 2.93-7.24 4.69-10.72 1.55-3.03 5.36-3.63 8.43-3.59 10.73.56 21.22 4.43 32.04 3.22 4.98-.56 10.75-3.51 11.37-9.02.82-3.41-.87-6.64-3.24-8.97zM67 26.25c1.51-.01 3.01-.03 4.52-.04-.44 1.71-.88 3.43-1.26 5.15 2.79-1.94 5.01-5.67 8.85-5.3.67.64 1.31 1.3 1.92 1.99-1.57 1.18-3.36 1.86-4.93.19-.98.76-1.97 1.5-2.96 2.24 1.36.31 2.67.75 3.94 1.32.09 1.67.03 3.33-.2 4.99 1.22-.15 2.81 0 3.45-1.33 1.22-2.95 1.81-6.13 2.64-9.22 1.52-.01 3.03-.01 4.55-.01-.76 3.49-2.15 6.85-2.41 10.43 1.27.3 2.63-.08 3.17-1.36 1.17-2.93 1.75-6.05 2.56-9.08 1.53 0 3.06.01 4.59.03-1.12 4.09-2.23 8.18-3.23 12.31 5.14-1.48 3.17-7.67 6.85-10.52 2.37-2.02 7.23-3.36 9.16-.19.52 1.76-1.51 2.09-2.55 2.8 0-.88.01-2.63.02-3.51-3.91.65-5.15 5.45-4.96 8.83 1.95 2.18 6 .69 7.71-1.35 1.06-2.71 1.59-5.58 2.31-8.39 1.53 0 3.07 0 4.62.01-.94 3.29-1.79 6.61-2.59 9.95 1.12.55 2.23 1.11 3.33 1.7-2.64 1.55-6.71 2.14-8.11-1.31-3.3 2.64-8.42 3.87-11.83.73-1.33.76-2.69 1.47-4.07 2.14-.84 2.2-1.49 5.1-4.16 5.7-2.21 1.02-6.54.06-5.64-3.08 1.55-1.98 4.22-2.41 6.21-3.82-2.76.46-5.85 1.73-8.07-.69-2.01 1.38-4.67 2.41-6.92.88-2.26-.95.6-4.99-1.57-5.78-3.38-.04-2.88 3.96-3.7 6.21-1.54.03-3.07.05-4.61.08 1.13-4.23 2.28-8.46 3.37-12.7z"/><path d="M118.65 26.23h4.61c-.91 3.34-1.87 6.68-2.55 10.08 1.23 1.01 3.16.34 3.69-1.08 1.22-2.92 1.73-6.07 2.55-9.11 1.71.1 3.42.22 5.1.53 3.01-1.32 5.53.09 7.71 2.11-2.61 2.72-2.56 6.73-3.68 10.15h-4.55c.73-3.51 2.24-6.91 2.26-10.54-1.39-.11-2.81.57-3.27 1.95-.96 2.88-1.63 5.85-2.43 8.77-2.7-.29-5.42-.87-8.09-.02-2.16.7-3.19-1.81-4.63-2.87 1.99-2.96 2.32-6.62 3.28-9.97z"/><path d="M138.94 27.05c2.54-1.05 5.46-1.34 7.62.64-.44 3.05-1.35 5.99-1.88 9.02 1.32-.06 3.55.16 3.66-1.73.66-3.95 3.02-8.52 7.51-8.79 2.82.22 5.64.15 8.46-.03-.87 3.26-1.85 6.49-2.53 9.8.5.46 1.49 1.38 1.99 1.84-1.5.97-3.11 1.77-4.91 1.08a23.4 23.4 0 0 0-2.47-2.7c1.75-2.42 2.2-5.46 2.7-8.33-4.55-1.13-6.12 4.84-5.94 8.27 1.36.54 2.71 1.1 4.03 1.73-2.73 1.55-6.25 2.04-8.44-.6-2.13 1.92-5.59 2.88-7.89.69-1.16-2.89 1.04-5.91 1.13-8.88-1.02-.67-2.03-1.34-3.04-2.01z"/><path d="M167.42 27.04c3.61 1.18 7.7 2.9 8.89 6.91 1.12 6.6-3.8 13.48-10.17 15.24-8.07 2.55-16.69 3.3-25.12 2.88-9.03-1.36-18.28.33-26.5 4.19 1.06-3.95 3.06-7.57 4.95-11.17 1.72-2.92 5.57-3.27 8.62-3.22 11.01.57 21.88 4.92 32.97 3 4.94-.74 10.11-4.41 10.2-9.82.51-3.25-1.47-6.05-3.84-8.01zm-139.82 34c.99-.57 2.02-1.3 3.23-.88 1.07 1.49.83 3.36.9 5.08.6-2.2.56-5.34 3.62-5.37-.38 1.19-.81 2.36-1.29 3.51 1.01.96 2.15 1.77 3.2 2.69-.07 2.09-.53 4.14-.74 6.22-3.98-.07-.67-4.66-1.36-7.01-3 1.7-.33 7.26-4.63 7.04.43-2.3.91-4.59 1.08-6.93-3.09 1.63-.74 7.15-5.1 6.94 1.23-2.9.89-7.01 4.61-8.08-.17-1.98-1.95-2.52-3.52-3.21zm8.6.75c-.41-1.21 1.72-2.58 2.6-1.46 1.04 1.58-1.65 2.64-2.6 1.46zm86.52-2.47c-1.13 3.9-2.72 7.79-2.35 11.95 2.48-.33 3.08-3.13.68-4.24 2.37-2 2.04-5.16 2.15-7.94 1.86 2.47.58 5.32.05 7.95 1.84-.95 3.11-2.67 4.96-3.59.09 1.35-.65 3.44 1.39 3.49 2.21.43 1.41 3.56 2.2 5.19-3.43.77-2.95-2.61-3.38-4.83-1.24 1.85-.81 5.3-3.85 5.01.23-2.07 1.45-4.29.26-6.29-.33.99-.98 2.96-1.3 3.95-.52 2.51-5.18 2.99-5.42.11-.25-4 1.26-8.35 4.61-10.76zm25.56 1.1h2.43c-1.25 2.91-1.12 6.49-3.31 8.91-.17-3 .44-5.96.88-8.91zM38.56 70.1c.73-2.27-.23-6.69 3.38-6.35-.4 2.7-1.6 5.53 0 8.09-1.29.08-3.87.38-3.38-1.74zm4.76-6.06c.56-.01 1.69-.05 2.25-.06-.44 2.18-.89 4.37-1.34 6.56l2.52-.92c3.25 1.53 3.26-2.73 2.73-4.87-1.25.79-2.44 1.68-3.68 2.49 1.43-1.43 2.67-4.1 5.12-3.16 2.29 1.71.93 4.49-.26 6.4 1.42 1.93.33 3.83-.84 5.52h-2.46l-1.16-2.16c.83.37 1.65.73 2.48 1.1-.38-1.54.94-4.76-1.7-4.2-1.31.44-2.57 1.03-3.91 1.39-2.06-2.28.13-5.46.25-8.09zm11.21.11c2.95-1.52 1.7 1.79 1.83 3.45 1.48-1.32 1.58-3.92 3.97-4.03-.39 2.42-.83 4.83-1.21 7.25l2.1.53-3.36.8c-1.02-1.36-.63-3.13-.82-4.7-1.49 1.01-1.47 2.89-2.06 4.39l-2.85.32c1.05-2.59 1.73-5.3 2.4-8.01z"/><path d="M62.48 64.08c.56-.03 1.69-.1 2.26-.13-.13.56-.4 1.69-.53 2.25 3.64-.67 4.62 3.66 1.5 5.35-.43-1.61-.82-3.23-1.25-4.83-.27.81-.79 2.43-1.05 3.24.83.71 1.65 1.44 2.46 2.19-2.09.33-3.85-.75-5.64-1.56 1.4-1.92 1.83-4.24 2.25-6.51zm9.1 5.76c.65-2.27-.13-6.4 3.35-6.09-.61 2.82-1.17 5.71-.2 8.53-1.35-.22-3.65-.5-3.15-2.44zm4.79-5.86c.55.01 1.65.04 2.2.05-.47 2.22-.93 4.45-1.31 6.7 1.15-.7 2.31-1.39 3.47-2.08l.05 2.84c2.25-2.23.9-7.1 4.76-7.91-.34 2.89 3.54 7.94-1.02 8.82-.28-2.3-.46-4.61-.8-6.91-.6 2.12-.78 4.39-1.77 6.39-2.23-1.01-5.59 1.3-6.88-1.18.22-2.28.84-4.49 1.3-6.72zm11.29 5.89c1.58-1.68 0-3.95.81-5.9l2.81.04c-.57 2.76-1.73 5.78-.08 8.4-1.81-.07-2.99-.92-3.54-2.54zm5.13 2.35c-1.25-2.84-.88-6.75 2.24-8.2 2.06-.71 2.73 1.71 3.95 2.83l.3-2c1.35-.47 2.72-.86 4.12-1.18.27 1.6.09 3.16-.52 4.66a80.93 80.93 0 0 1-1.19-3.29c-.42.68-1.25 2.05-1.66 2.73.65.35 1.31.7 1.97 1.04l-2.59 1.13c1.32 1.18 2.97.87 4.54.6.4-2.18.8-4.37 1.23-6.54 1.91.02 3.83.01 5.72.34-1.15 2.63.39 7.86-3.64 7.97.39-2.58.96-5.15 1.09-7.77-2.25 1.79-1.81 4.98-2.48 7.5-2.72-.99-5.58.44-8.22-.84-1.62.35-3.23.74-4.86 1.02m2.43-6.9c-.23.56-.69 1.69-.91 2.26.12.17.35.51.47.67-.13.83-.25 1.67-.37 2.5 1.98.84 4-.63 4.14-2.83-1.2-.77-2.46-1.45-3.33-2.6zm16.08-1.52c4.36-.51 2.58 4.06 2.12 6.5l1.68.56c-1.11.57-2.24 1.1-3.39 1.59-.59-2.88.69-5.85-.41-8.65zm17.91 1.94c.5-2.7 4.92-.86 6.99-1.75-.98 2.59-.47 5.44-1.17 8.03-1.2-.09-2.23-.59-3.09-1.5.54-1.28 1.61-3.84 2.15-5.11-1.44.2-2.88.37-4.32.5l-.56-.17z"/><path d="M137.64 64.58c.52-.29 1.57-.87 2.1-1.16-.32 2.4-.75 4.77-1.07 7.16-.2 1.93-1.09 3.7-1.91 5.42H134c-.18-1.21-.27-2.43-.35-3.64.45.5 1.36 1.52 1.81 2.03.36-3.33 1.17-6.61 2.18-9.81zm2.24 5.27c.46-2.63 1.7-6.61 5.18-5.86 1.58.97.32 2.34-.26 3.48l-.51-3.05c-1.54 1.92-1.89 4.34-1.9 6.72l3.21-.69c-1.88 2.81-4.73 1.26-6.56-.42l.84-.18zm6.31.31c1.03-1.37 3.57.19 2.34 1.64-1 1.44-3.55-.22-2.34-1.64z"/></symbol><symbol viewBox="0 0 177 76" id="logo_2" xmlns="http://www.w3.org/2000/svg"><path d="M39.17 0h7.79c3.65 1.08 7.96 2.53 9.44 6.44 2.22 6.76-3.6 14.8-10.99 13.63 2.37-2.33 5.69-4.46 5.9-8.12.76-6.3-6.17-11.79-12.15-10.06-5.56 1.16-8.75 6.63-10.31 11.66-1.86 7.04-1.22 14.55.79 21.49-3.29-.28-6.56-.7-9.82-1.25 2.01-8.96 2.85-18.8 8.81-26.22 3.05-3.99 7.8-6.04 12.48-7.39L39.17 0z"/><path d="M54.16 20.05c3.49 1.25 7.48 3.05 8.45 7.01.99 6.32-3.56 12.89-9.55 14.83-9.93 3.57-20.69 3.43-31.07 2.69-7.35-.44-14.47 1.68-21.16 4.5 1.07-3.75 2.86-7.25 4.7-10.67 1.54-3.06 5.38-3.63 8.45-3.6 10.7.56 21.17 4.43 31.97 3.22 5.02-.54 10.83-3.52 11.43-9.08.79-3.39-.94-6.53-3.22-8.9zm12.86 6.19c1.5 0 3.01 0 4.52.01-.44 1.65-.88 3.3-1.28 4.97 2.98-1.91 5.49-6.15 9.55-4.89 2.36 2.55-2.17 4.1-3.76 1.95-.97.76-1.94 1.51-2.9 2.25.87.25 2.61.73 3.49.97.75 1.63.3 3.52.56 5.25 1.47.35 3.01-.52 3.43-1.98.97-2.79 1.62-5.68 2.36-8.54 1.51.01 3.03.01 4.54.03-.85 3.38-1.93 6.71-2.55 10.15 1.47.69 2.57.31 3.29-1.12 1.2-2.94 1.78-6.07 2.61-9.12 1.52.04 3.04.08 4.56.14-1.05 3.69-1.93 7.43-3.16 11.06.8.52 1.6 1.04 2.39 1.57-4.02-.84-2.79 4.86-5.89 5.84-2.23 1.49-7.33.85-6.47-2.7 1.55-1.88 4.08-2.48 6.02-3.86-2.7.66-5.68 1.57-7.93-.65-1.85 1.1-4.08 2.35-6.23 1.21-3.01-.78-.22-4.87-2.2-6.2-3.37.14-2.78 4.02-3.91 6.23-1.47.11-2.95.17-4.42.19 1.1-4.26 2.26-8.51 3.38-12.76zm33.84.62c2.33-1.07 6.08-1.6 7.46 1.13-.05 1.63-1.28 2.11-2.7 2.23l.12-2.44c-1.45-1.3-2.69.49-3.4 1.61-1.14 1.96-1.95 4.29-1.6 6.58 1.21 2.22 4.52.3 6.23.31-.39.57-1.16 1.72-1.55 2.29-2.36.23-4.86 1.13-7.16.13-1.11-.75-1.93-1.85-2.83-2.83.95-3.34 1.89-7.46 5.43-9.01zm9.83-.58c1.55-.03 3.09-.06 4.64-.08-.89 3.3-1.74 6.61-2.55 9.93 1.07.6 2.13 1.21 3.18 1.84-2.32 1.16-4.81 1.59-7.14.27-.22-1.1-.5-2.18-.78-3.26 1.43-2.71 1.99-5.74 2.65-8.7z"/><path d="M118.59 26.29c1.54-.04 3.08-.07 4.62-.11l-2.64 10.36c1.14-.01 2.55.53 3.37-.59 1.73-2.98 2.06-6.53 3.03-9.8 3.79 1.15 8.41-1.37 11.54 1.58 2.33-1.5 6.07-2.66 7.87.22-.08 2.98-1.22 5.8-1.78 8.7a69.6 69.6 0 0 0 3.51-.37c.55-3.94 2.11-8.5 6.28-9.84 3.24-.44 6.54.07 9.81-.25-.8 3.27-1.61 6.52-2.51 9.76.56.51 1.66 1.52 2.22 2.02-2.16 1.34-4.84 1.7-6.5-.56-2.71 1.94-6.29 2.5-8.78-.09-2.22 2.07-6.63 2.98-8.23-.25.32-3 1.42-5.88 1.4-8.92-4.98.85-4.27 7.05-5.71 10.76h-4.56c.91-3.6 2.16-7.16 2.26-10.91-4.86 1.26-4.15 7.29-5.67 11.09-1.62-.15-3.24-.31-4.83-.62-1.47.28-2.92.66-4.42.72-1.54-.43-2.23-2.08-3.32-3.12 1.64-3.04 2.27-6.45 3.04-9.78m37.58 1.87c-2.31 1.87-3.66 5.46-2.56 8.28 4.63 1.37 4.78-5.53 5.42-8.61-.72.09-2.14.25-2.86.33z"/><path d="M167.29 27.26c3.77.59 7.81 2.84 9 6.71.98 3.98-1.05 7.89-3.45 10.93-2.63 3.35-6.98 4.5-10.91 5.5-7.85 1.6-15.96 2.33-23.93 1.38-8.08-.8-16.12 1.15-23.46 4.43 1.31-4.24 3.18-8.36 5.62-12.06 3.77-3.41 9.38-2.16 13.94-1.65 10.06 1.37 20.67 4.96 30.61 1.27 5.99-2.04 8.79-10.13 4.54-15.1-.79-.32-1.45-.8-1.96-1.41zM27.72 61.17c1.6-1.96 3.88-.95 4.28 1.46.9-1.28 2.09-4.07 3.78-1.49-.57.48-1.72 1.44-2.29 1.92 1.2 1.03 2.48 1.96 3.67 3 .08 2.08-.4 4.13-.6 6.19-3.82.06-.9-4.54-1.41-6.8-2.95 1.59-.44 7.05-4.61 6.86.42-2.25.86-4.5 1.1-6.78-3.07 1.54-.9 6.95-5.13 6.81 1.04-2.69 1.01-6.16 3.83-7.73 1.78-1.72-1.13-3.15-2.62-3.44z"/><path d="M36.07 62.08c-.64-1.4 1.72-2.66 2.74-1.67.8 1.45-1.74 2.43-2.74 1.67zm83.01 2.12c.79-1.91 2.1-5.07 4.7-4.03.6 1.75 1.15 4.45-1.02 5.3l.4-5.01c-2.57 2.86-2.62 6.94-2.94 10.55 3.41.37 2.11-3.69.91-5.29 5.39-.01 2.31 8.21-2.03 6.07-2.06-1.98-.77-5.26-.02-7.59zm29.22-3.81c.6.02 1.8.04 2.4.05-1.22 2.88-1.04 6.55-3.41 8.82.06-2.98.53-5.93 1.01-8.87zm-109.73 9.6c.55-2.36-.07-6.3 3.33-6.32-.54 2.89-1.07 5.82-.35 8.73-1.14-.42-3.32-.66-2.98-2.41zm4.83-5.96c.53-.02 1.6-.04 2.13-.05-.42 2.27-.84 4.55-1.23 6.83.46-.28 1.39-.84 1.85-1.12.93.09 1.86.15 2.79.17 1.05-1.59.68-3.48.41-5.23-1.09.9-2.2 1.78-3.31 2.65 1.22-1.53 2.4-4.11 4.82-3.22 2.41 1.65.87 4.5-.18 6.47 1.37 1.85.16 3.78-.78 5.47h-2.49l-1.28-1.81c.71.15 2.12.45 2.83.59-.37-1.68-.79-3.35-1.4-4.97-1.77 1.39-3.71 2.68-5.96 1.56.67-2.43 1.24-4.89 1.8-7.34zm11.13.36c.52-.19 1.55-.57 2.07-.75-.1.97-.31 2.9-.41 3.87 1.63-1.15 1.84-3.7 4.15-3.91-.25 2.37-1.24 4.75-.84 7.15l.34.52c-2.08 2.92-3.36-2.11-2.85-3.83-2.08 1.62-1.03 5.69-4.81 4.78.92-2.57 1.57-5.22 2.35-7.83zm7.97-.28c.56-.03 1.67-.1 2.22-.13l-.48 2.19c1.2.48 3.55.04 3.29 2.02.35 3.54-5.22 5.52-6.48 1.74.41-1.95.99-3.87 1.45-5.82m.87 6.95c1.83-.8 2.49-2.47 1.76-4.39-1.1 1.23-1.5 2.81-1.76 4.39zm8.2-1.09c.58-2.3-.06-6.53 3.43-6.22-.35 1.74-.74 3.47-1.15 5.2l.68 3.24c-1.26-.18-3.29-.45-2.96-2.22zm4.82-5.95c.55.03 1.65.08 2.2.11-.48 2.18-.93 4.36-1.33 6.55a422.7 422.7 0 0 1 3.64-1.99l-.3 2.72c2.52-2.01 1.05-7.16 5.01-7.74.26 2.62 1.22 5.2 1.02 7.84-.53.2-1.58.58-2.11.77-.29-2.21-.65-4.41-1.15-6.59-.58 1.97-.21 4.33-1.47 6.06-2.5-.26-5.75.99-7.25-1.69.87-1.92 1.28-4 1.74-6.04zm11.4 1.25c.9-1 2.05-1.52 3.47-1.56-.46 2.4-.9 4.81-1.14 7.25 2.69-2.15 2.29-7.39 6.76-7.21.65.97 1.3 1.95 1.96 2.92.19-2.24 2.34-2.49 3.99-2.89.73 1 1.47 2.01 2.24 2.99l-.13-2.69c2.98.03 5.97-.05 8.95.22.75 1.73-.11 3.54-.38 5.26.34.41 1 1.22 1.34 1.63-.98.35-1.98.65-2.98.92-.88-2.48.15-5.11.12-7.65-3.12 1.78-.34 7.85-4.6 7.74.21-2.47.73-4.89 1.09-7.34-2.67 1.3-1.81 5.01-2.69 7.39-3.18.29-1.78-2.65-1.61-4.57-.62-.77-1.36-.66-2.24.32-.65.82-1.84 1.41-1.74 2.62.79.12 2.36.37 3.15.49-1.92 1.1-4.34 1.31-5.88-.52.24-.81.72-2.45.96-3.27-1.23-.48-2.55-.89-3.19-2.19-.26.66-.78 1.98-1.05 2.65l2.9-.53c-.81.72-2.43 2.16-3.24 2.87.86.25 2.59.73 3.46.98-1.69 1.1-3.63.9-5.42.23-1.92.95-3.94.79-4.46-1.72.38-.34 1.16-1.02 1.54-1.36-.49-.95-.89-1.95-1.18-2.98m13.58 1.11c.28.27.28.27 0 0z"/><path d="M124.2 66.5c1.26-1.02 2.44-2.14 3.85-2.95-.36 2 1.03 2.99 2.5 3.87.58 1.58.91 3.25 1.32 4.88-3.29.35-3.15-2.55-3.39-4.89-1.23 1.82-1.04 5.09-3.96 4.9.35-1.64.72-3.28 1.12-4.91-.36-.22-1.08-.67-1.44-.9z"/><path d="M128.5 65.8c1.96-2.26 5.05-1.42 7.67-1.8-.78 2.93-.97 5.96-.65 8.97-1.2-.84-2.4-1.7-3.58-2.57l2.08-4.77c-1.84.13-3.68.16-5.52.17z"/><path d="M135.58 73.6c.9-3.49.34-8.39 4.04-10.29-.56 4.31-.3 8.96-2.91 12.69h-2.8c-.33-1.61-.71-3.49 1.67-2.4zm3.87-3.66c1.21-2.07 1.5-5.76 4.48-5.95 1.86-.77 1.64 1.77 2.11 2.76-1.04-.24-2.07-.49-3.1-.74-.21 1.72-.39 3.45-.52 5.19l2.97-.73c-1.68 2.64-4.5 1.48-5.94-.53zm6.74.21c1.02-1.37 3.59.17 2.37 1.64-1 1.42-3.62-.2-2.37-1.64z"/></symbol><symbol viewBox="0 0 15.91 12.5" id="mail" xmlns="http://www.w3.org/2000/svg"><defs><style>.ascls-1{fill:gray}</style></defs><g id="asСлой_2" data-name="Слой 2"><g id="asСлой_1-2" data-name="Слой 1"><path class="ascls-1" d="M1.53 3.85l1.82 1.27 2.32 1.62L6 7l.48.34.52.29a2.68 2.68 0 0 0 .51.24 1.41 1.41 0 0 0 .44.13H8a1.41 1.41 0 0 0 .44-.08 2.68 2.68 0 0 0 .51-.24l.46-.29.45-.39.38-.27 4.15-2.89a4.22 4.22 0 0 0 1.08-1.09 2.34 2.34 0 0 0 .44-1.34 1.36 1.36 0 0 0-.42-1 1.37 1.37 0 0 0-1-.42H1.42A1.27 1.27 0 0 0 .37.46 1.79 1.79 0 0 0 0 1.62a2.07 2.07 0 0 0 .49 1.21 4.41 4.41 0 0 0 1.04 1.02z"/><path class="ascls-1" d="M15 4.8q-2.91 2-4.42 3.06l-.82.58a5.07 5.07 0 0 1-.84.43 2.55 2.55 0 0 1-1 .22 2.56 2.56 0 0 1-1-.22 5.07 5.07 0 0 1-.84-.43l-.82-.58Q4.11 7 .9 4.8A4.7 4.7 0 0 1 0 4v7a1.37 1.37 0 0 0 .42 1 1.37 1.37 0 0 0 1 .42h13.07A1.42 1.42 0 0 0 15.91 11V4a4.9 4.9 0 0 1-.91.8z"/></g></g></symbol><symbol viewBox="0 0 20.61 26.73" id="nuts" xmlns="http://www.w3.org/2000/svg"><g data-name="Слой 2"><path d="M18 1C15.29-.73 12-.2 9.41 2.39a10 10 0 0 0-2.05 3.42 25.54 25.54 0 0 1-1.81 3.6 26.37 26.37 0 0 1-2.24 3.14 22 22 0 0 0-2.52 3.7c-2 3.6 0 7.76 3.11 9.71a4.94 4.94 0 0 0 3.95.6h.07a8 8 0 0 0 4.76-4.09 31 31 0 0 0 1.81-4.09 17.77 17.77 0 0 1 1-2.28 19.81 19.81 0 0 1 2-2.81 14.43 14.43 0 0 0 2.85-4.72C21.15 5.44 20.25 2.41 18 1zm1.37 4.7l-.17-.24a4.42 4.42 0 0 0-.56-.59 3.45 3.45 0 0 0 0-1.36c0-.08 0-.17-.05-.25V3.2a5.26 5.26 0 0 1 .78 2.5zm-.24 2.42c-.17-.2-.35-.4-.54-.59a8.17 8.17 0 0 0-.72-.65 9 9 0 0 0 .6-1.38c0-.11.07-.22.09-.34a4.23 4.23 0 0 1 .36.48 5 5 0 0 1 .45.88 7.62 7.62 0 0 1-.23 1.6zM12 21.1a2.52 2.52 0 0 1-.5.13 5 5 0 0 1-.62.06h-.58l.09-.14c.09-.15.16-.3.24-.45l.11-.23.1-.23c.06-.15.15-.31.2-.47l.17-.46q.43-1.17.92-2.29a5.51 5.51 0 0 1 1 .95l.16.23A29 29 0 0 1 12 21.1zm-1.94 2.84a.24.24 0 0 0-.28.11h-.06l-.14.07a1.83 1.83 0 0 1-.3.1 2.74 2.74 0 0 1-.66.07 5 5 0 0 1-1.35-.24h-.09a3.3 3.3 0 0 0 .37-.13 5 5 0 0 0 1.56-1q.41.11.82.19l.64.1h.21a7.49 7.49 0 0 1-.71.72zm-1.48-1.38a7.31 7.31 0 0 1-1.08-.37 6.27 6.27 0 0 1-.57-.27 2.14 2.14 0 0 1-.51-.37 2.16 2.16 0 0 0 .49.4 6.33 6.33 0 0 0 .55.32 8 8 0 0 0 1 .42 4.55 4.55 0 0 1-1.13.79 4.49 4.49 0 0 1-.42.18 4.51 4.51 0 0 1-.45.13l-.48-.23a5.39 5.39 0 0 1-1.16-.8 5.45 5.45 0 0 0 1.1.91l.28.17h-.65a4.91 4.91 0 0 1-1.85-.36 5 5 0 0 1-.86-.43 4.46 4.46 0 0 1-.46-.33 7.15 7.15 0 0 1-.36-.59 2.3 2.3 0 0 0 .68.45h.21l.22.05a2.14 2.14 0 0 0 .45 0 2.35 2.35 0 0 0 .42.07l.21-.07h.21l.2-.1.19-.11a4.39 4.39 0 0 0 .37-.25 11 11 0 0 0 2.37-2.61c.35-.51.68-1 1-1.57l.14.1a4.83 4.83 0 0 1 .76.67 4.86 4.86 0 0 0-.72-.76l-.14-.12c.41-.71.8-1.43 1.16-2.17a11.29 11.29 0 0 1 1.78.89c-.35.82-.68 1.65-1 2.48l-.16.46c0 .16-.12.29-.17.44l-.09.22-.1.21c-.07.14-.13.29-.21.42l-.21.37a4.9 4.9 0 0 1-1.18-.41 4.11 4.11 0 0 1-1-.73 4.15 4.15 0 0 0 1 .81 5 5 0 0 0 1.13.48 7 7 0 0 1-.76 1zm-6.7-3c0-.15-.1-.29-.15-.44s-.11-.29-.17-.44l-.1-.22a1.77 1.77 0 0 0-.13-.23A5.11 5.11 0 0 1 1.76 17l.2.29a7.35 7.35 0 0 1 .41.61l.09.16v.17l.06.14a7 7 0 0 0-.54 1c0 .1-.08.21-.11.32zm.2.81a4.35 4.35 0 0 0 .4.41 5.25 5.25 0 0 0 .74.55 5.19 5.19 0 0 1-.66-.63 4 4 0 0 1-.41-.55 4.62 4.62 0 0 1 .24-.59 6.62 6.62 0 0 1 .43-.74 6.29 6.29 0 0 0 .71 1 6.7 6.7 0 0 0 1.1 1 6.64 6.64 0 0 1-1-1.12A6.13 6.13 0 0 1 3 18.62a14.47 14.47 0 0 1 1-1.28l.17.16a5.26 5.26 0 0 0 .74.55 5.2 5.2 0 0 1-.66-.63l-.16-.19.39-.43.88-1q.36.28.74.53c.57.38 1.17.7 1.73 1.07l.14.09q-.45.83-.94 1.63t-1 1.4A8.12 8.12 0 0 1 5 21.8a4 4 0 0 1-.33.26l-.17.12-.18.1-.09.05h-.09l-.19.08a2.47 2.47 0 0 1-.4.11 2 2 0 0 1-.41 0h-.41a2.27 2.27 0 0 1-.73-.35L1.9 22a5.27 5.27 0 0 1 0-.83 5 5 0 0 1 .18-.8zm1.68-3.69l-.09-.2-.07-.21a3.78 3.78 0 0 0-.17-.45 1.9 1.9 0 0 0-.12-.22l-.13-.19a.42.42 0 0 1-.06-.15 1.68 1.68 0 0 1 0-.2.23.23 0 0 0-.12-.13c.25-.36.48-.67.71-1l.15.27a4.92 4.92 0 0 0 .64.84l.37.36-.83 1-.27.32zm3-2.56a9.27 9.27 0 0 0 2.27 1.29l-.36.74c-.21.43-.43.85-.65 1.27l-.12-.09c-.54-.41-1.12-.77-1.67-1.17a9.12 9.12 0 0 1-.69-.54c.46-.48.87-.98 1.25-1.5zm2.68-7.2L9 6.85l-.44-.1-.21-.06h-.08l.16-.38.2-.47.37.04c.32 0 .63.08.95.11h.25q-.28.47-.54 1zm.35-3.18l.5.05h.63a3.24 3.24 0 0 1 .59.07h.09l-.3.37c-.34.45-.66.92-1 1.4l-.3.02c-.31 0-.61-.1-.91-.16l-.22-.05a7.91 7.91 0 0 1 .95-1.7zm2.92.47l-.4-.21c.19-.23.38-.45.59-.66a6.37 6.37 0 0 1 .56-.5 6.55 6.55 0 0 1 1.27.44 8.82 8.82 0 0 1 1 .57l-.29.25a13.82 13.82 0 0 0-2.02 2.5 7.76 7.76 0 0 0-1.57-.66 5.32 5.32 0 0 0-.76-.16c.23-.38.46-.76.71-1.13.13-.19.27-.37.41-.55l.48.21a7 7 0 0 1 1.06.69 7.07 7.07 0 0 0-1-.78zM17.29 2h.11a3.76 3.76 0 0 1 .75.63 2.62 2.62 0 0 0-.41.08 4.15 4.15 0 0 0-.83.31 5 5 0 0 0-.51.3 3.35 3.35 0 0 0-.6-.32 3.39 3.39 0 0 1 .56.33 6.9 6.9 0 0 0-.58.44 8.89 8.89 0 0 0-1-.65 6.93 6.93 0 0 0-1.11-.5 4.94 4.94 0 0 1 .59-.37 3.91 3.91 0 0 1 1.64-.46 4.79 4.79 0 0 1 1.39.21zm1.15 1.57a3.25 3.25 0 0 1-.07 1.11l-.22-.15c-.21-.13-.41-.22-.61-.34a5.43 5.43 0 0 1-.54-.41l-.34-.27.34-.28a4 4 0 0 1 1.18-.52l.09.09a3.54 3.54 0 0 1 .17.74zm-8.37 4.12l.17-.35a4.22 4.22 0 0 1 .49.19 5.2 5.2 0 0 1 .79.45 5.25 5.25 0 0 0-.74-.55 4.4 4.4 0 0 0-.46-.25c.2-.38.4-.77.61-1.14a5 5 0 0 1 .86.12 7.58 7.58 0 0 1 1.55.54l-.07.11c-.38.59-.73 1.21-1.07 1.83a5.32 5.32 0 0 1-.75-.37 5.32 5.32 0 0 0 .72.41q-.31.59-.61 1.18l-.38.79-.57-.21a11.39 11.39 0 0 1-1.16-.52l-.35-.2c.32-.72.64-1.35.97-2.03zm-.75 2.55a11.7 11.7 0 0 0 1.21.48l.55.18c-.29.63-.58 1.27-.86 1.91l-.62-.22-.6-.28a9.33 9.33 0 0 1-.83-.43l.08-.16.19-.41.18-.41.38-.84zM8.07 12c.26.17.53.33.81.48l.63.31.6.26q-.45 1.07-.94 2.12A9 9 0 0 1 7 13.85a15.3 15.3 0 0 0 .82-1.31c.08-.17.18-.33.25-.54zm3.5 4.41a11.49 11.49 0 0 0-1.74-1c.34-.7.66-1.4 1-2.1a9.31 9.31 0 0 1 1.7 1.07q-.24.46-.47.93c-.18.44-.34.79-.49 1.14zm1.15-2.38a9.74 9.74 0 0 0-1.79-1q.41-1 .84-1.91a11.37 11.37 0 0 1 1.93 1.17q-.51.9-.97 1.78zm1-1.84A11.5 11.5 0 0 0 11.87 11l.36-.78c.19-.41.38-.81.58-1.21l.34.14.88.33a5 5 0 0 1 .84.38l.33.2c-.43.63-.84 1.26-1.25 1.91zm1.56-2.41L15 9.63a5.2 5.2 0 0 0-.89-.34L13.18 9l-.34-.12q.45-.89.94-1.77l.09-.11a10.46 10.46 0 0 1 1.27.79 10.5 10.5 0 0 0-1.22-.87q.36-.62.77-1.22a11.84 11.84 0 0 1 1.05-1.33 7.19 7.19 0 0 1 .83-.79l.33.3a5.55 5.55 0 0 0 .56.42c.19.13.4.25.57.38l.27.23a5 5 0 0 1-.17.49 8.69 8.69 0 0 1-.62 1.22 8.15 8.15 0 0 0-.87-.54 9 9 0 0 0-1.11-.51 8.92 8.92 0 0 1 1.06.59 7.91 7.91 0 0 1 .83.61l-.2.32c-.35.54-.72 1.08-1.09 1.61zm1.75-8l-.28-.09c-.15 0-.29-.07-.44-.09a4 4 0 0 0-.45 0 4.09 4.09 0 0 0-1.76.4 5.4 5.4 0 0 0-1 .55 4.19 4.19 0 0 0-.55-.08l-.75-.09-.41-.06a6.13 6.13 0 0 1 2-.91 5 5 0 0 1 3.69.44zM11 2.6l.77.07h1.05l-.26.33a8.38 8.38 0 0 0-.78.79l-.18-.06a3.5 3.5 0 0 0-.6-.18l-.61-.09h-.26l.16-.17A8.45 8.45 0 0 1 11 2.6zM8.13 7.07h1.38c-.37.7-.71 1.41-1 2.13l-.09-.06-.51-.37a5.58 5.58 0 0 1-.44-.38c.24-.39.46-.87.66-1.32zm-.91 1.87l.4.31c.18.13.36.25.55.37l.15.08-.41.9-.18.4-.18.39v.07a8.11 8.11 0 0 1-.84-.66l-.36-.35.23-.45c.24-.34.42-.71.64-1.06zm-.93 1.57l.33.37a8.24 8.24 0 0 0 .83.73c-.09.19-.19.39-.3.58-.22.4-.45.78-.7 1.16a5.23 5.23 0 0 1-.59-.76 4.1 4.1 0 0 1-.33-.65l-.07-.2c.26-.37.54-.74.83-1.23zm-1.12 1.63a4.56 4.56 0 0 0 .37.66 5.63 5.63 0 0 0 .71.85c-.36.52-.75 1-1.15 1.52l-.31-.34A4.23 4.23 0 0 1 4 13.59l.22-.28c.33-.37.63-.74.95-1.17zm-2.46 3.25a.83.83 0 0 0 .14.26l.15.17.12.17a3.48 3.48 0 0 1 .21.39l.11.21.13.2.08.11c-.24.3-.48.6-.7.91l-.18.27v-.09l-.08-.18a7.62 7.62 0 0 0-.39-.67 4.64 4.64 0 0 1-.3-.52c.24-.47.48-.87.71-1.23zm-1.48 3.52l.2.35.2.41.11.21.12.19a4.76 4.76 0 0 0-.14 1.13v.45a5.79 5.79 0 0 1-.49-2.74zm6.38 6.46h-.05a3.76 3.76 0 0 1-3-.45 7.54 7.54 0 0 1-2.07-2 4.83 4.83 0 0 0 1.09.74 5 5 0 0 0 1.93.54 4.21 4.21 0 0 0 1-.05h.25l.38.17a5.08 5.08 0 0 0 1.41.36 3.25 3.25 0 0 0 .53 0 5.31 5.31 0 0 1-1.47.69zm3.46-2.6H9.94l-.66-.08a7.27 7.27 0 0 0 .92-1.19 6.18 6.18 0 0 0 .7.09 5.33 5.33 0 0 0 .67 0h.21l-.16.3a8.16 8.16 0 0 1-.56.89zm2.29-4.84l-.07.19-.14-.21a5.61 5.61 0 0 0-1-1c.17-.4.35-.79.54-1.18l.36-.75.39.4c.15.16.29.34.43.51l.17.24c-.25.63-.47 1.21-.69 1.81zm1-2.42c-.16-.18-.32-.36-.49-.53s-.35-.33-.54-.49q.46-.88 1-1.74.62.5 1.19 1a13.76 13.76 0 0 0-1.13 1.77zm2.09-3c-.33.42-.67.85-1 1.29q-.55-.58-1.16-1.11c.45-.77.91-1.53 1.39-2.29.21.17.42.34.61.53a10.88 10.88 0 0 1 .76.8zm.87-1.12c-.25-.25-.51-.49-.78-.72s-.45-.36-.68-.52L16.62 9c.35-.55.7-1.11 1-1.68l.13-.25a7.94 7.94 0 0 1 .58.67 9.09 9.09 0 0 1 .62.89 11.28 11.28 0 0 1-1.61 2.78z" data-name="Слой 1"/></g></symbol><symbol viewBox="0 0 29.92 37" id="packing" xmlns="http://www.w3.org/2000/svg"><defs><style>.aucls-1{fill:#f34d19}</style></defs><g id="auСлой_2" data-name="Слой 2"><g id="auСлой_1-2" data-name="Слой 1"><path class="aucls-1" d="M28.64 6.55a.54.54 0 0 0-.54.54v7.35c-.08.21-1 .88-4.35 1.4a10.71 10.71 0 0 0-17.57 0c-3.32-.52-4.28-1.19-4.35-1.4V6.78a.54.54 0 0 0-1.08 0v27.15c0 1 1.41 1.76 4.45 2.32A56.5 56.5 0 0 0 15 37a56.51 56.51 0 0 0 9.77-.75c3-.56 4.45-1.3 4.45-2.32V6.47c0-.3-.24.07-.54.07zm-4.37 28.68a56.66 56.66 0 0 1-9.31.68 56.66 56.66 0 0 1-9.31-.68c-3.39-.59-3.8-1.26-3.83-1.31V26.3a5.72 5.72 0 0 0 .55.25 17.25 17.25 0 0 0 3.34.84 10.71 10.71 0 0 0 18.48 0 17.25 17.25 0 0 0 3.34-.84 5.72 5.72 0 0 0 .55-.25v7.62c0 .06-.45.72-3.83 1.31zM28.1 25c0 .06-.5.79-4.32 1.4a.54.54 0 0 0-.39.27 9.63 9.63 0 0 1-16.85 0 .54.54 0 0 0-.39-.27C2.3 25.74 1.85 25 1.82 25v-9.22a5.93 5.93 0 0 0 .67.29 19.62 19.62 0 0 0 3.86.93.54.54 0 0 0 .53-.24 9.63 9.63 0 0 1 16.15 0 .54.54 0 0 0 .53.24 19.64 19.64 0 0 0 3.86-.89 5.85 5.85 0 0 0 .67-.29zm0 0"/><path class="aucls-1" d="M25.25.79A59.45 59.45 0 0 0 15 0 59.45 59.45 0 0 0 4.67.79C1.48 1.38 0 2.15 0 3.21v2.64A.53.53 0 0 0 0 6c.15.62.89 1.49 4.77 2.19A60.12 60.12 0 0 0 15 9a59.49 59.49 0 0 0 10.29-.79c3.18-.59 4.67-1.36 4.67-2.42V3.21c0-1.06-1.48-1.83-4.67-2.42zm-20.17 1A59.39 59.39 0 0 1 15 1.08a59.38 59.38 0 0 1 9.88.73c3.08.55 3.93 1.2 4 1.39H27.8l-.8.9h-1.94l-.28.05A59.38 59.38 0 0 1 15 5.33a59.44 59.44 0 0 1-9.92-.73l-.28-.05h-.65L4 4.39h-.81L3 4.13c-1.39-.4-1.84-.78-1.89-.92s.91-.84 4-1.39zm19.76 5.38A59.42 59.42 0 0 1 15 7.9a59.42 59.42 0 0 1-9.88-.73C2 6.61 1.13 6 1.08 5.77v-1.2h2.66L4 5.5h.38l.3.06A59.45 59.45 0 0 0 15 6.42a59.5 59.5 0 0 0 10.29-.79l.3-.06h3.22v1.2c0 .19-.88.84-4 1.4zm0 0"/></g></g></symbol><symbol viewBox="0 0 22.17 19" id="pdf" xmlns="http://www.w3.org/2000/svg"><g data-name="Слой 2"><path d="M2.64 0v15.31c3.38 0 5.89 1.82 7.92 3.51V3.17A12 12 0 0 0 2.64 0zm16.89 0a12 12 0 0 0-7.92 3.17v15.65c2-1.69 4.54-3.53 7.92-3.51zM0 2.11v15.31L9.24 19a11 11 0 0 0-6.6-2.64h-.53a.55.55 0 0 1-.53-.53V2.33zm22.17 0l-1.58.22v13.5a.55.55 0 0 1-.53.53h-.53a11 11 0 0 0-6.6 2.64l9.24-1.58z" data-name="Слой 1"/></g></symbol><symbol viewBox="0 0 14.99 14.99" id="phone" xmlns="http://www.w3.org/2000/svg"><defs><style>.awcls-1{fill:gray}</style></defs><g id="awСлой_2" data-name="Слой 2"><g id="awСлой_1-2" data-name="Слой 1"><path class="awcls-1" d="M11.4 9.92a1.05 1.05 0 0 0-1.59 0L8.7 11a.22.22 0 0 1-.31.06c-.24-.13-.5-.24-.73-.38a11.52 11.52 0 0 1-2.77-2.5 6.58 6.58 0 0 1-1-1.59.23.23 0 0 1 .11-.3c.37-.36.73-.73 1.1-1.1a1.05 1.05 0 0 0 0-1.63l-.92-.86-.9-.9a1.06 1.06 0 0 0-1.59 0c-.37.37-.69.75-1.11 1.11A1.81 1.81 0 0 0 0 4.13a5.17 5.17 0 0 0 .4 2.22 13.52 13.52 0 0 0 2.4 4 14.85 14.85 0 0 0 4.93 3.85 7.11 7.11 0 0 0 2.72.79 2 2 0 0 0 1.71-.65c.32-.36.68-.68 1-1a1.06 1.06 0 0 0 0-1.62zm-.6-2.49l1.2-.19A5.17 5.17 0 0 0 7.58 3l-.16 1.15a4 4 0 0 1 3.38 3.28z"/><path class="awcls-1" d="M12.6 2.43A8.49 8.49 0 0 0 7.74 0l-.17 1.16a7.41 7.41 0 0 1 6.27 6.08L15 7a8.55 8.55 0 0 0-2.4-4.57z"/></g></g></symbol><symbol viewBox="0 0 13.7 17.17" id="pin" xmlns="http://www.w3.org/2000/svg"><g data-name="Слой 2"><path d="M6.61 0A6.85 6.85 0 0 0 .12 8.15v.21a6.87 6.87 0 0 0 .51 1.37A19.84 19.84 0 0 0 6.47 17a.6.6 0 0 0 .76 0 19.82 19.82 0 0 0 5.84-7.31 6.58 6.58 0 0 0 .46-1.36v-.21A6.85 6.85 0 0 0 6.61 0zm.24 10.25a3.33 3.33 0 1 1 3.33-3.33 3.33 3.33 0 0 1-3.33 3.34z" data-name="Слой 1"/></g></symbol><symbol viewBox="0 0 11 15" id="rubl" xmlns="http://www.w3.org/2000/svg"><g data-name="Слой 2"><path d="M6.29 0H1.5v7.17H0v2.25h1.5v1.18H0v2.25h1.5V15h2.25v-2.14h4.08v-2.25H3.75V9.42h2.54a4.71 4.71 0 0 0 0-9.42zm0 7.17H3.75V2.25h2.54a2.46 2.46 0 0 1 0 4.92z" data-name="Слой 1"/></g></symbol><symbol viewBox="0 0 24.09 30.37" id="rublAbout" xmlns="http://www.w3.org/2000/svg"><g data-name="Слой 2"><path d="M.78 22.81h6.71v6.78a.78.78 0 0 0 1.56 0v-6.78H21a.78.78 0 1 0 0-1.56H9v-4.8h6.82A8.23 8.23 0 0 0 15.87 0H8.3a.8.8 0 0 0-.78.7.73.73 0 0 0-.07.3v13.89h-1.1a3.74 3.74 0 0 1-3.74-3.74.78.78 0 0 0-1.56 0 5.31 5.31 0 0 0 5.3 5.3h1.1v4.8H.78a.78.78 0 1 0 0 1.56zM9 1.56h6.82a6.67 6.67 0 0 1 0 13.33H9z" data-name="Слой 1"/></g></symbol><symbol viewBox="0 0 20 20" id="search" xmlns="http://www.w3.org/2000/svg"><g data-name="Слой 2"><path d="M19.7 18.25l-4.17-4.17a8.7 8.7 0 1 0-1.45 1.45l4.17 4.17a1 1 0 1 0 1.45-1.45zM4 13.41a6.65 6.65 0 1 1 9.41 0 6.66 6.66 0 0 1-9.41 0z" data-name="Слой 1"/></g></symbol></svg>