<svg xmlns="http://www.w3.org/2000/svg" width="16" height="15.33" viewBox="0 0 16 15.33"><defs><style>.cls-1{fill:#eacba9;}</style></defs><title>Ресурс 22</title><g id="Слой_2" data-name="Слой 2"><g id="Слой_1-2" data-name="Слой 1"><path class="cls-1" d="M15.65,6.95A1.15,1.15,0,0,0,15,5l-3.87-.56a.51.51,0,0,1-.38-.28L9,.64A1.15,1.15,0,0,0,7,.64L5.24,4.15a.51.51,0,0,1-.38.28L1,5a1.15,1.15,0,0,0-.64,2l2.8,2.73a.51.51,0,0,1,.15.45L2.64,14a1.12,1.12,0,0,0,.25.93,1.16,1.16,0,0,0,1.41.28l3.46-1.82a.52.52,0,0,1,.47,0L11.7,15.2a1.14,1.14,0,0,0,.53.13,1.15,1.15,0,0,0,.88-.41,1.12,1.12,0,0,0,.25-.93l-.66-3.86a.51.51,0,0,1,.15-.45Z"/></g></g></svg>