<svg xmlns="http://www.w3.org/2000/svg" width="10.65" height="14" viewBox="0 0 10.65 14"><defs><style>.cls-1{fill:#345a4c;}</style></defs><title>Ресурс 47</title><g id="Слой_2" data-name="Слой 2"><g id="Слой_1-2" data-name="Слой 1"><path class="cls-1" d="M5.32,6.85c1.56,0,2.82-1.53,2.82-3.42S7.73,0,5.32,0,2.51,1.53,2.51,3.42,3.77,6.85,5.32,6.85Z"/><path class="cls-1" d="M0,12.07c0-.12,0,0,0,0Z"/><path class="cls-1" d="M10.65,12.16s0-.22,0,0Z"/><path class="cls-1" d="M10.64,11.94c-.05-3.29-.48-4.23-3.77-4.83a2,2,0,0,1-1.54.59,2,2,0,0,1-1.54-.59C.52,7.7.07,8.62,0,11.83c0,.26,0,.28,0,.25s0,.16,0,.35C0,12.42.78,14,5.32,14s5.32-1.58,5.32-1.58,0-.2,0-.26A2.12,2.12,0,0,1,10.64,11.94Z"/></g></g></svg>