<?xml version="1.0" encoding="UTF-8" ?>
<!DOCTYPE svg PUBLIC "-//W3C//DTD SVG 1.1//EN" "http://www.w3.org/Graphics/SVG/1.1/DTD/svg11.dtd">
<svg width="482pt" height="153pt" viewBox="0 0 482 153" version="1.1" xmlns="http://www.w3.org/2000/svg">
<g id="#f34d19ff">
<path fill="#f34d19" opacity="1.00" d=" M 112.79 0.00 L 120.36 0.00 C 129.05 0.69 138.27 2.13 145.25 7.76 C 150.69 12.05 153.82 18.98 153.47 25.90 C 152.95 35.97 148.80 46.40 140.46 52.49 C 135.69 56.55 129.00 53.84 123.36 54.67 C 130.14 47.69 136.97 40.06 139.63 30.46 C 141.78 23.68 138.00 16.48 132.88 12.12 C 125.56 5.86 115.32 4.81 106.08 5.72 C 97.89 6.31 90.12 10.61 85.18 17.15 C 78.18 26.60 74.65 38.42 73.80 50.06 C 73.75 65.31 73.05 81.36 79.29 95.65 C 70.20 94.66 61.11 93.82 52.02 92.89 C 53.20 76.57 56.30 60.31 62.02 44.95 C 66.35 33.61 72.25 22.60 81.01 14.06 C 89.44 5.70 100.94 0.65 112.79 0.00 Z" />
<path fill="#f34d19" opacity="1.00" d=" M 145.75 57.40 C 153.97 60.16 163.08 63.43 167.79 71.25 C 171.77 77.84 170.00 86.17 166.55 92.59 C 163.09 98.82 158.72 104.69 153.22 109.27 C 146.01 113.99 137.47 116.16 129.10 117.81 C 103.29 122.34 77.00 120.46 50.95 120.24 C 33.12 120.26 15.48 125.14 0.00 133.94 L 0.00 132.91 C 2.66 123.47 7.60 114.90 12.24 106.33 C 16.17 98.77 24.94 95.28 33.05 94.81 C 46.61 93.99 59.92 97.47 73.14 100.01 C 86.63 102.54 100.15 105.91 113.98 105.37 C 126.37 105.03 139.46 101.44 148.28 92.29 C 153.13 86.05 157.36 78.14 155.81 69.98 C 154.76 64.39 150.33 60.34 145.75 57.40 Z" />
<path fill="#f34d19" opacity="1.00" d=" M 181.39 72.08 C 185.58 72.06 189.78 72.07 193.97 72.07 C 192.72 76.72 191.46 81.36 190.22 86.01 C 194.98 82.18 199.43 77.98 204.26 74.24 C 207.43 71.78 211.93 70.55 215.73 72.22 C 218.44 73.48 218.91 77.70 216.55 79.50 C 213.57 81.63 208.52 80.92 207.35 77.06 C 203.88 79.42 200.76 82.22 197.57 84.93 C 201.08 84.89 205.31 84.23 208.10 86.89 C 210.96 90.53 208.20 95.10 208.43 99.15 C 209.80 101.35 213.00 101.13 215.00 100.01 C 217.55 98.13 219.06 95.11 219.82 92.08 C 221.54 85.40 223.31 78.73 225.07 72.07 C 229.26 72.07 233.45 72.07 237.65 72.06 C 235.59 80.00 233.42 87.91 231.42 95.86 C 230.86 97.56 230.89 100.33 233.11 100.77 C 236.86 101.20 239.69 97.84 240.64 94.54 C 242.72 87.07 244.63 79.55 246.63 72.06 C 250.83 72.07 255.02 72.07 259.22 72.07 C 256.35 82.96 253.38 93.83 250.57 104.74 C 255.04 103.36 260.35 100.30 260.51 95.05 C 260.96 88.98 263.42 83.04 267.45 78.47 C 272.86 72.46 281.86 69.97 289.58 72.34 C 293.63 73.38 295.08 79.20 292.00 81.97 C 290.39 83.50 288.09 82.76 286.14 82.66 C 286.40 80.30 288.06 77.06 285.65 75.33 C 282.85 74.61 280.56 76.98 279.05 79.02 C 275.75 83.68 273.81 89.31 273.36 94.99 C 273.16 97.40 273.69 100.67 276.49 101.29 C 281.73 102.48 287.34 100.84 291.53 97.57 C 293.08 96.29 295.14 95.15 295.51 92.99 C 297.35 86.02 299.17 79.04 301.01 72.07 C 305.20 72.07 309.40 72.07 313.59 72.07 C 311.54 79.93 309.43 87.78 307.40 95.65 C 306.92 97.44 306.65 100.43 309.11 100.79 C 312.93 101.17 315.69 97.78 316.64 94.44 C 318.75 87.02 320.58 79.52 322.58 72.08 C 326.78 72.06 330.97 72.07 335.17 72.07 C 333.09 80.05 330.94 88.01 328.89 95.99 C 328.44 97.53 328.02 100.05 330.11 100.55 C 334.10 101.85 337.97 98.66 339.00 94.94 C 341.20 87.36 343.04 79.68 345.11 72.07 C 349.31 72.07 353.51 72.07 357.71 72.06 C 357.46 72.94 356.97 74.69 356.72 75.56 C 360.96 72.14 366.93 70.64 372.15 72.55 C 374.42 73.34 375.61 75.53 376.47 77.62 C 379.89 73.30 385.59 71.01 391.05 72.00 C 394.28 72.32 397.56 74.49 398.04 77.90 C 398.81 84.93 394.61 91.22 394.01 98.09 C 394.98 103.26 403.44 100.34 403.65 95.98 C 404.11 88.51 407.35 81.04 413.22 76.26 C 417.78 72.49 424.08 70.95 429.87 72.12 C 431.59 72.35 432.66 73.77 433.67 75.04 C 433.77 74.30 433.97 72.83 434.07 72.10 C 438.31 72.05 442.54 72.07 446.78 72.07 C 444.67 80.08 442.53 88.09 440.46 96.11 C 439.88 97.83 439.85 100.51 442.07 101.00 C 446.41 102.30 449.49 98.13 450.90 94.63 C 451.81 94.61 453.62 94.59 454.52 94.58 C 451.84 100.70 446.86 106.46 439.87 107.35 C 435.17 108.42 429.07 106.73 428.27 101.27 C 424.52 105.58 418.83 108.42 413.03 107.41 C 409.38 107.12 406.26 104.79 404.51 101.65 C 400.91 106.26 394.79 108.52 389.05 107.30 C 385.39 106.92 381.98 103.90 382.00 100.07 C 382.13 93.48 385.88 87.51 385.88 80.91 C 385.81 78.97 383.78 77.72 381.98 78.25 C 378.38 78.95 376.48 82.68 375.61 85.91 C 373.72 93.00 371.88 100.11 369.99 107.20 C 365.80 107.20 361.61 107.20 357.43 107.20 C 359.45 99.46 361.51 91.73 363.56 83.99 C 363.97 82.16 364.77 79.41 362.66 78.32 C 358.70 77.22 355.60 81.05 354.51 84.41 C 352.30 91.95 350.47 99.61 348.43 107.20 C 344.23 107.20 340.03 107.20 335.83 107.20 C 336.18 105.94 336.53 104.68 336.90 103.43 C 332.52 106.90 326.47 108.70 321.04 106.84 C 318.52 106.00 317.23 103.51 316.55 101.12 C 312.51 106.55 304.88 109.34 298.52 106.49 C 295.64 105.21 294.47 102.00 294.27 99.06 C 288.45 104.84 280.25 108.27 272.00 107.49 C 267.73 107.36 263.30 105.50 261.25 101.56 C 258.17 104.81 254.12 106.84 249.78 107.81 C 248.62 111.99 247.93 116.60 244.91 119.94 C 241.15 124.27 234.84 125.35 229.42 124.39 C 226.63 123.83 223.51 122.06 223.08 118.98 C 222.53 116.31 224.04 113.70 226.12 112.13 C 229.34 109.63 233.37 108.57 237.21 107.41 C 237.56 106.22 237.92 105.04 238.28 103.86 C 233.91 107.27 227.71 108.83 222.52 106.46 C 220.57 105.59 219.53 103.66 218.58 101.88 C 215.86 104.96 212.18 107.42 207.95 107.53 C 204.19 107.72 199.56 107.17 197.37 103.70 C 195.34 100.35 197.13 96.51 197.35 92.97 C 197.50 91.48 196.51 89.97 194.97 89.82 C 192.49 89.43 190.46 91.17 188.47 92.32 C 187.23 97.28 185.88 102.21 184.65 107.18 C 180.45 107.22 176.25 107.20 172.05 107.20 C 175.15 95.49 178.29 83.79 181.39 72.08 M 426.43 76.56 C 421.86 78.59 419.51 83.45 417.96 87.93 C 416.88 91.42 415.95 95.33 417.27 98.87 C 418.65 101.61 422.47 101.07 424.62 99.61 C 428.37 97.33 428.66 92.57 429.80 88.77 C 430.57 85.15 432.11 81.63 432.29 77.92 C 431.24 75.78 428.36 75.78 426.43 76.56 M 227.89 116.03 C 227.03 118.38 230.07 120.00 231.95 118.92 C 234.89 117.40 235.53 113.85 236.37 110.96 C 233.33 112.11 229.50 112.88 227.89 116.03 Z" />
<path fill="#f34d19" opacity="1.00" d=" M 457.47 73.74 C 463.43 75.43 469.49 77.59 474.13 81.86 C 478.80 85.90 481.24 91.88 482.00 97.91 L 482.00 98.42 C 480.71 109.30 475.25 119.70 466.52 126.43 C 454.22 136.03 438.42 139.50 423.22 141.08 C 413.19 141.93 403.05 142.57 393.01 141.43 C 374.63 139.85 355.96 140.52 337.88 144.41 C 329.15 146.36 320.45 148.89 312.46 153.00 L 312.21 153.00 C 314.53 143.16 318.62 133.87 322.49 124.57 C 323.74 121.29 326.97 119.45 330.01 118.10 C 337.56 114.90 345.92 114.65 354.00 114.67 C 375.53 115.10 396.70 119.45 418.02 122.01 C 424.28 122.62 430.74 123.80 436.92 122.02 C 445.26 119.89 453.77 117.10 460.44 111.45 C 464.95 107.69 467.98 101.97 467.70 96.01 C 467.47 87.55 462.67 80.09 457.47 73.74 Z" />
</g>
</svg>
