<?xml version="1.0" encoding="UTF-8" ?>
<!DOCTYPE svg PUBLIC "-//W3C//DTD SVG 1.1//EN" "http://www.w3.org/Graphics/SVG/1.1/DTD/svg11.dtd">
<svg width="177pt" height="76pt" viewBox="0 0 177 76" version="1.1" xmlns="http://www.w3.org/2000/svg">
<g id="#f34d19ff">
<path fill="#f34d19" opacity="1.00" d=" M 39.17 0.00 L 46.96 0.00 C 50.61 1.08 54.92 2.53 56.40 6.44 C 58.62 13.20 52.80 21.24 45.41 20.07 C 47.78 17.74 51.10 15.61 51.31 11.95 C 52.07 5.65 45.14 0.16 39.16 1.89 C 33.60 3.05 30.41 8.52 28.85 13.55 C 26.99 20.59 27.63 28.10 29.64 35.04 C 26.35 34.76 23.08 34.34 19.82 33.79 C 21.83 24.83 22.67 14.99 28.63 7.57 C 31.68 3.58 36.43 1.53 41.11 0.18 L 39.17 0.00 Z" />
<path fill="#f34d19" opacity="1.00" d=" M 54.16 20.05 C 57.65 21.30 61.64 23.10 62.61 27.06 C 63.60 33.38 59.05 39.95 53.06 41.89 C 43.13 45.46 32.37 45.32 21.99 44.58 C 14.64 44.14 7.52 46.26 0.83 49.08 C 1.90 45.33 3.69 41.83 5.53 38.41 C 7.07 35.35 10.91 34.78 13.98 34.81 C 24.68 35.37 35.15 39.24 45.95 38.03 C 50.97 37.49 56.78 34.51 57.38 28.95 C 58.17 25.56 56.44 22.42 54.16 20.05 Z" />
<path fill="#f34d19" opacity="1.00" d=" M 67.02 26.24 C 68.52 26.24 70.03 26.24 71.54 26.25 C 71.10 27.90 70.66 29.55 70.26 31.22 C 73.24 29.31 75.75 25.07 79.81 26.33 C 82.17 28.88 77.64 30.43 76.05 28.28 C 75.08 29.04 74.11 29.79 73.15 30.53 C 74.02 30.78 75.76 31.26 76.64 31.50 C 77.39 33.13 76.94 35.02 77.20 36.75 C 78.67 37.10 80.21 36.23 80.63 34.77 C 81.60 31.98 82.25 29.09 82.99 26.23 C 84.50 26.24 86.02 26.24 87.53 26.26 C 86.68 29.64 85.60 32.97 84.98 36.41 C 86.45 37.10 87.55 36.72 88.27 35.29 C 89.47 32.35 90.05 29.22 90.88 26.17 C 92.40 26.21 93.92 26.25 95.44 26.31 C 94.39 30.00 93.51 33.74 92.28 37.37 C 93.08 37.89 93.88 38.41 94.67 38.94 C 90.65 38.10 91.88 43.80 88.78 44.78 C 86.55 46.27 81.45 45.63 82.31 42.08 C 83.86 40.20 86.39 39.60 88.33 38.22 C 85.63 38.88 82.65 39.79 80.40 37.57 C 78.55 38.67 76.32 39.92 74.17 38.78 C 71.16 38.00 73.95 33.91 71.97 32.58 C 68.60 32.72 69.19 36.60 68.06 38.81 C 66.59 38.92 65.11 38.98 63.64 39.00 C 64.74 34.74 65.90 30.49 67.02 26.24 Z" />
<path fill="#f34d19" opacity="1.00" d=" M 100.86 26.86 C 103.19 25.79 106.94 25.26 108.32 27.99 C 108.27 29.62 107.04 30.10 105.62 30.22 C 105.65 29.61 105.71 28.39 105.74 27.78 C 104.29 26.48 103.05 28.27 102.34 29.39 C 101.20 31.35 100.39 33.68 100.74 35.97 C 101.95 38.19 105.26 36.27 106.97 36.28 C 106.58 36.85 105.81 38.00 105.42 38.57 C 103.06 38.80 100.56 39.70 98.26 38.70 C 97.15 37.95 96.33 36.85 95.43 35.87 C 96.38 32.53 97.32 28.41 100.86 26.86 Z" />
<path fill="#f34d19" opacity="1.00" d=" M 110.69 26.28 C 112.24 26.25 113.78 26.22 115.33 26.20 C 114.44 29.50 113.59 32.81 112.78 36.13 C 113.85 36.73 114.91 37.34 115.96 37.97 C 113.64 39.13 111.15 39.56 108.82 38.24 C 108.60 37.14 108.32 36.06 108.04 34.98 C 109.47 32.27 110.03 29.24 110.69 26.28 Z" />
<path fill="#f34d19" opacity="1.00" d=" M 118.59 26.29 C 120.13 26.25 121.67 26.22 123.21 26.18 C 122.33 29.63 121.45 33.09 120.57 36.54 C 121.71 36.53 123.12 37.07 123.94 35.95 C 125.67 32.97 126.00 29.42 126.97 26.15 C 130.76 27.30 135.38 24.78 138.51 27.73 C 140.84 26.23 144.58 25.07 146.38 27.95 C 146.30 30.93 145.16 33.75 144.60 36.65 C 145.77 36.56 146.94 36.43 148.11 36.28 C 148.66 32.34 150.22 27.78 154.39 26.44 C 157.63 26.00 160.93 26.51 164.20 26.19 C 163.40 29.46 162.59 32.71 161.69 35.95 C 162.25 36.46 163.35 37.47 163.91 37.97 C 161.75 39.31 159.07 39.67 157.41 37.41 C 154.70 39.35 151.12 39.91 148.63 37.32 C 146.41 39.39 142.00 40.30 140.40 37.07 C 140.72 34.07 141.82 31.19 141.80 28.15 C 136.82 29.00 137.53 35.20 136.09 38.91 C 134.57 38.91 133.05 38.91 131.53 38.91 C 132.44 35.31 133.69 31.75 133.79 28.00 C 128.93 29.26 129.64 35.29 128.12 39.09 C 126.50 38.94 124.88 38.78 123.29 38.47 C 121.82 38.75 120.37 39.13 118.87 39.19 C 117.33 38.76 116.64 37.11 115.55 36.07 C 117.19 33.03 117.82 29.62 118.59 26.29 M 156.17 28.16 C 153.86 30.03 152.51 33.62 153.61 36.44 C 158.24 37.81 158.39 30.91 159.03 27.83 C 158.31 27.92 156.89 28.08 156.17 28.16 Z" />
<path fill="#f34d19" opacity="1.00" d=" M 167.29 27.26 C 171.06 27.85 175.10 30.10 176.29 33.97 C 177.27 37.95 175.24 41.86 172.84 44.90 C 170.21 48.25 165.86 49.40 161.93 50.40 C 154.08 52.00 145.97 52.73 138.00 51.78 C 129.92 50.98 121.88 52.93 114.54 56.21 C 115.85 51.97 117.72 47.85 120.16 44.15 C 123.93 40.74 129.54 41.99 134.10 42.50 C 144.16 43.87 154.77 47.46 164.71 43.77 C 170.70 41.73 173.50 33.64 169.25 28.67 C 168.46 28.35 167.80 27.87 167.29 27.26 Z" />
<path fill="#f34d19" opacity="1.00" d=" M 27.72 61.17 C 29.32 59.21 31.60 60.22 32.00 62.63 C 32.90 61.35 34.09 58.56 35.78 61.14 C 35.21 61.62 34.06 62.58 33.49 63.06 C 34.69 64.09 35.97 65.02 37.16 66.06 C 37.24 68.14 36.76 70.19 36.56 72.25 C 32.74 72.31 35.66 67.71 35.15 65.45 C 32.20 67.04 34.71 72.50 30.54 72.31 C 30.96 70.06 31.40 67.81 31.64 65.53 C 28.57 67.07 30.74 72.48 26.51 72.34 C 27.55 69.65 27.52 66.18 30.34 64.61 C 32.12 62.89 29.21 61.46 27.72 61.17 Z" />
<path fill="#f34d19" opacity="1.00" d=" M 36.07 62.08 C 35.43 60.68 37.79 59.42 38.81 60.41 C 39.61 61.86 37.07 62.84 36.07 62.08 Z" />
<path fill="#f34d19" opacity="1.00" d=" M 119.08 64.20 C 119.87 62.29 121.18 59.13 123.78 60.17 C 124.38 61.92 124.93 64.62 122.76 65.47 C 122.86 64.22 123.06 61.71 123.16 60.46 C 120.59 63.32 120.54 67.40 120.22 71.01 C 123.63 71.38 122.33 67.32 121.13 65.72 C 126.52 65.71 123.44 73.93 119.10 71.79 C 117.04 69.81 118.33 66.53 119.08 64.20 Z" />
<path fill="#f34d19" opacity="1.00" d=" M 148.30 60.39 C 148.90 60.41 150.10 60.43 150.70 60.44 C 149.48 63.32 149.66 66.99 147.29 69.26 C 147.35 66.28 147.82 63.33 148.30 60.39 Z" />
<path fill="#f34d19" opacity="1.00" d=" M 38.57 69.99 C 39.12 67.63 38.50 63.69 41.90 63.67 C 41.36 66.56 40.83 69.49 41.55 72.40 C 40.41 71.98 38.23 71.74 38.57 69.99 Z" />
<path fill="#f34d19" opacity="1.00" d=" M 43.40 64.03 C 43.93 64.01 45.00 63.99 45.53 63.98 C 45.11 66.25 44.69 68.53 44.30 70.81 C 44.76 70.53 45.69 69.97 46.15 69.69 C 47.08 69.78 48.01 69.84 48.94 69.86 C 49.99 68.27 49.62 66.38 49.35 64.63 C 48.26 65.53 47.15 66.41 46.04 67.28 C 47.26 65.75 48.44 63.17 50.86 64.06 C 53.27 65.71 51.73 68.56 50.68 70.53 C 52.05 72.38 50.84 74.31 49.90 76.00 L 47.41 76.00 L 46.13 74.19 C 46.84 74.34 48.25 74.64 48.96 74.78 C 48.59 73.10 48.17 71.43 47.56 69.81 C 45.79 71.20 43.85 72.49 41.60 71.37 C 42.27 68.94 42.84 66.48 43.40 64.03 Z" />
<path fill="#f34d19" opacity="1.00" d=" M 54.53 64.39 C 55.05 64.20 56.08 63.82 56.60 63.64 C 56.50 64.61 56.29 66.54 56.19 67.51 C 57.82 66.36 58.03 63.81 60.34 63.60 C 60.09 65.97 59.10 68.35 59.50 70.75 L 59.84 71.27 C 57.76 74.19 56.48 69.16 56.99 67.44 C 54.91 69.06 55.96 73.13 52.18 72.22 C 53.10 69.65 53.75 67.00 54.53 64.39 Z" />
<path fill="#f34d19" opacity="1.00" d=" M 62.50 64.11 C 63.06 64.08 64.17 64.01 64.72 63.98 C 64.60 64.53 64.36 65.62 64.24 66.17 C 65.44 66.65 67.79 66.21 67.53 68.19 C 67.88 71.73 62.31 73.71 61.05 69.93 C 61.46 67.98 62.04 66.06 62.50 64.11 M 63.37 71.06 C 65.20 70.26 65.86 68.59 65.13 66.67 C 64.03 67.90 63.63 69.48 63.37 71.06 Z" />
<path fill="#f34d19" opacity="1.00" d=" M 71.57 69.97 C 72.15 67.67 71.51 63.44 75.00 63.75 C 74.65 65.49 74.26 67.22 73.85 68.95 C 74.02 69.76 74.36 71.38 74.53 72.19 C 73.27 72.01 71.24 71.74 71.57 69.97 Z" />
<path fill="#f34d19" opacity="1.00" d=" M 76.39 64.02 C 76.94 64.05 78.04 64.10 78.59 64.13 C 78.11 66.31 77.66 68.49 77.26 70.68 C 78.47 70.01 79.68 69.35 80.90 68.69 L 80.60 71.41 C 83.12 69.40 81.65 64.25 85.61 63.67 C 85.87 66.29 86.83 68.87 86.63 71.51 C 86.10 71.71 85.05 72.09 84.52 72.28 C 84.23 70.07 83.87 67.87 83.37 65.69 C 82.79 67.66 83.16 70.02 81.90 71.75 C 79.40 71.49 76.15 72.74 74.65 70.06 C 75.52 68.14 75.93 66.06 76.39 64.02 Z" />
<path fill="#f34d19" opacity="1.00" d=" M 87.79 65.27 C 88.69 64.27 89.84 63.75 91.26 63.71 C 90.80 66.11 90.36 68.52 90.12 70.96 C 92.81 68.81 92.41 63.57 96.88 63.75 C 97.53 64.72 98.18 65.70 98.84 66.67 C 99.03 64.43 101.18 64.18 102.83 63.78 C 103.56 64.78 104.30 65.79 105.07 66.77 L 104.94 64.08 C 107.92 64.11 110.91 64.03 113.89 64.30 C 114.64 66.03 113.78 67.84 113.51 69.56 C 113.85 69.97 114.51 70.78 114.85 71.19 C 113.87 71.54 112.87 71.84 111.87 72.11 C 110.99 69.63 112.02 67.00 111.99 64.46 C 108.87 66.24 111.65 72.31 107.39 72.20 C 107.60 69.73 108.12 67.31 108.48 64.86 C 105.81 66.16 106.67 69.87 105.79 72.25 C 102.61 72.54 104.01 69.60 104.18 67.68 C 103.56 66.91 102.82 67.02 101.94 68.00 C 101.29 68.82 100.10 69.41 100.20 70.62 C 100.99 70.74 102.56 70.99 103.35 71.11 C 101.43 72.21 99.01 72.42 97.47 70.59 C 97.71 69.78 98.19 68.14 98.43 67.32 C 97.20 66.84 95.88 66.43 95.24 65.13 C 94.98 65.79 94.46 67.11 94.19 67.78 L 97.09 67.25 C 96.28 67.97 94.66 69.41 93.85 70.12 C 94.71 70.37 96.44 70.85 97.31 71.10 C 95.62 72.20 93.68 72.00 91.89 71.33 C 89.97 72.28 87.95 72.12 87.43 69.61 C 87.81 69.27 88.59 68.59 88.97 68.25 C 88.48 67.30 88.08 66.30 87.79 65.27 M 101.37 66.38 C 101.65 66.65 101.65 66.65 101.37 66.38 Z" />
<path fill="#f34d19" opacity="1.00" d=" M 124.20 66.50 C 125.46 65.48 126.64 64.36 128.05 63.55 C 127.69 65.55 129.08 66.54 130.55 67.42 C 131.13 69.00 131.46 70.67 131.87 72.30 C 128.58 72.65 128.72 69.75 128.48 67.41 C 127.25 69.23 127.44 72.50 124.52 72.31 C 124.87 70.67 125.24 69.03 125.64 67.40 C 125.28 67.18 124.56 66.73 124.20 66.50 Z" />
<path fill="#f34d19" opacity="1.00" d=" M 128.50 65.80 C 130.46 63.54 133.55 64.38 136.17 64.00 C 135.39 66.93 135.20 69.96 135.52 72.97 C 134.32 72.13 133.12 71.27 131.94 70.40 C 132.46 69.21 133.50 66.82 134.02 65.63 C 132.18 65.76 130.34 65.79 128.50 65.80 Z" />
<path fill="#f34d19" opacity="1.00" d=" M 135.58 73.60 C 136.48 70.11 135.92 65.21 139.62 63.31 C 139.06 67.62 139.32 72.27 136.71 76.00 L 133.91 76.00 C 133.58 74.39 133.20 72.51 135.58 73.60 Z" />
<path fill="#f34d19" opacity="1.00" d=" M 139.45 69.94 C 140.66 67.87 140.95 64.18 143.93 63.99 C 145.79 63.22 145.57 65.76 146.04 66.75 C 145.00 66.51 143.97 66.26 142.94 66.01 C 142.73 67.73 142.55 69.46 142.42 71.20 L 145.39 70.47 C 143.71 73.11 140.89 71.95 139.45 69.94 Z" />
<path fill="#f34d19" opacity="1.00" d=" M 146.19 70.15 C 147.21 68.78 149.78 70.32 148.56 71.79 C 147.56 73.21 144.94 71.59 146.19 70.15 Z" />
</g>
</svg>
